<svg width="21" height="20" viewBox="0 0 21 20" fill="none" xmlns="http://www.w3.org/2000/svg">
<path d="M3 14.984V10.5896C3 7.56182 3 6.04792 3.91529 5.1073C4.83058 4.16669 6.30372 4.16669 9.25 4.16669C12.1962 4.16669 13.6694 4.16669 14.5847 5.1073C15.5 6.04792 15.5 7.56182 15.5 10.5896V14.984C15.5 16.9056 15.5 17.8664 14.8962 18.2103C13.727 18.8762 11.5337 16.6544 10.4922 15.9854C9.88808 15.5974 9.58608 15.4034 9.25 15.4034C8.91392 15.4034 8.61188 15.5974 8.00782 15.9854C6.96625 16.6544 4.77302 18.8762 3.60378 18.2103C3 17.8664 3 16.9056 3 14.984Z" stroke="white" stroke-width="1.5" stroke-linecap="round" stroke-linejoin="round"/>
<path d="M8 1.66669H9.66667C13.595 1.66669 15.5592 1.66669 16.7796 2.88708C18 4.10746 18 6.07165 18 10V15" stroke="white" stroke-width="1.5" stroke-linecap="round" stroke-linejoin="round"/>
</svg>
