<svg width="616" height="435" viewBox="0 0 616 435" fill="none" xmlns="http://www.w3.org/2000/svg">
<g filter="url(#filter0_d_2001_1253)">
<rect x="133" y="23" width="341.198" height="87.515" rx="6.64671" fill="white"/>
<rect x="162.909" y="40.7246" width="26.5868" height="18.8323" rx="6.64671" fill="#FFDFE9"/>
<rect x="434.316" y="31.8623" width="26.5868" height="13.2934" rx="6.64671" fill="#89016F"/>
<rect x="145.001" y="65.9998" width="63" height="12" rx="6" fill="#F3E1E7"/>
<rect x="232.699" y="36.2935" width="118.533" height="11.0778" rx="5.53892" fill="#89016F"/>
<rect x="232.699" y="50.6946" width="66.4671" height="11.0778" rx="5.53892" fill="#F3E1E7"/>
<rect x="232.699" y="88.3593" width="66.4671" height="11.0778" rx="5.53892" fill="#F3E1E7"/>
<rect x="394.436" y="88.3593" width="66.4671" height="11.0778" rx="5.53892" fill="#F3E1E7"/>
<rect x="224.945" y="29.6467" width="74.2216" height="4.43113" rx="2.21557" transform="rotate(90 224.945 29.6467)" fill="#F1F1F1"/>
<rect x="151.831" y="83.9282" width="49.8503" height="8.86228" rx="4.43114" fill="#F3E1E7"/>
</g>
<g filter="url(#filter1_d_2001_1253)">
<path fill-rule="evenodd" clip-rule="evenodd" d="M167.949 218C169.28 213.907 170 209.537 170 205C170 181.804 151.196 163 128 163C104.804 163 86 181.804 86 205C86 209.537 86.7195 213.907 88.0506 218H66C60.4772 218 56 222.477 56 228V322C56 327.523 60.4771 332 66 332H190C195.523 332 200 327.523 200 322V228C200 222.477 195.523 218 190 218H167.949ZM167.949 218H88.0506C93.5245 234.833 109.341 247 128 247C146.659 247 162.475 234.833 167.949 218Z" fill="white"/>
</g>
<path d="M94.4679 285.252C94.4679 284.628 94.2819 284.142 93.9099 283.794C93.5499 283.446 93.0339 283.272 92.3619 283.272H88.6719V281.4H92.5239C93.7599 281.4 94.7319 281.748 95.4399 282.444C96.1599 283.14 96.5199 284.076 96.5199 285.252H94.4679ZM87.6099 294V281.4H89.6259V294H87.6099ZM88.6719 289.086V287.214H92.3619C93.0339 287.214 93.5499 287.04 93.9099 286.692C94.2819 286.344 94.4679 285.864 94.4679 285.252H96.5199C96.5199 286.416 96.1599 287.346 95.4399 288.042C94.7319 288.738 93.7599 289.086 92.5239 289.086H88.6719ZM104.14 294.27C102.964 294.27 101.914 294 100.99 293.46C100.078 292.908 99.3638 292.14 98.8478 291.156C98.3318 290.16 98.0738 289.008 98.0738 287.7C98.0738 286.392 98.3318 285.246 98.8478 284.262C99.3638 283.266 100.078 282.498 100.99 281.958C101.914 281.406 102.964 281.13 104.14 281.13C105.328 281.13 106.378 281.406 107.29 281.958C108.202 282.498 108.916 283.266 109.432 284.262C109.948 285.246 110.206 286.392 110.206 287.7C110.206 289.008 109.948 290.16 109.432 291.156C108.916 292.14 108.202 292.908 107.29 293.46C106.378 294 105.328 294.27 104.14 294.27ZM104.14 292.29C104.908 292.29 105.592 292.104 106.192 291.732C106.792 291.348 107.26 290.814 107.596 290.13C107.944 289.446 108.118 288.636 108.118 287.7C108.118 286.752 107.944 285.936 107.596 285.252C107.26 284.568 106.792 284.04 106.192 283.668C105.592 283.296 104.908 283.11 104.14 283.11C103.372 283.11 102.688 283.296 102.088 283.668C101.488 284.04 101.014 284.568 100.666 285.252C100.33 285.936 100.162 286.752 100.162 287.7C100.162 288.636 100.33 289.446 100.666 290.13C101.014 290.814 101.488 291.348 102.088 291.732C102.688 292.104 103.372 292.29 104.14 292.29ZM116.664 294.27C115.788 294.27 114.996 294.114 114.288 293.802C113.592 293.49 113.01 293.052 112.542 292.488C112.074 291.912 111.762 291.252 111.606 290.508L113.496 290.022L113.694 290.058C113.85 290.502 114.072 290.898 114.36 291.246C114.66 291.582 115.014 291.846 115.422 292.038C115.83 292.23 116.268 292.326 116.736 292.326C117.216 292.326 117.636 292.254 117.996 292.11C118.356 291.954 118.638 291.744 118.842 291.48C119.058 291.204 119.166 290.892 119.166 290.544C119.166 290.112 119.028 289.77 118.752 289.518C118.488 289.254 118.092 289.05 117.564 288.906L115.296 288.312C114.228 288.024 113.412 287.562 112.848 286.926C112.296 286.29 112.02 285.552 112.02 284.712C112.02 284.004 112.2 283.386 112.56 282.858C112.92 282.318 113.424 281.898 114.072 281.598C114.72 281.286 115.47 281.13 116.322 281.13C117.138 281.13 117.87 281.28 118.518 281.58C119.178 281.868 119.724 282.276 120.156 282.804C120.588 283.332 120.87 283.962 121.002 284.694L119.22 285.09L119.022 285.054C118.878 284.43 118.566 283.944 118.086 283.596C117.606 283.248 117.012 283.074 116.304 283.074C115.656 283.074 115.14 283.23 114.756 283.542C114.372 283.842 114.18 284.232 114.18 284.712C114.18 285.108 114.318 285.444 114.594 285.72C114.882 285.996 115.302 286.206 115.854 286.35L118.122 286.944C119.166 287.22 119.958 287.658 120.498 288.258C121.05 288.846 121.326 289.578 121.326 290.454C121.326 291.222 121.134 291.894 120.75 292.47C120.366 293.034 119.82 293.478 119.112 293.802C118.416 294.114 117.6 294.27 116.664 294.27ZM125.54 294V281.4H127.61V294H125.54ZM121.778 283.38V281.4H131.372V283.38H121.778ZM140.158 294.27C139.39 294.27 138.718 294.12 138.142 293.82C137.578 293.508 137.134 293.088 136.81 292.56C136.486 292.02 136.324 291.39 136.324 290.67V289.86H138.196L138.394 289.95V290.67C138.394 291.15 138.556 291.54 138.88 291.84C139.216 292.14 139.642 292.29 140.158 292.29C140.674 292.29 141.094 292.14 141.418 291.84C141.742 291.528 141.904 291.12 141.904 290.616V281.4H143.974V290.58C143.974 291.312 143.818 291.96 143.506 292.524C143.194 293.076 142.75 293.508 142.174 293.82C141.598 294.12 140.926 294.27 140.158 294.27ZM151.952 294.27C150.776 294.27 149.726 294 148.802 293.46C147.89 292.908 147.176 292.14 146.66 291.156C146.144 290.16 145.886 289.008 145.886 287.7C145.886 286.392 146.144 285.246 146.66 284.262C147.176 283.266 147.89 282.498 148.802 281.958C149.726 281.406 150.776 281.13 151.952 281.13C153.14 281.13 154.19 281.406 155.102 281.958C156.014 282.498 156.728 283.266 157.244 284.262C157.76 285.246 158.018 286.392 158.018 287.7C158.018 289.008 157.76 290.16 157.244 291.156C156.728 292.14 156.014 292.908 155.102 293.46C154.19 294 153.14 294.27 151.952 294.27ZM151.952 292.29C152.72 292.29 153.404 292.104 154.004 291.732C154.604 291.348 155.072 290.814 155.408 290.13C155.756 289.446 155.93 288.636 155.93 287.7C155.93 286.752 155.756 285.936 155.408 285.252C155.072 284.568 154.604 284.04 154.004 283.668C153.404 283.296 152.72 283.11 151.952 283.11C151.184 283.11 150.5 283.296 149.9 283.668C149.3 284.04 148.826 284.568 148.478 285.252C148.142 285.936 147.974 286.752 147.974 287.7C147.974 288.636 148.142 289.446 148.478 290.13C148.826 290.814 149.3 291.348 149.9 291.732C150.5 292.104 151.184 292.29 151.952 292.29ZM161.164 294V292.128H164.944C165.628 292.128 166.15 291.954 166.51 291.606C166.87 291.258 167.05 290.772 167.05 290.148C167.05 289.548 166.858 289.08 166.474 288.744C166.102 288.408 165.592 288.24 164.944 288.24H161.164V286.422H164.692C165.064 286.422 165.382 286.356 165.646 286.224C165.922 286.092 166.138 285.906 166.294 285.666C166.45 285.426 166.528 285.15 166.528 284.838C166.528 284.37 166.36 283.992 166.024 283.704C165.7 283.416 165.256 283.272 164.692 283.272H161.164V281.4H164.692C165.88 281.4 166.81 281.712 167.482 282.336C168.166 282.96 168.508 283.752 168.508 284.712C168.508 285.168 168.4 285.588 168.184 285.972C167.98 286.356 167.698 286.68 167.338 286.944C166.978 287.196 166.582 287.358 166.15 287.43V286.998C166.69 287.034 167.182 287.202 167.626 287.502C168.082 287.802 168.442 288.192 168.706 288.672C168.97 289.152 169.102 289.686 169.102 290.274C169.102 291.402 168.748 292.308 168.04 292.992C167.332 293.664 166.354 294 165.106 294H161.164ZM160.102 294V281.4H162.118V294H160.102Z" fill="#251010"/>
<circle cx="128" cy="205" r="34" fill="#89016F"/>
<g clip-path="url(#clip0_2001_1253)">
<path fill-rule="evenodd" clip-rule="evenodd" d="M126.877 216.914H115.32C114.033 216.914 113 215.88 113 214.615V191.459C113 190.193 114.033 189.16 115.32 189.16H126.877H138.455C139.742 189.16 140.775 190.193 140.775 191.459V214.615C140.775 215.88 139.742 216.914 138.455 216.914H126.877Z" fill="white"/>
<path fill-rule="evenodd" clip-rule="evenodd" d="M115.32 189.16C114.033 189.16 113 190.193 113 191.459V193.652H140.775V191.459C140.775 190.193 139.742 189.16 138.455 189.16H115.32Z" fill="#3A556A"/>
<path fill-rule="evenodd" clip-rule="evenodd" d="M119.58 191.986H117.787C117.471 191.986 117.197 191.733 117.197 191.395C117.197 191.079 117.471 190.826 117.787 190.826H119.58C119.896 190.826 120.17 191.079 120.17 191.395C120.17 191.733 119.896 191.986 119.58 191.986Z" fill="#FFD54F"/>
<path fill-rule="evenodd" clip-rule="evenodd" d="M123.207 191.986H121.415C121.098 191.986 120.824 191.733 120.824 191.395C120.824 191.079 121.098 190.826 121.415 190.826H123.207C123.524 190.826 123.798 191.079 123.798 191.395C123.798 191.733 123.524 191.986 123.207 191.986Z" fill="#EF5350"/>
<path fill-rule="evenodd" clip-rule="evenodd" d="M126.835 191.986H125.042C124.705 191.986 124.452 191.733 124.452 191.395C124.452 191.079 124.705 190.826 125.042 190.826H126.835C127.151 190.826 127.404 191.079 127.404 191.395C127.404 191.733 127.151 191.986 126.835 191.986Z" fill="#33CC66"/>
<path fill-rule="evenodd" clip-rule="evenodd" d="M140.775 193.652H129.534C129.534 192.492 130.483 191.543 131.643 191.543H140.775V193.652Z" fill="#708392"/>
<path fill-rule="evenodd" clip-rule="evenodd" d="M131.791 201.413H130.146C129.872 201.413 129.661 201.202 129.661 200.949V197.638C129.661 197.385 129.872 197.153 130.146 197.153H131.791C132.972 197.153 133.921 198.123 133.921 199.283C133.921 200.464 132.972 201.413 131.791 201.413ZM130.631 200.464H131.791C132.445 200.464 132.972 199.937 132.972 199.283C132.972 198.65 132.445 198.123 131.791 198.123H130.631V200.464Z" fill="#89016F"/>
<path fill-rule="evenodd" clip-rule="evenodd" d="M132.424 204.724H130.146C129.872 204.724 129.661 204.513 129.661 204.239V200.949C129.661 200.675 129.872 200.464 130.146 200.464H132.424C133.605 200.464 134.554 201.413 134.554 202.594C134.554 203.775 133.605 204.724 132.424 204.724ZM130.631 203.775H132.424C133.077 203.775 133.605 203.248 133.605 202.594C133.605 201.94 133.077 201.413 132.424 201.413H130.631V203.775Z" fill="#89016F"/>
<path fill-rule="evenodd" clip-rule="evenodd" d="M125.801 204.724H125.527C124.22 204.724 123.165 203.67 123.165 202.383V199.515C123.165 198.207 124.22 197.153 125.527 197.153H125.801C127.088 197.153 128.142 198.207 128.142 199.515V202.383C128.142 203.67 127.088 204.724 125.801 204.724ZM125.527 198.123C124.747 198.123 124.135 198.735 124.135 199.515V202.383C124.135 203.142 124.747 203.775 125.527 203.775H125.801C126.561 203.775 127.193 203.142 127.193 202.383V199.515C127.193 198.735 126.561 198.123 125.801 198.123H125.527Z" fill="#89016F"/>
<path fill-rule="evenodd" clip-rule="evenodd" d="M119.2 204.724C118.019 204.724 117.07 203.754 117.07 202.594C117.07 202.32 117.281 202.109 117.555 202.109C117.83 202.109 118.04 202.32 118.04 202.594C118.04 203.227 118.568 203.754 119.2 203.754C119.854 203.754 120.36 203.227 120.36 202.594V197.659C120.36 197.385 120.592 197.174 120.845 197.174C121.12 197.174 121.33 197.385 121.33 197.659V202.594C121.33 203.754 120.381 204.724 119.2 204.724Z" fill="#89016F"/>
<path fill-rule="evenodd" clip-rule="evenodd" d="M134.322 207.677H117.661C117.387 207.677 117.176 207.466 117.176 207.192C117.176 206.917 117.387 206.707 117.661 206.707H134.322C134.575 206.707 134.786 206.917 134.786 207.192C134.786 207.466 134.575 207.677 134.322 207.677Z" fill="#D5D6DB"/>
<path fill-rule="evenodd" clip-rule="evenodd" d="M134.322 210.608H117.661C117.387 210.608 117.176 210.397 117.176 210.144C117.176 209.87 117.387 209.659 117.661 209.659H134.322C134.575 209.659 134.786 209.87 134.786 210.144C134.786 210.397 134.575 210.608 134.322 210.608Z" fill="#D5D6DB"/>
<path fill-rule="evenodd" clip-rule="evenodd" d="M134.322 213.561H117.661C117.387 213.561 117.176 213.35 117.176 213.076C117.176 212.822 117.387 212.59 117.661 212.59H134.322C134.575 212.59 134.786 212.822 134.786 213.076C134.786 213.35 134.575 213.561 134.322 213.561Z" fill="#D5D6DB"/>
<path fill-rule="evenodd" clip-rule="evenodd" d="M145.351 222.84C145.225 222.84 145.098 222.798 145.014 222.692L140.227 217.926L138.982 219.17C138.856 219.297 138.687 219.339 138.518 219.297C138.35 219.234 138.223 219.107 138.181 218.938L136.241 210.65C136.199 210.503 136.241 210.334 136.367 210.207C136.473 210.102 136.641 210.039 136.81 210.081L145.098 212.021C145.267 212.063 145.394 212.19 145.436 212.359C145.478 212.527 145.436 212.717 145.309 212.844L144.065 214.088L148.852 218.854C148.937 218.938 149 219.065 149 219.192C149 219.318 148.937 219.445 148.852 219.529L145.689 222.692C145.583 222.798 145.457 222.84 145.351 222.84Z" fill="#FF2C20"/>
</g>
<g filter="url(#filter2_d_2001_1253)">
<path fill-rule="evenodd" clip-rule="evenodd" d="M343.949 218C345.281 213.907 346 209.537 346 205C346 181.804 327.196 163 304 163C280.804 163 262 181.804 262 205C262 209.537 262.719 213.907 264.051 218H242C236.477 218 232 222.477 232 228V322C232 327.523 236.477 332 242 332H366C371.523 332 376 327.523 376 322V228C376 222.477 371.523 218 366 218H343.949ZM343.949 218H264.051C269.525 234.833 285.341 247 304 247C322.659 247 338.475 234.833 343.949 218Z" fill="white"/>
</g>
<path d="M257.174 286.21C256.26 286.21 255.452 285.995 254.752 285.566C254.052 285.137 253.506 284.539 253.114 283.774C252.732 283.009 252.54 282.117 252.54 281.1C252.54 280.073 252.732 279.182 253.114 278.426C253.506 277.661 254.052 277.063 254.752 276.634C255.452 276.205 256.26 275.99 257.174 275.99C258.136 275.99 258.985 276.242 259.722 276.746C260.46 277.25 260.992 277.95 261.318 278.846L259.904 279.252L259.75 279.224C259.536 278.683 259.2 278.267 258.742 277.978C258.285 277.679 257.767 277.53 257.188 277.53C256.582 277.53 256.05 277.679 255.592 277.978C255.144 278.267 254.794 278.678 254.542 279.21C254.29 279.742 254.164 280.372 254.164 281.1C254.164 281.828 254.29 282.458 254.542 282.99C254.794 283.522 255.144 283.937 255.592 284.236C256.05 284.525 256.582 284.67 257.188 284.67C257.767 284.67 258.285 284.521 258.742 284.222C259.2 283.923 259.536 283.508 259.75 282.976L259.904 282.948L261.318 283.354C260.992 284.25 260.46 284.95 259.722 285.454C258.985 285.958 258.136 286.21 257.174 286.21ZM267.034 286.21C266.119 286.21 265.303 286 264.584 285.58C263.875 285.151 263.319 284.553 262.918 283.788C262.517 283.013 262.316 282.117 262.316 281.1C262.316 280.083 262.517 279.191 262.918 278.426C263.319 277.651 263.875 277.054 264.584 276.634C265.303 276.205 266.119 275.99 267.034 275.99C267.958 275.99 268.775 276.205 269.484 276.634C270.193 277.054 270.749 277.651 271.15 278.426C271.551 279.191 271.752 280.083 271.752 281.1C271.752 282.117 271.551 283.013 271.15 283.788C270.749 284.553 270.193 285.151 269.484 285.58C268.775 286 267.958 286.21 267.034 286.21ZM267.034 284.67C267.631 284.67 268.163 284.525 268.63 284.236C269.097 283.937 269.461 283.522 269.722 282.99C269.993 282.458 270.128 281.828 270.128 281.1C270.128 280.363 269.993 279.728 269.722 279.196C269.461 278.664 269.097 278.253 268.63 277.964C268.163 277.675 267.631 277.53 267.034 277.53C266.437 277.53 265.905 277.675 265.438 277.964C264.971 278.253 264.603 278.664 264.332 279.196C264.071 279.728 263.94 280.363 263.94 281.1C263.94 281.828 264.071 282.458 264.332 282.99C264.603 283.522 264.971 283.937 265.438 284.236C265.905 284.525 266.437 284.67 267.034 284.67ZM279.799 286L273.373 276.634V276.2H274.983L281.409 285.566V286H279.799ZM273.373 286V276.2H274.983V286H273.373ZM279.799 286V276.2H281.409V286H279.799ZM289.888 286L283.462 276.634V276.2H285.072L291.498 285.566V286H289.888ZM283.462 286V276.2H285.072V286H283.462ZM289.888 286V276.2H291.498V286H289.888ZM293.552 286V276.2H295.162V286H293.552ZM294.378 286V284.46H300.034V286H294.378ZM294.378 281.8V280.26H299.67V281.8H294.378ZM294.378 277.74V276.2H300.034V277.74H294.378ZM305.887 286.21C304.973 286.21 304.165 285.995 303.465 285.566C302.765 285.137 302.219 284.539 301.827 283.774C301.445 283.009 301.253 282.117 301.253 281.1C301.253 280.073 301.445 279.182 301.827 278.426C302.219 277.661 302.765 277.063 303.465 276.634C304.165 276.205 304.973 275.99 305.887 275.99C306.849 275.99 307.698 276.242 308.435 276.746C309.173 277.25 309.705 277.95 310.031 278.846L308.617 279.252L308.463 279.224C308.249 278.683 307.913 278.267 307.455 277.978C306.998 277.679 306.48 277.53 305.901 277.53C305.295 277.53 304.763 277.679 304.305 277.978C303.857 278.267 303.507 278.678 303.255 279.21C303.003 279.742 302.877 280.372 302.877 281.1C302.877 281.828 303.003 282.458 303.255 282.99C303.507 283.522 303.857 283.937 304.305 284.236C304.763 284.525 305.295 284.67 305.901 284.67C306.48 284.67 306.998 284.521 307.455 284.222C307.913 283.923 308.249 283.508 308.463 282.976L308.617 282.948L310.031 283.354C309.705 284.25 309.173 284.95 308.435 285.454C307.698 285.958 306.849 286.21 305.887 286.21ZM313.729 286V276.2H315.339V286H313.729ZM310.803 277.74V276.2H318.265V277.74H310.803ZM330.629 286L327.619 276.2H329.257L332.099 285.706L332.225 286H330.629ZM330.629 286L330.699 285.706L333.485 276.2H335.123V276.312L332.225 286H330.629ZM324.651 286L321.753 276.312V276.2H323.391L326.177 285.706L326.247 286H324.651ZM324.651 286L324.777 285.706L327.619 276.2H329.257L326.247 286H324.651ZM336.386 286V276.2H337.996V286H336.386ZM342.262 286V276.2H343.872V286H342.262ZM339.336 277.74V276.2H346.798V277.74H339.336ZM354.416 286V276.2H356.026V286H354.416ZM348.13 286V276.2H349.74V286H348.13ZM348.956 281.73V280.19H355.326V281.73H348.956ZM280.111 306L277.101 296.2H278.739L281.581 305.706L281.707 306H280.111ZM280.111 306L280.181 305.706L282.967 296.2H284.605V296.312L281.707 306H280.111ZM274.133 306L271.235 296.312V296.2H272.873L275.659 305.706L275.729 306H274.133ZM274.133 306L274.259 305.706L277.101 296.2H278.739L275.729 306H274.133ZM290.03 306.21C289.115 306.21 288.299 306 287.58 305.58C286.871 305.151 286.315 304.553 285.914 303.788C285.513 303.013 285.312 302.117 285.312 301.1C285.312 300.083 285.513 299.191 285.914 298.426C286.315 297.651 286.871 297.054 287.58 296.634C288.299 296.205 289.115 295.99 290.03 295.99C290.954 295.99 291.771 296.205 292.48 296.634C293.189 297.054 293.745 297.651 294.146 298.426C294.547 299.191 294.748 300.083 294.748 301.1C294.748 302.117 294.547 303.013 294.146 303.788C293.745 304.553 293.189 305.151 292.48 305.58C291.771 306 290.954 306.21 290.03 306.21ZM290.03 304.67C290.627 304.67 291.159 304.525 291.626 304.236C292.093 303.937 292.457 303.522 292.718 302.99C292.989 302.458 293.124 301.828 293.124 301.1C293.124 300.363 292.989 299.728 292.718 299.196C292.457 298.664 292.093 298.253 291.626 297.964C291.159 297.675 290.627 297.53 290.03 297.53C289.433 297.53 288.901 297.675 288.434 297.964C287.967 298.253 287.599 298.664 287.328 299.196C287.067 299.728 286.936 300.363 286.936 301.1C286.936 301.828 287.067 302.458 287.328 302.99C287.599 303.522 287.967 303.937 288.434 304.236C288.901 304.525 289.433 304.67 290.03 304.67ZM296.369 306V296.2H297.937V306H296.369ZM297.195 302.178V300.708H300.205C300.727 300.708 301.129 300.573 301.409 300.302C301.698 300.031 301.843 299.663 301.843 299.196H303.481C303.481 300.101 303.196 300.825 302.627 301.366C302.067 301.907 301.301 302.178 300.331 302.178H297.195ZM301.843 299.196C301.843 298.72 301.698 298.347 301.409 298.076C301.129 297.805 300.727 297.67 300.205 297.67H297.195V296.2H300.331C301.301 296.2 302.067 296.471 302.627 297.012C303.196 297.553 303.481 298.281 303.481 299.196H301.843ZM301.773 306L299.533 301.744L301.073 301.296L303.509 305.888V306H301.773ZM305.822 303.9V301.66L310.596 296.2H312.57V296.312L305.822 303.9ZM304.996 306V296.2H306.606V306H304.996ZM310.932 306L307.502 301.072L308.692 300.008L312.766 305.888V306H310.932ZM313.623 306V296.2H315.233V306H313.623ZM314.449 306V304.46H320.105V306H314.449ZM314.449 301.8V300.26H319.741V301.8H314.449ZM314.449 297.74V296.2H320.105V297.74H314.449ZM321.744 306V296.2H323.312V306H321.744ZM322.57 302.178V300.708H325.58C326.102 300.708 326.504 300.573 326.784 300.302C327.073 300.031 327.218 299.663 327.218 299.196H328.856C328.856 300.101 328.571 300.825 328.002 301.366C327.442 301.907 326.676 302.178 325.706 302.178H322.57ZM327.218 299.196C327.218 298.72 327.073 298.347 326.784 298.076C326.504 297.805 326.102 297.67 325.58 297.67H322.57V296.2H325.706C326.676 296.2 327.442 296.471 328.002 297.012C328.571 297.553 328.856 298.281 328.856 299.196H327.218ZM327.148 306L324.908 301.744L326.448 301.296L328.884 305.888V306H327.148ZM333.773 306.21C333.091 306.21 332.475 306.089 331.925 305.846C331.383 305.603 330.931 305.263 330.567 304.824C330.203 304.376 329.96 303.863 329.839 303.284L331.309 302.906L331.463 302.934C331.584 303.279 331.757 303.587 331.981 303.858C332.214 304.119 332.489 304.325 332.807 304.474C333.124 304.623 333.465 304.698 333.829 304.698C334.202 304.698 334.529 304.642 334.809 304.53C335.089 304.409 335.308 304.245 335.467 304.04C335.635 303.825 335.719 303.583 335.719 303.312C335.719 302.976 335.611 302.71 335.397 302.514C335.191 302.309 334.883 302.15 334.473 302.038L332.709 301.576C331.878 301.352 331.243 300.993 330.805 300.498C330.375 300.003 330.161 299.429 330.161 298.776C330.161 298.225 330.301 297.745 330.581 297.334C330.861 296.914 331.253 296.587 331.757 296.354C332.261 296.111 332.844 295.99 333.507 295.99C334.141 295.99 334.711 296.107 335.215 296.34C335.728 296.564 336.153 296.881 336.489 297.292C336.825 297.703 337.044 298.193 337.147 298.762L335.761 299.07L335.607 299.042C335.495 298.557 335.252 298.179 334.879 297.908C334.505 297.637 334.043 297.502 333.493 297.502C332.989 297.502 332.587 297.623 332.289 297.866C331.99 298.099 331.841 298.403 331.841 298.776C331.841 299.084 331.948 299.345 332.163 299.56C332.387 299.775 332.713 299.938 333.143 300.05L334.907 300.512C335.719 300.727 336.335 301.067 336.755 301.534C337.184 301.991 337.399 302.561 337.399 303.242C337.399 303.839 337.249 304.362 336.951 304.81C336.652 305.249 336.227 305.594 335.677 305.846C335.135 306.089 334.501 306.21 333.773 306.21Z" fill="#251010"/>
<circle cx="304" cy="205" r="34" fill="#89016F"/>
<g clip-path="url(#clip1_2001_1253)">
<path fill-rule="evenodd" clip-rule="evenodd" d="M293.257 191.7H299.468C300.75 188.629 300.83 186.336 300.832 182.64C296.539 183.493 293.245 187.216 293.057 191.709C293.123 191.702 293.189 191.7 293.257 191.7Z" fill="#F5B533"/>
<path fill-rule="evenodd" clip-rule="evenodd" d="M304.775 182.684C304.78 186.353 304.863 188.639 306.142 191.7H312.153C312.219 191.7 312.285 191.702 312.351 191.709C312.168 187.287 308.971 183.609 304.775 182.684Z" fill="#F5B533"/>
<path fill-rule="evenodd" clip-rule="evenodd" d="M293.257 195.635H312.153C312.243 195.635 312.334 195.628 312.421 195.615C313.379 195.484 314.12 194.658 314.12 193.666C314.12 192.65 313.342 191.809 312.351 191.709C312.285 191.702 312.219 191.699 312.153 191.699H306.142H299.468H293.257C293.189 191.699 293.123 191.702 293.057 191.709C292.068 191.809 291.288 192.65 291.288 193.666C291.288 194.658 292.031 195.484 292.989 195.615C293.076 195.628 293.164 195.635 293.257 195.635Z" fill="#F5B533"/>
<path fill-rule="evenodd" clip-rule="evenodd" d="M299.468 191.7H306.142C304.863 188.639 304.78 186.353 304.775 182.684C304.775 182.55 304.775 182.416 304.775 182.279C304.775 182.045 304.582 181.853 304.348 181.853H301.259C301.025 181.853 300.832 182.045 300.832 182.279V182.64C300.83 186.336 300.75 188.629 299.468 191.7Z" fill="#F5B533"/>
<path fill-rule="evenodd" clip-rule="evenodd" d="M302.704 207.49C303.474 207.487 304.246 207.324 305.126 206.997C306.142 206.622 307.112 206.057 307.994 205.367C310.591 203.335 312.421 200.214 312.421 197.594V195.615C312.333 195.628 312.243 195.635 312.153 195.635H293.257C293.164 195.635 293.076 195.628 292.989 195.615V197.594C292.989 200.214 294.819 203.335 297.416 205.367C298.293 206.054 299.258 206.617 300.269 206.995C301.154 207.324 301.929 207.49 302.704 207.49Z" fill="#F5C6AF"/>
<path fill-rule="evenodd" clip-rule="evenodd" d="M287.862 222.045H302.704H317.141C316.169 220.919 315.328 219.622 314.948 218.916C313.596 216.398 313.172 214.359 313.238 211.547C314.327 211.452 315.467 211.074 316.564 210.509C315.004 208.606 312.904 206.971 310.08 205.962C310.928 209.293 309.258 211.35 308.106 212.741L302.704 207.49L297.304 212.741C296.149 211.35 294.482 209.293 295.328 205.962C288.844 208.277 286.166 213.898 285.15 218.484C284.555 221.175 285.233 222.045 287.862 222.045Z" fill="#ECF2F3"/>
<path fill-rule="evenodd" clip-rule="evenodd" d="M295.328 205.962C294.482 209.293 296.149 211.35 297.304 212.741L302.704 207.49C301.929 207.49 301.154 207.324 300.269 206.995C299.258 206.617 298.293 206.054 297.416 205.367C296.68 205.528 295.986 205.728 295.328 205.962Z" fill="#B5CDCD"/>
<path fill-rule="evenodd" clip-rule="evenodd" d="M302.704 207.49L308.106 212.741C309.258 211.35 310.928 209.293 310.08 205.962C309.424 205.728 308.73 205.528 307.994 205.367C307.112 206.057 306.142 206.622 305.126 206.997C304.246 207.324 303.474 207.487 302.704 207.49Z" fill="#B5CDCD"/>
<path fill-rule="evenodd" clip-rule="evenodd" d="M313.238 211.547C313.172 214.359 313.596 216.399 314.948 218.916C315.328 219.622 316.169 220.919 317.141 222.044C318.126 223.182 319.239 224.147 320.141 224.147C321.932 224.147 324.568 220.341 325.333 218.916C326.683 216.398 327.107 214.359 327.044 211.547C324.646 211.337 321.998 209.766 320.141 207.814C319.127 208.879 317.877 209.831 316.564 210.509C315.467 211.074 314.327 211.452 313.238 211.547Z" fill="#E0EF9B"/>
<path d="M318.843 216.079C318.469 215.793 317.934 215.865 317.648 216.239C317.362 216.613 317.433 217.148 317.808 217.434L319.265 218.548C319.419 218.666 319.601 218.723 319.782 218.723C320.015 218.723 320.247 218.628 320.414 218.443L323.199 215.368C323.516 215.019 323.489 214.479 323.14 214.163C322.791 213.847 322.252 213.874 321.936 214.223L319.677 216.717L318.843 216.079Z" fill="#89016F"/>
<path d="M327.896 211.528C327.887 211.093 327.551 210.735 327.118 210.698C325.09 210.52 322.594 209.158 320.759 207.227C320.598 207.057 320.375 206.961 320.141 206.961C320.141 206.961 320.141 206.961 320.141 206.961C319.907 206.961 319.684 207.057 319.523 207.226C318.699 208.092 317.743 208.843 316.757 209.424C315.026 207.492 312.895 206.068 310.398 205.172C310.376 205.163 310.354 205.155 310.332 205.148C310.137 205.079 309.94 205.014 309.742 204.951C311.853 202.845 313.274 200.077 313.274 197.594V196.254C314.272 195.82 314.972 194.823 314.972 193.666C314.972 192.464 314.216 191.436 313.154 191.031C312.716 186.776 309.718 183.2 305.6 182.016C305.479 181.437 304.964 181 304.349 181H301.259C300.666 181 300.167 181.407 300.023 181.955C297.997 182.496 296.147 183.649 294.76 185.251C293.352 186.879 292.477 188.91 292.254 191.031C291.192 191.436 290.435 192.464 290.435 193.666C290.435 194.824 291.136 195.82 292.136 196.255V197.594C292.136 200.075 293.557 202.844 295.669 204.951C295.475 205.012 295.284 205.076 295.095 205.142C295.058 205.153 295.022 205.166 294.987 205.181C292.192 206.19 289.858 207.859 288.031 210.163C286.273 212.38 285.024 215.118 284.317 218.3C284.066 219.438 283.877 220.867 284.652 221.833C285.41 222.776 286.765 222.897 287.862 222.897H293.44C293.91 222.897 294.292 222.515 294.292 222.044C294.292 221.574 293.91 221.192 293.44 221.192H287.862C286.842 221.192 286.209 221.048 285.982 220.765C285.741 220.465 285.741 219.76 285.982 218.669C286.868 214.678 289.035 209.793 294.256 207.327C294.095 210.208 295.656 212.09 296.648 213.285C296.8 213.468 297.021 213.58 297.259 213.592C297.496 213.605 297.728 213.518 297.898 213.352L302.704 208.679L307.512 213.352C307.671 213.507 307.884 213.594 308.106 213.594C308.121 213.594 308.136 213.593 308.152 213.592C308.389 213.579 308.611 213.468 308.762 213.285C309.753 212.089 311.312 210.205 311.153 207.33C312.667 208.049 314.005 209.01 315.156 210.207C314.469 210.473 313.793 210.643 313.163 210.698C312.73 210.735 312.395 211.093 312.385 211.527C312.314 214.576 312.822 216.76 314.196 219.316C314.208 219.338 314.673 220.17 315.396 221.192H301.159C300.688 221.192 300.306 221.574 300.306 222.045C300.306 222.515 300.688 222.897 301.159 222.897H316.751C317.778 224.033 318.991 225 320.141 225C322.914 225 326.054 219.373 326.084 219.317C327.457 216.76 327.965 214.576 327.896 211.528ZM311.413 190.847H306.719C305.832 188.53 305.664 186.619 305.634 183.815C308.71 184.903 310.945 187.616 311.413 190.847ZM301.685 182.705H303.923C303.928 186.006 304.012 188.241 304.905 190.847H300.704C301.596 188.241 301.679 186.005 301.685 182.705ZM299.974 183.748C299.946 186.589 299.783 188.511 298.89 190.847H293.996C294.482 187.574 296.835 184.787 299.974 183.748ZM293.257 192.552H298.961C299.011 192.593 299.06 192.598 299.1 192.552H312.153C312.767 192.552 313.267 193.052 313.267 193.666C313.267 194.282 312.767 194.782 312.153 194.782H293.257C292.641 194.782 292.141 194.282 292.141 193.666C292.141 193.052 292.641 192.552 293.257 192.552ZM293.841 197.594V196.488H311.569V197.594C311.569 200.845 308.419 204.865 304.829 206.198C303.258 206.782 302.142 206.781 300.568 206.196C296.985 204.858 293.841 200.838 293.841 197.594ZM297.38 211.478C296.497 210.326 295.648 208.813 296.056 206.617C296.432 206.496 296.821 206.385 297.224 206.287C298.084 206.918 299.011 207.435 299.972 207.794C300.282 207.909 300.58 208.004 300.871 208.083L297.38 211.478ZM308.029 211.477L304.536 208.082C304.824 208.004 305.117 207.91 305.423 207.797C306.389 207.438 307.321 206.92 308.184 206.287C308.582 206.384 308.972 206.494 309.351 206.616C309.761 208.809 308.911 210.323 308.029 211.477ZM324.582 218.511C323.573 220.392 321.212 223.295 320.141 223.295C319.069 223.295 316.708 220.392 315.699 218.509C314.572 216.414 314.11 214.667 314.085 212.288C315.005 212.113 315.962 211.77 316.904 211.29C316.937 211.276 316.969 211.259 317.001 211.24C318.1 210.669 319.176 209.912 320.14 209.013C321.956 210.708 324.167 211.902 326.196 212.288C326.169 214.667 325.707 216.415 324.582 218.511Z" fill="#89016F"/>
<path d="M297.299 221.192C296.828 221.192 296.447 221.574 296.447 222.044C296.447 222.515 296.828 222.897 297.299 222.897H297.304C297.775 222.897 298.154 222.515 298.154 222.044C298.154 221.574 297.77 221.192 297.299 221.192Z" fill="#89016F"/>
</g>
<g filter="url(#filter3_d_2001_1253)">
<path fill-rule="evenodd" clip-rule="evenodd" d="M519.949 218C521.281 213.907 522 209.537 522 205C522 181.804 503.196 163 480 163C456.804 163 438 181.804 438 205C438 209.537 438.719 213.907 440.051 218H418C412.477 218 408 222.477 408 228V322C408 327.523 412.477 332 418 332H542C547.523 332 552 327.523 552 322V228C552 222.477 547.523 218 542 218H519.949ZM519.949 218H440.051C445.525 234.833 461.341 247 480 247C498.659 247 514.475 234.833 519.949 218Z" fill="white"/>
</g>
<path d="M457.257 286.21C456.343 286.21 455.535 285.995 454.835 285.566C454.135 285.137 453.589 284.539 453.197 283.774C452.815 283.009 452.623 282.117 452.623 281.1C452.623 280.073 452.815 279.182 453.197 278.426C453.589 277.661 454.135 277.063 454.835 276.634C455.535 276.205 456.343 275.99 457.257 275.99C458.219 275.99 459.068 276.242 459.805 276.746C460.543 277.25 461.075 277.95 461.401 278.846L459.987 279.252L459.833 279.224C459.619 278.683 459.283 278.267 458.825 277.978C458.368 277.679 457.85 277.53 457.271 277.53C456.665 277.53 456.133 277.679 455.675 277.978C455.227 278.267 454.877 278.678 454.625 279.21C454.373 279.742 454.247 280.372 454.247 281.1C454.247 281.828 454.373 282.458 454.625 282.99C454.877 283.522 455.227 283.937 455.675 284.236C456.133 284.525 456.665 284.67 457.271 284.67C457.85 284.67 458.368 284.521 458.825 284.222C459.283 283.923 459.619 283.508 459.833 282.976L459.987 282.948L461.401 283.354C461.075 284.25 460.543 284.95 459.805 285.454C459.068 285.958 458.219 286.21 457.257 286.21ZM469.173 286V276.2H470.783V286H469.173ZM462.887 286V276.2H464.497V286H462.887ZM463.713 281.73V280.19H470.083V281.73H463.713ZM479.196 286L475.654 276.494L475.57 276.2H477.18L480.904 285.888V286H479.196ZM471.846 286V285.888L475.57 276.2H477.18L477.054 276.494L473.512 286H471.846ZM473.498 283.676L473.918 282.136H478.972L479.392 283.676H473.498ZM483.173 286V276.2H484.783V286H483.173ZM480.247 277.74V276.2H487.709V277.74H480.247ZM493.92 286V276.2H495.53V286H493.92ZM490.994 277.74V276.2H498.456V277.74H490.994ZM503.662 286.21C502.747 286.21 501.93 286 501.212 285.58C500.502 285.151 499.947 284.553 499.546 283.788C499.144 283.013 498.944 282.117 498.944 281.1C498.944 280.083 499.144 279.191 499.546 278.426C499.947 277.651 500.502 277.054 501.212 276.634C501.93 276.205 502.747 275.99 503.662 275.99C504.586 275.99 505.402 276.205 506.112 276.634C506.821 277.054 507.376 277.651 507.778 278.426C508.179 279.191 508.38 280.083 508.38 281.1C508.38 282.117 508.179 283.013 507.778 283.788C507.376 284.553 506.821 285.151 506.112 285.58C505.402 286 504.586 286.21 503.662 286.21ZM503.662 284.67C504.259 284.67 504.791 284.525 505.258 284.236C505.724 283.937 506.088 283.522 506.35 282.99C506.62 282.458 506.756 281.828 506.756 281.1C506.756 280.363 506.62 279.728 506.35 279.196C506.088 278.664 505.724 278.253 505.258 277.964C504.791 277.675 504.259 277.53 503.662 277.53C503.064 277.53 502.532 277.675 502.066 277.964C501.599 278.253 501.23 278.664 500.96 279.196C500.698 279.728 500.568 280.363 500.568 281.1C500.568 281.828 500.698 282.458 500.96 282.99C501.23 283.522 501.599 283.937 502.066 284.236C502.532 284.525 503.064 284.67 503.662 284.67ZM456.111 306L453.101 296.2H454.739L457.581 305.706L457.707 306H456.111ZM456.111 306L456.181 305.706L458.967 296.2H460.605V296.312L457.707 306H456.111ZM450.133 306L447.235 296.312V296.2H448.873L451.659 305.706L451.729 306H450.133ZM450.133 306L450.259 305.706L453.101 296.2H454.739L451.729 306H450.133ZM466.03 306.21C465.115 306.21 464.299 306 463.58 305.58C462.871 305.151 462.315 304.553 461.914 303.788C461.513 303.013 461.312 302.117 461.312 301.1C461.312 300.083 461.513 299.191 461.914 298.426C462.315 297.651 462.871 297.054 463.58 296.634C464.299 296.205 465.115 295.99 466.03 295.99C466.954 295.99 467.771 296.205 468.48 296.634C469.189 297.054 469.745 297.651 470.146 298.426C470.547 299.191 470.748 300.083 470.748 301.1C470.748 302.117 470.547 303.013 470.146 303.788C469.745 304.553 469.189 305.151 468.48 305.58C467.771 306 466.954 306.21 466.03 306.21ZM466.03 304.67C466.627 304.67 467.159 304.525 467.626 304.236C468.093 303.937 468.457 303.522 468.718 302.99C468.989 302.458 469.124 301.828 469.124 301.1C469.124 300.363 468.989 299.728 468.718 299.196C468.457 298.664 468.093 298.253 467.626 297.964C467.159 297.675 466.627 297.53 466.03 297.53C465.433 297.53 464.901 297.675 464.434 297.964C463.967 298.253 463.599 298.664 463.328 299.196C463.067 299.728 462.936 300.363 462.936 301.1C462.936 301.828 463.067 302.458 463.328 302.99C463.599 303.522 463.967 303.937 464.434 304.236C464.901 304.525 465.433 304.67 466.03 304.67ZM472.369 306V296.2H473.937V306H472.369ZM473.195 302.178V300.708H476.205C476.727 300.708 477.129 300.573 477.409 300.302C477.698 300.031 477.843 299.663 477.843 299.196H479.481C479.481 300.101 479.196 300.825 478.627 301.366C478.067 301.907 477.301 302.178 476.331 302.178H473.195ZM477.843 299.196C477.843 298.72 477.698 298.347 477.409 298.076C477.129 297.805 476.727 297.67 476.205 297.67H473.195V296.2H476.331C477.301 296.2 478.067 296.471 478.627 297.012C479.196 297.553 479.481 298.281 479.481 299.196H477.843ZM477.773 306L475.533 301.744L477.073 301.296L479.509 305.888V306H477.773ZM481.822 303.9V301.66L486.596 296.2H488.57V296.312L481.822 303.9ZM480.996 306V296.2H482.606V306H480.996ZM486.932 306L483.502 301.072L484.692 300.008L488.766 305.888V306H486.932ZM489.623 306V296.2H491.233V306H489.623ZM490.449 306V304.46H496.105V306H490.449ZM490.449 301.8V300.26H495.741V301.8H490.449ZM490.449 297.74V296.2H496.105V297.74H490.449ZM497.744 306V296.2H499.312V306H497.744ZM498.57 302.178V300.708H501.58C502.102 300.708 502.504 300.573 502.784 300.302C503.073 300.031 503.218 299.663 503.218 299.196H504.856C504.856 300.101 504.571 300.825 504.002 301.366C503.442 301.907 502.676 302.178 501.706 302.178H498.57ZM503.218 299.196C503.218 298.72 503.073 298.347 502.784 298.076C502.504 297.805 502.102 297.67 501.58 297.67H498.57V296.2H501.706C502.676 296.2 503.442 296.471 504.002 297.012C504.571 297.553 504.856 298.281 504.856 299.196H503.218ZM503.148 306L500.908 301.744L502.448 301.296L504.884 305.888V306H503.148ZM509.773 306.21C509.091 306.21 508.475 306.089 507.925 305.846C507.383 305.603 506.931 305.263 506.567 304.824C506.203 304.376 505.96 303.863 505.839 303.284L507.309 302.906L507.463 302.934C507.584 303.279 507.757 303.587 507.981 303.858C508.214 304.119 508.489 304.325 508.807 304.474C509.124 304.623 509.465 304.698 509.829 304.698C510.202 304.698 510.529 304.642 510.809 304.53C511.089 304.409 511.308 304.245 511.467 304.04C511.635 303.825 511.719 303.583 511.719 303.312C511.719 302.976 511.611 302.71 511.397 302.514C511.191 302.309 510.883 302.15 510.473 302.038L508.709 301.576C507.878 301.352 507.243 300.993 506.805 300.498C506.375 300.003 506.161 299.429 506.161 298.776C506.161 298.225 506.301 297.745 506.581 297.334C506.861 296.914 507.253 296.587 507.757 296.354C508.261 296.111 508.844 295.99 509.507 295.99C510.141 295.99 510.711 296.107 511.215 296.34C511.728 296.564 512.153 296.881 512.489 297.292C512.825 297.703 513.044 298.193 513.147 298.762L511.761 299.07L511.607 299.042C511.495 298.557 511.252 298.179 510.879 297.908C510.505 297.637 510.043 297.502 509.493 297.502C508.989 297.502 508.587 297.623 508.289 297.866C507.99 298.099 507.841 298.403 507.841 298.776C507.841 299.084 507.948 299.345 508.163 299.56C508.387 299.775 508.713 299.938 509.143 300.05L510.907 300.512C511.719 300.727 512.335 301.067 512.755 301.534C513.184 301.991 513.399 302.561 513.399 303.242C513.399 303.839 513.249 304.362 512.951 304.81C512.652 305.249 512.227 305.594 511.677 305.846C511.135 306.089 510.501 306.21 509.773 306.21Z" fill="#251010"/>
<circle cx="480" cy="205" r="34" fill="#89016F"/>
<path d="M473.531 214.344C481.47 214.344 487.906 207.908 487.906 199.969C487.906 192.03 481.47 185.594 473.531 185.594C465.592 185.594 459.156 192.03 459.156 199.969C459.156 207.908 465.592 214.344 473.531 214.344Z" fill="white" fill-opacity="0.14"/>
<path d="M500.844 188.469V199.969C500.844 200.759 500.197 201.406 499.406 201.406H497.969L492.938 206.438V201.406H483.594C482.803 201.406 482.156 200.759 482.156 199.969V188.469C482.156 187.678 482.803 187.031 483.594 187.031H499.406C500.197 187.031 500.844 187.678 500.844 188.469Z" fill="white"/>
<path d="M479.82 219.016L483.198 212.259C483.436 211.778 483.939 211.469 484.478 211.469H498.824C499.058 211.469 499.268 211.717 499.148 211.993L494.052 222.171C493.807 222.66 493.311 222.969 492.765 222.969H477.844L479.281 220.094L479.82 219.016Z" fill="#8FF3AD"/>
<path d="M476.406 215.781V217.938V220.094H471.375C471.375 218.886 470.397 217.938 469.19 217.938H463.469V215.781H459.875H459.156V212.906C459.156 209.729 461.729 207.156 464.906 207.156H465.625C466.236 208.874 467.975 210.031 469.938 210.031C471.9 210.031 473.639 208.874 474.25 207.156C477.427 207.156 480 209.729 480 212.906V215.781H479.82H478.649H476.406Z" fill="#8FF3AD"/>
<path d="M479.82 215.781V219.016L479.281 220.094H479.274H476.629H476.406V217.938V215.781H478.649H479.82Z" fill="white"/>
<path d="M479.281 220.094L477.844 222.969H468.5C467.709 222.969 467.062 222.322 467.062 221.531V220.094H471.375H476.406H476.629H479.274H479.281Z" fill="#8FF3AD"/>
<path d="M474.25 192.781C474.25 192.781 475.688 193.802 475.688 195.656C475.688 197.511 474.193 198.603 474.193 198.603C473.637 197.455 472.656 196.555 471.375 196.555C469.427 196.555 468.5 198.531 468.5 198.531C466.027 198.129 465.948 200.961 467.062 201.406C467.062 201.406 465.625 201.406 465.625 197.812C465.625 193.543 470.599 193.5 471.375 193.5C473.617 193.5 474.25 192.781 474.25 192.781Z" fill="#8FF3AD"/>
<path d="M474.25 199.25V201.406C474.25 203.39 472.64 205 470.656 205C468.673 205 467.063 203.39 467.063 201.406C465.948 200.961 466.028 198.129 468.5 198.531C468.5 198.531 469.427 196.555 471.375 196.555C472.656 196.555 473.636 197.455 474.193 198.603C474.228 198.812 474.25 199.027 474.25 199.25Z" fill="white"/>
<path d="M471.375 220.094H467.062V221.531H464.18H462.75C461.162 221.531 459.875 220.245 459.875 218.656V215.781H463.469V217.938H469.19C470.397 217.938 471.375 218.886 471.375 220.094Z" fill="white"/>
<path d="M492.765 223.508H477.844C477.657 223.508 477.484 223.411 477.385 223.253C477.287 223.094 477.278 222.895 477.361 222.728L482.716 212.019C483.041 211.359 483.733 210.93 484.478 210.93H498.824C499.434 210.93 499.922 211.564 499.642 212.209L494.533 222.412C494.195 223.088 493.518 223.508 492.765 223.508ZM478.716 222.43H492.765C493.107 222.43 493.415 222.238 493.569 221.93L498.538 212.008H484.478C484.141 212.008 483.829 212.2 483.682 212.497L478.716 222.43Z" fill="#303E58"/>
<path d="M470.656 205.539C468.378 205.539 466.523 203.685 466.523 201.406C466.523 201.109 466.765 200.867 467.062 200.867C467.36 200.867 467.602 201.109 467.602 201.406C467.602 203.09 468.972 204.461 470.656 204.461C472.34 204.461 473.711 203.09 473.711 201.406V199.25C473.711 199.07 473.695 198.888 473.661 198.695C473.551 198.057 474.789 197.424 474.789 199.25V201.406C474.789 203.685 472.935 205.539 470.656 205.539Z" fill="#303E58"/>
<path d="M467.062 222.07H462.75C460.868 222.07 459.336 220.539 459.336 218.656V215.781C459.336 215.484 459.577 215.242 459.875 215.242C460.173 215.242 460.414 215.484 460.414 215.781V218.656C460.414 219.944 461.462 220.992 462.75 220.992H467.062C467.36 220.992 467.602 221.234 467.602 221.531C467.602 221.829 467.36 222.07 467.062 222.07Z" fill="#303E58"/>
<path d="M471.375 220.633C471.077 220.633 470.836 220.391 470.836 220.094C470.836 219.187 470.113 218.477 469.19 218.477H463.469C463.171 218.477 462.93 218.235 462.93 217.938V215.781C462.93 215.484 463.171 215.242 463.469 215.242C463.766 215.242 464.008 215.484 464.008 215.781V217.398H469.19C470.692 217.398 471.914 218.607 471.914 220.094C471.914 220.391 471.673 220.633 471.375 220.633Z" fill="#303E58"/>
<path d="M478.649 216.32H475.688C475.39 216.32 475.148 216.079 475.148 215.781V212.906C475.148 212.609 475.39 212.367 475.688 212.367C475.985 212.367 476.227 212.609 476.227 212.906V215.242H478.649C478.946 215.242 479.188 215.484 479.188 215.781C479.188 216.079 478.946 216.32 478.649 216.32Z" fill="#303E58"/>
<path d="M464.188 216.32H459.156C458.859 216.32 458.617 216.079 458.617 215.781V212.906C458.617 209.438 461.438 206.617 464.906 206.617H465.625C465.853 206.617 466.056 206.761 466.133 206.976C466.669 208.481 468.197 209.492 469.938 209.492C471.678 209.492 473.206 208.481 473.742 206.976C473.819 206.761 474.022 206.617 474.25 206.617C477.718 206.617 480.539 209.438 480.539 212.906C480.539 213.204 480.298 213.445 480 213.445C479.702 213.445 479.461 213.204 479.461 212.906C479.461 210.153 477.315 207.892 474.608 207.708C473.816 209.435 471.99 210.57 469.938 210.57C467.88 210.57 466.05 209.43 465.262 207.695H464.906C462.033 207.695 459.695 210.033 459.695 212.906V215.242H463.648V212.906C463.648 212.609 463.89 212.367 464.188 212.367C464.485 212.367 464.727 212.609 464.727 212.906V215.781C464.727 216.079 464.485 216.32 464.188 216.32Z" fill="#303E58"/>
<path d="M467.062 201.945C466.861 201.945 465.086 201.83 465.086 197.812C465.086 193.311 469.899 192.961 471.375 192.961C473.271 192.961 473.853 192.415 473.86 192.41C474.045 192.229 474.351 192.191 474.563 192.342C474.631 192.39 476.227 193.548 476.227 195.656C476.227 197.76 474.581 198.987 474.511 199.039C474.221 199.25 473.805 199.125 473.685 198.784C473.51 198.426 472.766 197.094 471.375 197.094C469.788 197.094 468.996 198.743 468.988 198.76C468.885 198.978 468.65 199.103 468.413 199.063C467.641 198.937 467.124 199.19 466.96 199.775C466.82 200.279 467.011 200.805 467.262 200.905C467.502 201.001 467.64 201.254 467.592 201.508C467.543 201.762 467.321 201.945 467.062 201.945ZM474.218 193.469C473.758 193.73 472.892 194.039 471.375 194.039C469.808 194.039 466.164 194.407 466.164 197.812C466.164 198.205 466.182 198.549 466.214 198.852C466.579 198.311 467.23 197.907 468.205 197.957C468.605 197.317 469.631 196.016 471.375 196.016C472.884 196.016 473.835 197.026 474.318 197.737C474.686 197.312 475.148 196.592 475.148 195.656C475.148 194.577 474.577 193.831 474.218 193.469Z" fill="#303E58"/>
<path d="M477.844 223.508H468.5C467.41 223.508 466.523 222.622 466.523 221.531V220.094C466.523 219.796 466.765 219.555 467.062 219.555H476.406C476.704 219.555 476.945 219.796 476.945 220.094C476.945 220.391 476.704 220.633 476.406 220.633H467.602V221.531C467.602 222.026 468.005 222.43 468.5 222.43H477.844C478.557 222.43 478.557 223.508 477.844 223.508Z" fill="#303E58"/>
<path d="M476.406 218.477C476.109 218.477 475.867 218.235 475.867 217.938V215.781C475.867 215.484 476.109 215.242 476.406 215.242C476.704 215.242 476.945 215.484 476.945 215.781V217.938C476.945 218.235 476.704 218.477 476.406 218.477Z" fill="#303E58"/>
<path d="M492.398 206.438V201.945H483.594C482.503 201.945 481.617 201.059 481.617 199.969V188.469C481.617 187.378 482.503 186.492 483.594 186.492H499.406C500.497 186.492 501.383 187.378 501.383 188.469V199.969C501.383 201.059 500.497 201.945 499.406 201.945H498.192L493.319 206.818C492.981 207.157 492.398 206.916 492.398 206.438ZM483.594 187.57C483.099 187.57 482.695 187.974 482.695 188.469V199.969C482.695 200.464 483.099 200.867 483.594 200.867H492.938C493.235 200.867 493.477 201.109 493.477 201.406V205.136L497.588 201.025C497.689 200.923 497.826 200.866 497.969 200.866H499.406C499.901 200.866 500.305 200.463 500.305 199.968V188.469C500.305 187.974 499.901 187.57 499.406 187.57H483.594Z" fill="#89016F"/>
<path d="M491.5 191.164H485.75C485.452 191.164 485.211 190.923 485.211 190.625C485.211 190.327 485.452 190.086 485.75 190.086H491.5C491.798 190.086 492.039 190.327 492.039 190.625C492.039 190.923 491.798 191.164 491.5 191.164Z" fill="#89016F"/>
<path d="M497.25 191.164H494.375C494.077 191.164 493.836 190.923 493.836 190.625C493.836 190.327 494.077 190.086 494.375 190.086H497.25C497.548 190.086 497.789 190.327 497.789 190.625C497.789 190.923 497.548 191.164 497.25 191.164Z" fill="#89016F"/>
<path d="M487.906 194.758H485.75C485.452 194.758 485.211 194.516 485.211 194.219C485.211 193.921 485.452 193.68 485.75 193.68H487.906C488.204 193.68 488.445 193.921 488.445 194.219C488.445 194.516 488.204 194.758 487.906 194.758Z" fill="#89016F"/>
<path d="M497.25 194.758H490.781C490.484 194.758 490.242 194.516 490.242 194.219C490.242 193.921 490.484 193.68 490.781 193.68H497.25C497.548 193.68 497.789 193.921 497.789 194.219C497.789 194.516 497.548 194.758 497.25 194.758Z" fill="#89016F"/>
<path d="M492.219 198.352H485.75C485.452 198.352 485.211 198.11 485.211 197.812C485.211 197.515 485.452 197.273 485.75 197.273H492.219C492.516 197.273 492.758 197.515 492.758 197.812C492.758 198.11 492.516 198.352 492.219 198.352Z" fill="#89016F"/>
<path d="M497.25 198.352H495.094C494.796 198.352 494.555 198.11 494.555 197.812C494.555 197.515 494.796 197.273 495.094 197.273H497.25C497.548 197.273 497.789 197.515 497.789 197.812C497.789 198.11 497.548 198.352 497.25 198.352Z" fill="#89016F"/>
<rect x="75" y="370" width="107" height="65" rx="6" fill="white"/>
<g clip-path="url(#clip2_2001_1253)">
<path d="M157.99 406C157.974 405.279 157.825 404.567 157.55 403.9L151.51 389.24C151.202 388.49 150.471 388 149.66 388H137V383C136.997 381.897 136.103 381.003 135 381H102C100.897 381.003 100.003 381.897 100 383V411C100.003 412.103 100.897 412.997 102 413H103C101.343 413 100 414.343 100 416C100 417.657 101.343 419 103 419H104C104 422.314 106.686 425 110 425C113.314 425 116 422.314 116 419H137C137 422.314 139.686 425 143 425C146.314 425 149 422.314 149 419H156C157.103 418.997 157.997 418.103 158 417V406.19C158.002 406.127 157.998 406.063 157.99 406Z" fill="#FAB400"/>
<path d="M143 425C146.314 425 149 422.314 149 419C149 415.686 146.314 413 143 413C139.686 413 137 415.686 137 419C137 422.314 139.686 425 143 425Z" fill="#464F5D"/>
<path d="M143 422C144.657 422 146 420.657 146 419C146 417.343 144.657 416 143 416C141.343 416 140 417.343 140 419C140 420.657 141.343 422 143 422Z" fill="#BDC3C7"/>
<path d="M110 425C113.314 425 116 422.314 116 419C116 415.686 113.314 413 110 413C106.686 413 104 415.686 104 419C104 422.314 106.686 425 110 425Z" fill="#464F5D"/>
<path d="M110 422C111.657 422 113 420.657 113 419C113 417.343 111.657 416 110 416C108.343 416 107 417.343 107 419C107 420.657 108.343 422 110 422Z" fill="#BDC3C7"/>
<path d="M110 413C106.686 413 104 415.686 104 419H103C101.343 419 100 417.657 100 416C100 414.343 101.343 413 103 413H110Z" fill="#95A5A5"/>
<path d="M143 413C139.686 413 137 415.686 137 419H116C116 415.686 113.314 413 110 413H143Z" fill="#95A5A5"/>
<path d="M157.99 406C157.998 406.063 158.002 406.127 158 406.19V417C157.997 418.103 157.103 418.997 156 419H149C149 415.686 146.314 413 143 413H137V388H143L157.99 406Z" fill="#3B97D3"/>
<path d="M158 409V411H156C155.448 411 155 410.552 155 410C155 409.448 155.448 409 156 409H158Z" fill="#F5EFCA"/>
<path d="M158 413V415H156C155.448 415 155 414.552 155 414C155 413.448 155.448 413 156 413H158Z" fill="#ECF0F1"/>
<path d="M107 386H104C103.448 386 103 385.552 103 385C103 384.448 103.448 384 104 384H107C107.552 384 108 384.448 108 385C108 385.552 107.552 386 107 386Z" fill="white"/>
<path d="M133 386H111C110.448 386 110 385.552 110 385C110 384.448 110.448 384 111 384H133C133.552 384 134 384.448 134 385C134 385.552 133.552 386 133 386Z" fill="white"/>
<path d="M157.99 406H145C143.897 405.997 143.003 405.103 143 404V388H149.66C150.471 388 151.202 388.49 151.51 389.24L157.55 403.9C157.825 404.567 157.974 405.279 157.99 406Z" fill="#464F5D"/>
</g>
<rect x="257" y="370" width="107" height="65" rx="6" fill="white"/>
<path d="M310.092 377.203L300.491 381.691C299.675 382.072 299.174 382.942 299.233 383.872C299.4 386.484 300.033 391.838 302.429 395.833C305.452 400.871 309.205 402.19 310.519 402.509C310.836 402.586 311.164 402.586 311.481 402.509C312.795 402.19 316.548 400.871 319.571 395.833C321.967 391.839 322.6 386.484 322.767 383.872C322.826 382.942 322.325 382.072 321.509 381.691L311.908 377.203C311.331 376.932 310.669 376.932 310.092 377.203Z" fill="#FF2C20"/>
<path d="M310.361 380.928L303.603 384.087C303.029 384.356 302.676 384.968 302.718 385.622C302.835 387.461 303.281 391.23 304.967 394.041C307.095 397.588 309.737 398.516 310.661 398.741C310.885 398.795 311.115 398.795 311.338 398.741C312.263 398.516 314.905 397.588 317.032 394.041C318.719 391.23 319.164 387.461 319.282 385.622C319.324 384.968 318.971 384.356 318.396 384.087L311.639 380.928C311.233 380.738 310.767 380.738 310.361 380.928Z" fill="#F1F2F2"/>
<path d="M318.397 384.087L314.548 382.288C314.824 382.598 314.977 383.016 314.949 383.455C314.831 385.294 314.386 389.063 312.699 391.875C310.571 395.421 307.93 396.349 307.005 396.574C306.992 396.577 306.978 396.578 306.965 396.581C308.528 398.081 310.015 398.583 310.661 398.74C310.884 398.794 311.115 398.794 311.338 398.74C312.263 398.516 314.905 397.587 317.032 394.041C318.719 391.23 319.164 387.461 319.282 385.622C319.324 384.968 318.971 384.356 318.397 384.087Z" fill="#E6E7E8"/>
<path d="M310.554 394.118C310.285 394.118 310.024 394.018 309.824 393.835L306.716 391.002C306.273 390.599 306.242 389.914 306.645 389.472C307.048 389.03 307.733 388.998 308.175 389.401L310.407 391.436L314.125 386.536C314.486 386.059 315.166 385.966 315.643 386.327C316.119 386.689 316.212 387.369 315.851 387.845L311.417 393.69C311.233 393.932 310.955 394.086 310.652 394.114C310.62 394.117 310.587 394.118 310.554 394.118Z" fill="#FF2C20"/>
<path d="M316.017 412.046C316.386 411.911 316.711 411.652 316.923 411.285L318.124 409.205C318.183 409.101 318.148 408.969 318.044 408.909L309.205 403.806C308.169 403.207 306.843 403.562 306.245 404.599L305.463 405.953L316.017 412.046Z" fill="#FCC4AE"/>
<path d="M322.169 402.701L305.431 412.365L312.892 425.287L320.059 421.149C321.445 420.349 322.59 419.192 323.375 417.799L329.008 414.546L322.169 402.701Z" fill="#F2AD97"/>
<path d="M322.752 416.721L328.385 413.468L329.007 414.545L323.374 417.797L322.752 416.721Z" fill="#E59076"/>
<path d="M331.481 415.362L337 412.176L328.218 396.965L322.699 400.151C321.87 400.63 321.586 401.69 322.065 402.519L329.113 414.728C329.592 415.556 330.652 415.841 331.481 415.362Z" fill="#377DE2"/>
<path d="M322.699 400.151L322.813 400.085L328.92 410.662C329.263 411.257 330.024 411.461 330.619 411.118L334.946 408.619L337 412.176L331.481 415.362C330.652 415.84 329.592 415.556 329.113 414.727L322.065 402.519C321.586 401.69 321.87 400.63 322.699 400.151Z" fill="#2266D3"/>
<path d="M322.754 416.721L323.376 417.798C322.59 419.192 321.445 420.349 320.06 421.148L312.892 425.287L312.27 424.21L319.438 420.072C320.823 419.272 321.968 418.115 322.754 416.721Z" fill="#E59076"/>
<path d="M324.982 417.222L299.831 402.701L292.992 414.546L298.625 417.798C299.41 419.191 300.555 420.348 301.94 421.148L307.695 424.471L313.752 427.968C314.644 428.483 315.785 428.177 316.3 427.285C316.815 426.393 316.51 425.252 315.617 424.737L318.848 426.602C319.74 427.117 320.881 426.812 321.396 425.92C321.911 425.028 321.605 423.887 320.713 423.372L322.328 424.304C323.22 424.819 324.361 424.514 324.876 423.622C325.391 422.729 325.085 421.589 324.193 421.074L323.116 420.452C324.008 420.967 325.149 420.661 325.664 419.769C326.18 418.877 325.874 417.737 324.982 417.222Z" fill="#FCC4AE"/>
<path d="M290.519 415.362L285 412.176L293.782 396.965L299.301 400.151C300.13 400.63 300.414 401.69 299.935 402.519L292.887 414.728C292.408 415.556 291.348 415.841 290.519 415.362Z" fill="#377DE2"/>
<path d="M299.301 400.151L299.187 400.085L293.08 410.662C292.737 411.257 291.976 411.461 291.381 411.118L287.054 408.619L285 412.176L290.519 415.362C291.348 415.84 292.408 415.556 292.887 414.727L299.935 402.519C300.414 401.69 300.13 400.63 299.301 400.151Z" fill="#2266D3"/>
<path d="M321.614 425.295C321.031 425.777 320.191 425.877 319.498 425.477L312.364 421.358L311.714 422.484L318.848 426.603C319.74 427.118 320.881 426.812 321.396 425.92C321.51 425.721 321.579 425.509 321.614 425.295Z" fill="#F2AD97"/>
<path d="M325.095 422.997C324.512 423.479 323.672 423.579 322.978 423.179L314.229 418.127L313.579 419.253L322.328 424.305C323.22 424.82 324.361 424.514 324.876 423.622C324.991 423.423 325.059 423.211 325.095 422.997Z" fill="#F2AD97"/>
<path d="M325.883 419.145C325.3 419.626 324.46 419.727 323.767 419.326L316.094 414.897L315.444 416.023L323.117 420.452C324.009 420.967 325.149 420.662 325.664 419.77C325.779 419.571 325.847 419.359 325.883 419.145Z" fill="#F2AD97"/>
<path d="M292.99 414.546L293.612 413.469L299.245 416.722L298.623 417.799L292.99 414.546Z" fill="#F2AD97"/>
<path d="M314.402 426.842L302.562 420.072C301.177 419.272 300.032 418.115 299.246 416.721L298.625 417.798C299.41 419.192 300.555 420.349 301.94 421.148L313.752 427.968C314.644 428.483 315.785 428.177 316.3 427.285C316.415 427.087 316.483 426.875 316.518 426.661C315.935 427.142 315.095 427.242 314.402 426.842Z" fill="#F2AD97"/>
<path d="M308.248 427.968L311.075 426.336C311.967 425.821 312.272 424.68 311.757 423.788C311.242 422.896 310.102 422.591 309.21 423.106L306.383 424.738C305.491 425.253 305.185 426.393 305.7 427.285C306.215 428.177 307.356 428.483 308.248 427.968Z" fill="#F2AD97"/>
<path d="M310.453 425.259L307.626 426.891C306.924 427.297 306.072 427.187 305.488 426.69C305.525 426.894 305.59 427.096 305.7 427.285C306.215 428.177 307.356 428.483 308.248 427.968L311.075 426.336C311.967 425.821 312.272 424.68 311.757 423.788C311.648 423.599 311.505 423.441 311.348 423.307C311.486 424.061 311.155 424.854 310.453 425.259Z" fill="#E59076"/>
<path d="M303.152 426.603L308.671 423.416C309.563 422.901 309.869 421.761 309.354 420.869C308.839 419.977 307.698 419.671 306.806 420.186L301.287 423.372C300.395 423.887 300.089 425.028 300.604 425.92C301.119 426.812 302.26 427.118 303.152 426.603Z" fill="#F2AD97"/>
<path d="M308.049 422.339L302.53 425.526C301.828 425.931 300.976 425.822 300.392 425.324C300.43 425.528 300.495 425.73 300.604 425.92C301.119 426.812 302.26 427.118 303.152 426.603L308.671 423.416C309.563 422.901 309.869 421.761 309.354 420.869C309.244 420.679 309.102 420.522 308.944 420.387C309.083 421.141 308.752 421.934 308.049 422.339Z" fill="#E59076"/>
<path d="M299.672 424.305L306.267 420.497C307.159 419.982 307.465 418.841 306.95 417.949C306.435 417.057 305.294 416.751 304.402 417.266L297.807 421.074C296.914 421.589 296.609 422.73 297.124 423.622C297.639 424.514 298.78 424.82 299.672 424.305Z" fill="#F2AD97"/>
<path d="M305.646 419.42L299.05 423.228C298.348 423.633 297.496 423.524 296.912 423.026C296.949 423.23 297.014 423.432 297.124 423.622C297.639 424.514 298.78 424.82 299.672 424.305L306.267 420.496C307.159 419.981 307.465 418.841 306.95 417.949C306.84 417.759 306.698 417.602 306.54 417.467C306.679 418.222 306.348 419.014 305.646 419.42Z" fill="#E59076"/>
<path d="M298.883 420.452L303.864 417.577C304.756 417.062 305.062 415.921 304.547 415.029C304.032 414.137 302.891 413.831 301.999 414.346L297.018 417.222C296.126 417.737 295.821 418.878 296.336 419.77C296.851 420.662 297.991 420.967 298.883 420.452Z" fill="#F2AD97"/>
<path d="M303.242 416.5L298.262 419.375C297.56 419.781 296.708 419.671 296.124 419.174C296.161 419.378 296.226 419.58 296.336 419.769C296.851 420.662 297.991 420.967 298.883 420.452L303.864 417.577C304.756 417.062 305.062 415.921 304.547 415.029C304.437 414.839 304.295 414.682 304.137 414.548C304.276 415.302 303.944 416.094 303.242 416.5Z" fill="#E59076"/>
<path d="M303.255 417.21L303.692 416.958C304.21 416.659 304.387 415.997 304.088 415.478L303.928 415.201C303.629 414.683 302.966 414.505 302.448 414.805L302.012 415.057C301.804 415.176 301.734 415.441 301.853 415.649L302.663 417.052C302.783 417.259 303.048 417.33 303.255 417.21Z" fill="#FFD2C0"/>
<path d="M305.659 420.13L306.095 419.878C306.613 419.579 306.791 418.916 306.492 418.398L306.332 418.121C306.032 417.603 305.37 417.425 304.852 417.724L304.222 418.088C304.122 418.146 304.087 418.274 304.145 418.375L305.067 419.971C305.187 420.179 305.452 420.25 305.659 420.13Z" fill="#FFD2C0"/>
<path d="M308.062 423.05L308.499 422.798C309.017 422.499 309.195 421.836 308.895 421.318L308.735 421.041C308.436 420.523 307.773 420.345 307.255 420.644L306.819 420.896C306.612 421.016 306.541 421.281 306.66 421.488L307.471 422.891C307.59 423.098 307.855 423.169 308.062 423.05Z" fill="#FFD2C0"/>
<path d="M310.466 425.969L310.902 425.717C311.421 425.418 311.598 424.756 311.299 424.238L311.139 423.96C310.84 423.442 310.177 423.265 309.659 423.564L309.223 423.816C309.015 423.935 308.944 424.2 309.064 424.408L309.874 425.811C309.994 426.018 310.259 426.089 310.466 425.969Z" fill="#FFD2C0"/>
<path d="M309.134 410.944L316.847 406.491L315.755 404.598C315.156 403.562 313.831 403.207 312.795 403.805L303.956 408.909C303.852 408.969 303.816 409.101 303.876 409.205L304.102 409.596C305.119 411.358 307.372 411.962 309.134 410.944Z" fill="#F2AD97"/>
<path d="M307.026 409.215L308.015 408.644C308.312 408.472 308.414 408.092 308.242 407.795L307.653 406.774L304.845 408.395L305.005 408.674C305.414 409.381 306.318 409.624 307.026 409.215Z" fill="#FFD2C0"/>
<rect x="427" y="370" width="107" height="65" rx="6" fill="white"/>
<path d="M498.5 393.11V397.75C498.5 404.505 493.005 410 486.25 410H465.407C466.242 414.964 470.549 418.75 475.75 418.75H500.25L505.5 424V403C505.5 398.43 502.576 394.553 498.5 393.11Z" fill="#FAB400"/>
<path d="M468.907 410H465.407C466.242 414.964 470.549 418.75 475.75 418.75H479.25C474.049 418.75 469.742 414.964 468.907 410Z" fill="#DC9600"/>
<path d="M467 382C461.201 382 456.5 386.701 456.5 392.5V413.5L461.75 408.25H486.25C492.049 408.25 496.75 403.549 496.75 397.75V392.5C496.75 386.701 492.049 382 486.25 382H467Z" fill="#FF2C20"/>
<path d="M460 392.5C460 386.701 464.701 382 470.5 382H467C461.201 382 456.5 386.701 456.5 392.5V413.5L460 410V392.5Z" fill="#DC4632"/>
<path d="M472.25 397.75C471.283 397.75 470.5 396.967 470.5 396C470.5 395.033 471.283 394.25 472.25 394.25C473.217 394.25 474 395.033 474 396C474 396.967 473.217 397.75 472.25 397.75Z" fill="#F0F0F0"/>
<path d="M477.5 397.75C476.533 397.75 475.75 396.967 475.75 396C475.75 395.033 476.533 394.25 477.5 394.25C478.467 394.25 479.25 395.033 479.25 396C479.25 396.967 478.467 397.75 477.5 397.75Z" fill="#F0F0F0"/>
<path d="M482.75 397.75C481.783 397.75 481 396.967 481 396C481 395.033 481.783 394.25 482.75 394.25C483.717 394.25 484.5 395.033 484.5 396C484.5 396.967 483.717 397.75 482.75 397.75Z" fill="#F0F0F0"/>
<path d="M232 276L224.5 271.67L224.5 280.33L232 276ZM200 276.75L202 276.75L202 275.25L200 275.25L200 276.75ZM206 276.75L210 276.75L210 275.25L206 275.25L206 276.75ZM214 276.75L218 276.75L218 275.25L214 275.25L214 276.75ZM222 276.75L226 276.75L226 275.25L222 275.25L222 276.75Z" fill="#FAC9F1"/>
<path d="M215 221L215 403" stroke="#FAC9F1" stroke-width="1.5" stroke-dasharray="4 4"/>
<path d="M257 403H182" stroke="#FAC9F1" stroke-width="1.5" stroke-dasharray="4 4"/>
<circle cx="215" cy="403" r="3.5" fill="white" stroke="#FAC9F1"/>
<path d="M408 276L400.5 271.67L400.5 280.33L408 276ZM376 276.75L378 276.75L378 275.25L376 275.25L376 276.75ZM382 276.75L386 276.75L386 275.25L382 275.25L382 276.75ZM390 276.75L394 276.75L394 275.25L390 275.25L390 276.75ZM398 276.75L402 276.75L402 275.25L398 275.25L398 276.75Z" fill="#FAC9F1"/>
<path d="M392 221L392 403" stroke="#FAC9F1" stroke-width="1.5" stroke-dasharray="4 4"/>
<path d="M427 403H366" stroke="#FAC9F1" stroke-width="1.5" stroke-dasharray="4 4"/>
<circle cx="392" cy="403" r="3.5" fill="white" stroke="#FAC9F1"/>
<path d="M301 161L305.33 153.5L296.67 153.5L301 161ZM300.25 111L300.25 113.083L301.75 113.083L301.75 111L300.25 111ZM300.25 117.25L300.25 121.417L301.75 121.417L301.75 117.25L300.25 117.25ZM300.25 125.583L300.25 129.75L301.75 129.75L301.75 125.583L300.25 125.583ZM300.25 133.917L300.25 138.083L301.75 138.083L301.75 133.917L300.25 133.917ZM300.25 142.25L300.25 146.417L301.75 146.417L301.75 142.25L300.25 142.25ZM300.25 150.583L300.25 154.75L301.75 154.75L301.75 150.583L300.25 150.583Z" fill="#FAC9F1"/>
<path d="M478 161L482.33 153.5H473.67L478 161ZM300.25 123V123.659H301.75V123H300.25ZM300.25 124.977V125.636H301.75V124.977H300.25ZM300.25 125.636C300.25 126.55 300.432 127.423 300.762 128.22L302.148 127.646C301.892 127.028 301.75 126.35 301.75 125.636H300.25ZM304.416 131.874C305.213 132.204 306.086 132.386 307 132.386V130.886C306.287 130.886 305.609 130.745 304.991 130.488L304.416 131.874ZM307 132.386H308.964V130.886H307V132.386ZM312.893 132.386H316.821V130.886H312.893V132.386ZM320.75 132.386H324.679V130.886H320.75V132.386ZM328.607 132.386H332.536V130.886H328.607V132.386ZM336.464 132.386H340.393V130.886H336.464V132.386ZM344.321 132.386H348.25V130.886H344.321V132.386ZM352.179 132.386H356.107V130.886H352.179V132.386ZM360.036 132.386H363.964V130.886H360.036V132.386ZM367.893 132.386H371.821V130.886H367.893V132.386ZM375.75 132.386H379.679V130.886H375.75V132.386ZM383.607 132.386H387.536V130.886H383.607V132.386ZM391.464 132.386H395.393V130.886H391.464V132.386ZM399.321 132.386H403.25V130.886H399.321V132.386ZM407.179 132.386H411.107V130.886H407.179V132.386ZM415.036 132.386H418.964V130.886H415.036V132.386ZM422.893 132.386H426.821V130.886H422.893V132.386ZM430.75 132.386H434.679V130.886H430.75V132.386ZM438.607 132.386H442.536V130.886H438.607V132.386ZM446.464 132.386H450.393V130.886H446.464V132.386ZM454.321 132.386H458.25V130.886H454.321V132.386ZM462.179 132.386H466.107V130.886H462.179V132.386ZM470.036 132.386H472V130.886H470.036V132.386ZM472 132.386C472.713 132.386 473.391 132.528 474.009 132.784L474.584 131.399C473.787 131.068 472.914 130.886 472 130.886V132.386ZM476.852 135.627C477.108 136.245 477.25 136.923 477.25 137.636H478.75C478.75 136.723 478.568 135.849 478.238 135.052L476.852 135.627ZM477.25 137.636V139.583H478.75V137.636H477.25ZM477.25 143.477V147.371H478.75V143.477H477.25ZM477.25 151.265V155.159H478.75V151.265H477.25Z" fill="#FAC9F1"/>
<path d="M124 161L119.67 153.5H128.33L124 161ZM301.75 123V123.659H300.25V123H301.75ZM301.75 124.977V125.636H300.25V124.977H301.75ZM301.75 125.636C301.75 126.55 301.568 127.423 301.238 128.22L299.852 127.646C300.108 127.028 300.25 126.35 300.25 125.636H301.75ZM297.584 131.874C296.787 132.204 295.914 132.386 295 132.386V130.886C295.713 130.886 296.391 130.745 297.009 130.488L297.584 131.874ZM295 132.386H293.036V130.886H295V132.386ZM289.107 132.386H285.179V130.886H289.107V132.386ZM281.25 132.386H277.321V130.886H281.25V132.386ZM273.393 132.386H269.464V130.886H273.393V132.386ZM265.536 132.386H261.607V130.886H265.536V132.386ZM257.679 132.386H253.75V130.886H257.679V132.386ZM249.821 132.386H245.893V130.886H249.821V132.386ZM241.964 132.386H238.036V130.886H241.964V132.386ZM234.107 132.386H230.179V130.886H234.107V132.386ZM226.25 132.386H222.321V130.886H226.25V132.386ZM218.393 132.386H214.464V130.886H218.393V132.386ZM210.536 132.386H206.607V130.886H210.536V132.386ZM202.679 132.386H198.75V130.886H202.679V132.386ZM194.821 132.386H190.893V130.886H194.821V132.386ZM186.964 132.386H183.036V130.886H186.964V132.386ZM179.107 132.386H175.179V130.886H179.107V132.386ZM171.25 132.386H167.321V130.886H171.25V132.386ZM163.393 132.386H159.464V130.886H163.393V132.386ZM155.536 132.386H151.607V130.886H155.536V132.386ZM147.679 132.386H143.75V130.886H147.679V132.386ZM139.821 132.386H135.893V130.886H139.821V132.386ZM131.964 132.386H130V130.886H131.964V132.386ZM130 132.386C129.287 132.386 128.609 132.528 127.991 132.784L127.416 131.399C128.213 131.068 129.086 130.886 130 130.886V132.386ZM125.148 135.627C124.892 136.245 124.75 136.923 124.75 137.636H123.25C123.25 136.723 123.432 135.849 123.762 135.052L125.148 135.627ZM124.75 137.636V139.583H123.25V137.636H124.75ZM124.75 143.477V147.371H123.25V143.477H124.75ZM124.75 151.265V155.159H123.25V151.265H124.75Z" fill="#FAC9F1"/>
<defs>
<filter id="filter0_d_2001_1253" x="110.844" y="0.844313" width="385.509" height="131.826" filterUnits="userSpaceOnUse" color-interpolation-filters="sRGB">
<feFlood flood-opacity="0" result="BackgroundImageFix"/>
<feColorMatrix in="SourceAlpha" type="matrix" values="0 0 0 0 0 0 0 0 0 0 0 0 0 0 0 0 0 0 127 0" result="hardAlpha"/>
<feOffset/>
<feGaussianBlur stdDeviation="11.0778"/>
<feComposite in2="hardAlpha" operator="out"/>
<feColorMatrix type="matrix" values="0 0 0 0 0 0 0 0 0 0 0 0 0 0 0 0 0 0 0.05 0"/>
<feBlend mode="normal" in2="BackgroundImageFix" result="effect1_dropShadow_2001_1253"/>
<feBlend mode="normal" in="SourceGraphic" in2="effect1_dropShadow_2001_1253" result="shape"/>
</filter>
<filter id="filter1_d_2001_1253" x="0" y="107" width="264" height="289" filterUnits="userSpaceOnUse" color-interpolation-filters="sRGB">
<feFlood flood-opacity="0" result="BackgroundImageFix"/>
<feColorMatrix in="SourceAlpha" type="matrix" values="0 0 0 0 0 0 0 0 0 0 0 0 0 0 0 0 0 0 127 0" result="hardAlpha"/>
<feOffset dx="4" dy="4"/>
<feGaussianBlur stdDeviation="30"/>
<feComposite in2="hardAlpha" operator="out"/>
<feColorMatrix type="matrix" values="0 0 0 0 0 0 0 0 0 0 0 0 0 0 0 0 0 0 0.04 0"/>
<feBlend mode="normal" in2="BackgroundImageFix" result="effect1_dropShadow_2001_1253"/>
<feBlend mode="normal" in="SourceGraphic" in2="effect1_dropShadow_2001_1253" result="shape"/>
</filter>
<filter id="filter2_d_2001_1253" x="176" y="107" width="264" height="289" filterUnits="userSpaceOnUse" color-interpolation-filters="sRGB">
<feFlood flood-opacity="0" result="BackgroundImageFix"/>
<feColorMatrix in="SourceAlpha" type="matrix" values="0 0 0 0 0 0 0 0 0 0 0 0 0 0 0 0 0 0 127 0" result="hardAlpha"/>
<feOffset dx="4" dy="4"/>
<feGaussianBlur stdDeviation="30"/>
<feComposite in2="hardAlpha" operator="out"/>
<feColorMatrix type="matrix" values="0 0 0 0 0 0 0 0 0 0 0 0 0 0 0 0 0 0 0.04 0"/>
<feBlend mode="normal" in2="BackgroundImageFix" result="effect1_dropShadow_2001_1253"/>
<feBlend mode="normal" in="SourceGraphic" in2="effect1_dropShadow_2001_1253" result="shape"/>
</filter>
<filter id="filter3_d_2001_1253" x="352" y="107" width="264" height="289" filterUnits="userSpaceOnUse" color-interpolation-filters="sRGB">
<feFlood flood-opacity="0" result="BackgroundImageFix"/>
<feColorMatrix in="SourceAlpha" type="matrix" values="0 0 0 0 0 0 0 0 0 0 0 0 0 0 0 0 0 0 127 0" result="hardAlpha"/>
<feOffset dx="4" dy="4"/>
<feGaussianBlur stdDeviation="30"/>
<feComposite in2="hardAlpha" operator="out"/>
<feColorMatrix type="matrix" values="0 0 0 0 0 0 0 0 0 0 0 0 0 0 0 0 0 0 0.04 0"/>
<feBlend mode="normal" in2="BackgroundImageFix" result="effect1_dropShadow_2001_1253"/>
<feBlend mode="normal" in="SourceGraphic" in2="effect1_dropShadow_2001_1253" result="shape"/>
</filter>
<clipPath id="clip0_2001_1253">
<rect width="36" height="36" fill="white" transform="translate(113 188)"/>
</clipPath>
<clipPath id="clip1_2001_1253">
<rect width="44" height="44" fill="white" transform="translate(284 181)"/>
</clipPath>
<clipPath id="clip2_2001_1253">
<rect width="58" height="58" fill="white" transform="translate(100 374)"/>
</clipPath>
</defs>
</svg>
