<svg width="329" height="236" viewBox="0 0 329 236" fill="none" xmlns="http://www.w3.org/2000/svg">
<g clip-path="url(#clip0_0_10472)">
<rect width="329" height="236" rx="11" fill="white"/>
<g filter="url(#filter0_f_0_10472)">
<path d="M325.015 169.287C270.744 96.3959 46.196 281.402 125.28 244.258C176.625 220.142 180.725 273.49 209.763 263.129C250.915 248.447 274.062 248.951 291.664 268.532C300.54 230.363 368.432 227.599 325.015 169.287Z" fill="#F7DEDB"/>
</g>
<g filter="url(#filter1_f_0_10472)">
<path d="M82.0149 -2.71288C27.7442 -75.6036 -196.804 109.403 -117.72 72.2588C-66.3746 48.1427 -62.2749 101.49 -33.2368 91.1299C7.91496 76.4478 31.0618 76.952 48.6637 96.5327C57.5396 58.3631 125.432 55.5997 82.0149 -2.71288Z" fill="#F7DEDB"/>
</g>
<g filter="url(#filter2_d_0_10472)">
<rect x="40" y="20" width="249" height="195.418" rx="16.3899" fill="white"/>
<rect x="53.2383" y="32.6064" width="220.633" height="67.4506" rx="8.19494" fill="#F3E1E7"/>
<circle cx="74.0396" cy="50.3224" r="6.93418" fill="#89016F"/>
<path d="M88.3768 53.3223V46.3223H89.3768V53.3223H88.3768ZM86.2468 47.2823V46.3223H91.5068V47.2823H86.2468ZM93.7122 53.4623C93.2122 53.4623 92.7722 53.3489 92.3922 53.1223C92.0122 52.8956 91.7122 52.5856 91.4922 52.1923C91.2789 51.7923 91.1722 51.3289 91.1722 50.8023C91.1722 50.2823 91.2789 49.8223 91.4922 49.4223C91.7122 49.0223 92.0122 48.7123 92.3922 48.4923C92.7722 48.2656 93.2122 48.1523 93.7122 48.1523C94.2122 48.1523 94.6522 48.2656 95.0322 48.4923C95.4122 48.7123 95.7089 49.0223 95.9222 49.4223C96.1422 49.8223 96.2522 50.2823 96.2522 50.8023C96.2522 51.3289 96.1422 51.7923 95.9222 52.1923C95.7089 52.5923 95.4122 52.9056 95.0322 53.1323C94.6522 53.3523 94.2122 53.4623 93.7122 53.4623ZM93.7122 52.5323C94.0189 52.5323 94.2856 52.4623 94.5122 52.3223C94.7456 52.1823 94.9256 51.9823 95.0522 51.7223C95.1856 51.4623 95.2522 51.1589 95.2522 50.8123C95.2522 50.4523 95.1856 50.1456 95.0522 49.8923C94.9256 49.6323 94.7456 49.4323 94.5122 49.2923C94.2856 49.1456 94.0189 49.0723 93.7122 49.0723C93.4056 49.0723 93.1356 49.1456 92.9022 49.2923C92.6756 49.4323 92.4956 49.6323 92.3622 49.8923C92.2356 50.1456 92.1722 50.4489 92.1722 50.8023C92.1722 51.1556 92.2356 51.4623 92.3622 51.7223C92.4956 51.9823 92.6756 52.1823 92.9022 52.3223C93.1356 52.4623 93.4056 52.5323 93.7122 52.5323ZM99.0668 53.3223C98.6068 53.3223 98.2334 53.1756 97.9468 52.8823C97.6668 52.5889 97.5268 52.1923 97.5268 51.6923V46.9623H98.5268V51.6023C98.5268 51.8756 98.5901 52.0789 98.7168 52.2123C98.8501 52.3389 99.0534 52.4023 99.3268 52.4023H99.8868L99.9368 52.5123V53.3223H99.0668ZM96.6668 49.2123V48.2923H99.9368V49.2123H96.6668ZM102.387 53.4623C102.047 53.4623 101.741 53.3956 101.467 53.2623C101.201 53.1289 100.991 52.9456 100.837 52.7123C100.684 52.4723 100.607 52.1989 100.607 51.8923C100.607 51.4323 100.767 51.0656 101.087 50.7923C101.407 50.5123 101.861 50.3489 102.447 50.3023L104.387 50.1423V51.0023L102.617 51.1423C102.277 51.1689 102.027 51.2423 101.867 51.3623C101.707 51.4823 101.627 51.6456 101.627 51.8523C101.627 52.0523 101.714 52.2189 101.887 52.3523C102.061 52.4789 102.281 52.5423 102.547 52.5423C102.827 52.5423 103.081 52.4756 103.307 52.3423C103.541 52.2089 103.724 52.0323 103.857 51.8123C103.991 51.5856 104.057 51.3423 104.057 51.0823V50.2623C104.057 49.9089 103.944 49.6189 103.717 49.3923C103.497 49.1656 103.204 49.0523 102.837 49.0523C102.531 49.0523 102.274 49.1256 102.067 49.2723C101.867 49.4189 101.734 49.6123 101.667 49.8523H101.557L100.697 49.6123C100.831 49.1656 101.084 48.8089 101.457 48.5423C101.831 48.2756 102.291 48.1423 102.837 48.1423C103.537 48.1423 104.081 48.3489 104.467 48.7623C104.854 49.1689 105.047 49.7423 105.047 50.4823V53.3223H104.127V51.8623L104.487 51.9723C104.407 52.2456 104.264 52.4956 104.057 52.7223C103.857 52.9489 103.614 53.1289 103.327 53.2623C103.041 53.3956 102.727 53.4623 102.387 53.4623ZM106.463 53.3223V46.1223L107.433 46.0023L107.463 46.0823V53.3223H106.463ZM115.759 53.3223V46.3223H116.759V53.3223H115.759ZM111.269 53.3223V46.3223H112.269V53.3223H111.269ZM111.779 50.2023V49.2423H116.329V50.2023H111.779ZM118.181 53.3223V48.2923H119.181V53.3223H118.181ZM118.681 47.4523C118.494 47.4523 118.337 47.3889 118.211 47.2623C118.084 47.1289 118.021 46.9723 118.021 46.7923C118.021 46.6056 118.084 46.4489 118.211 46.3223C118.337 46.1956 118.494 46.1323 118.681 46.1323C118.861 46.1323 119.014 46.1956 119.141 46.3223C119.274 46.4489 119.341 46.6056 119.341 46.7923C119.341 46.9723 119.274 47.1289 119.141 47.2623C119.014 47.3889 118.861 47.4523 118.681 47.4523ZM120.505 53.3223V48.2923H121.455V49.6423L121.185 49.5523C121.318 49.1656 121.545 48.8589 121.865 48.6323C122.192 48.4056 122.565 48.2923 122.985 48.2923H123.475V49.2123H122.825C122.558 49.2123 122.325 49.2756 122.125 49.4023C121.932 49.5223 121.778 49.6923 121.665 49.9123C121.558 50.1323 121.505 50.3923 121.505 50.6923V53.3223H120.505ZM126.281 53.4623C125.781 53.4623 125.337 53.3523 124.951 53.1323C124.571 52.9056 124.274 52.5923 124.061 52.1923C123.847 51.7923 123.741 51.3289 123.741 50.8023C123.741 50.2756 123.844 49.8156 124.051 49.4223C124.264 49.0223 124.557 48.7123 124.931 48.4923C125.311 48.2656 125.747 48.1523 126.241 48.1523C126.727 48.1523 127.151 48.2656 127.511 48.4923C127.877 48.7189 128.161 49.0389 128.361 49.4523C128.567 49.8589 128.671 50.3356 128.671 50.8823V51.0323L128.521 51.1823H124.251V50.3023H128.191L127.681 50.5023C127.667 50.2023 127.594 49.9456 127.461 49.7323C127.334 49.5189 127.164 49.3556 126.951 49.2423C126.744 49.1223 126.511 49.0623 126.251 49.0623C125.971 49.0623 125.714 49.1289 125.481 49.2623C125.247 49.3956 125.064 49.5823 124.931 49.8223C124.804 50.0556 124.741 50.3289 124.741 50.6423V50.9423C124.741 51.2489 124.807 51.5256 124.941 51.7723C125.074 52.0123 125.257 52.2023 125.491 52.3423C125.724 52.4823 125.987 52.5523 126.281 52.5523C126.561 52.5523 126.807 52.4823 127.021 52.3423C127.241 52.1956 127.414 52.0023 127.541 51.7623H127.661L128.471 52.1123C128.277 52.5323 127.991 52.8623 127.611 53.1023C127.231 53.3423 126.787 53.4623 126.281 53.4623Z" fill="#0C0B0B"/>
<rect x="222.5" y="44.0186" width="41.6051" height="12.6076" rx="6.3038" fill="white"/>
<rect x="67.1055" y="67.4084" width="78.1721" height="22.8253" rx="3.1519" fill="#FBFBFC"/>
<path d="M79.5515 81.821V74.821H80.5515V81.821H79.5515ZM77.4215 75.781V74.821H82.6815V75.781H77.4215ZM84.8869 81.961C84.3869 81.961 83.9436 81.851 83.5569 81.631C83.1769 81.4044 82.8803 81.091 82.6669 80.691C82.4536 80.291 82.3469 79.8277 82.3469 79.301C82.3469 78.7744 82.4503 78.3144 82.6569 77.921C82.8703 77.521 83.1636 77.211 83.5369 76.991C83.9169 76.7644 84.3536 76.651 84.8469 76.651C85.3336 76.651 85.7569 76.7644 86.1169 76.991C86.4836 77.2177 86.7669 77.5377 86.9669 77.951C87.1736 78.3577 87.2769 78.8344 87.2769 79.381V79.531L87.1269 79.681H82.8569V78.801H86.7969L86.2869 79.001C86.2736 78.701 86.2003 78.4444 86.0669 78.231C85.9403 78.0177 85.7703 77.8544 85.5569 77.741C85.3503 77.621 85.1169 77.561 84.8569 77.561C84.5769 77.561 84.3203 77.6277 84.0869 77.761C83.8536 77.8944 83.6703 78.081 83.5369 78.321C83.4103 78.5544 83.3469 78.8277 83.3469 79.141V79.441C83.3469 79.7477 83.4136 80.0244 83.5469 80.271C83.6803 80.511 83.8636 80.701 84.0969 80.841C84.3303 80.981 84.5936 81.051 84.8869 81.051C85.1669 81.051 85.4136 80.981 85.6269 80.841C85.8469 80.6944 86.0203 80.501 86.1469 80.261H86.2669L87.0769 80.611C86.8836 81.031 86.5969 81.361 86.2169 81.601C85.8369 81.841 85.3936 81.961 84.8869 81.961ZM91.2403 81.821L87.7303 76.871V76.791H88.8603L92.3703 81.741V81.821H91.2403ZM87.6903 81.821V81.741L89.7303 78.861L90.3303 79.641L88.8003 81.821H87.6903ZM90.3803 79.671L89.7803 78.881L91.2303 76.791H92.3203V76.871L90.3803 79.671ZM95.0266 81.821C94.5666 81.821 94.1933 81.6744 93.9066 81.381C93.6266 81.0877 93.4866 80.691 93.4866 80.191V75.461H94.4866V80.101C94.4866 80.3744 94.55 80.5777 94.6766 80.711C94.81 80.8377 95.0133 80.901 95.2866 80.901H95.8466L95.8966 81.011V81.821H95.0266ZM92.6266 77.711V76.791H95.8966V77.711H92.6266ZM99.3164 81.821V76.791H100.316V81.821H99.3164ZM99.8164 75.951C99.6297 75.951 99.4731 75.8877 99.3464 75.761C99.2197 75.6277 99.1564 75.471 99.1564 75.291C99.1564 75.1044 99.2197 74.9477 99.3464 74.821C99.4731 74.6944 99.6297 74.631 99.8164 74.631C99.9964 74.631 100.15 74.6944 100.276 74.821C100.41 74.9477 100.476 75.1044 100.476 75.291C100.476 75.471 100.41 75.6277 100.276 75.761C100.15 75.8877 99.9964 75.951 99.8164 75.951ZM101.641 81.821V76.791H102.591V78.141L102.321 78.051C102.421 77.7644 102.571 77.5177 102.771 77.311C102.971 77.0977 103.204 76.9344 103.471 76.821C103.744 76.7077 104.034 76.651 104.341 76.651C104.701 76.651 105.024 76.7277 105.311 76.881C105.597 77.0344 105.824 77.2644 105.991 77.571C106.157 77.871 106.241 78.2477 106.241 78.701V81.821H105.241V78.981C105.241 78.641 105.191 78.371 105.091 78.171C104.991 77.9644 104.854 77.8144 104.681 77.721C104.514 77.6277 104.317 77.581 104.091 77.581C103.864 77.581 103.637 77.6377 103.411 77.751C103.191 77.8644 103.007 78.041 102.861 78.281C102.714 78.521 102.641 78.8344 102.641 79.221V81.821H101.641ZM109.79 81.961C109.283 81.961 108.837 81.851 108.45 81.631C108.063 81.4044 107.76 81.091 107.54 80.691C107.327 80.291 107.22 79.8277 107.22 79.301C107.22 78.7744 107.327 78.3144 107.54 77.921C107.76 77.521 108.063 77.211 108.45 76.991C108.837 76.7644 109.283 76.651 109.79 76.651C110.183 76.651 110.533 76.7177 110.84 76.851C111.153 76.9844 111.42 77.181 111.64 77.441C111.86 77.6944 112.023 78.0077 112.13 78.381L111.28 78.621H111.17C111.063 78.2944 110.883 78.0377 110.63 77.851C110.383 77.6644 110.103 77.571 109.79 77.571C109.47 77.571 109.193 77.6444 108.96 77.791C108.727 77.9377 108.543 78.141 108.41 78.401C108.283 78.6544 108.22 78.9544 108.22 79.301C108.22 79.6477 108.283 79.951 108.41 80.211C108.543 80.471 108.727 80.6744 108.96 80.821C109.193 80.961 109.47 81.031 109.79 81.031C110.017 81.031 110.223 80.991 110.41 80.911C110.597 80.831 110.757 80.7144 110.89 80.561C111.03 80.401 111.137 80.211 111.21 79.991H111.32L112.18 80.231C112.06 80.6044 111.887 80.921 111.66 81.181C111.433 81.441 111.163 81.6377 110.85 81.771C110.543 81.8977 110.19 81.961 109.79 81.961ZM113.676 81.911C113.476 81.911 113.309 81.8444 113.176 81.711C113.043 81.5777 112.976 81.4144 112.976 81.221C112.976 81.021 113.043 80.8544 113.176 80.721C113.309 80.5877 113.476 80.521 113.676 80.521C113.863 80.521 114.023 80.5877 114.156 80.721C114.289 80.8544 114.356 81.021 114.356 81.221C114.356 81.4144 114.289 81.5777 114.156 81.711C114.023 81.8444 113.863 81.911 113.676 81.911ZM121.17 81.821L121.18 81.611L124.08 74.821H125.04V75.031L122.14 81.821H121.17ZM118.01 81.821V74.821H119.01V81.821H118.01ZM121.18 81.821L118.27 75.031V74.821H119.24L122.14 81.611V81.821H121.18ZM124.3 81.821V74.821H125.3V81.821H124.3ZM128.689 81.821C128.229 81.821 127.855 81.6744 127.569 81.381C127.289 81.0877 127.149 80.691 127.149 80.191V75.461H128.149V80.101C128.149 80.3744 128.212 80.5777 128.339 80.711C128.472 80.8377 128.675 80.901 128.949 80.901H129.509L129.559 81.011V81.821H128.689ZM126.289 77.711V76.791H129.559V77.711H126.289ZM133.565 81.821L130.055 76.871V76.791H131.185L134.695 81.741V81.821H133.565ZM130.015 81.821V81.741L132.055 78.861L132.655 79.641L131.125 81.821H130.015ZM132.705 79.671L132.105 78.881L133.555 76.791H134.645V76.871L132.705 79.671Z" fill="#3D3B3F"/>
<rect x="53.2383" y="161.204" width="21.4329" height="41.6051" rx="7.56456" fill="#89016F"/>
<rect x="81.6054" y="161.204" width="21.4329" height="41.6051" rx="7.56456" fill="#F3E1E7"/>
<rect x="109.972" y="169.399" width="21.4329" height="33.4101" rx="7.56456" fill="#89016F"/>
<rect x="138.34" y="146.705" width="21.4329" height="56.1038" rx="7.56456" fill="#F3E1E7"/>
<rect x="166.707" y="161.204" width="21.4329" height="41.6051" rx="7.56456" fill="#89016F"/>
<rect x="195.074" y="174.442" width="21.4329" height="28.3671" rx="7.56456" fill="#89016F"/>
<rect x="223.441" y="166.877" width="21.4329" height="35.9316" rx="7.56456" fill="#F3E1E7"/>
<rect x="251.808" y="146.705" width="21.4329" height="56.1038" rx="7.56456" fill="#89016F"/>
</g>
</g>
<defs>
<filter id="filter0_f_0_10472" x="-25.4181" y="18.1099" width="498.814" height="384.422" filterUnits="userSpaceOnUse" color-interpolation-filters="sRGB">
<feFlood flood-opacity="0" result="BackgroundImageFix"/>
<feBlend mode="normal" in="SourceGraphic" in2="BackgroundImageFix" result="shape"/>
<feGaussianBlur stdDeviation="67" result="effect1_foregroundBlur_0_10472"/>
</filter>
<filter id="filter1_f_0_10472" x="-268.418" y="-153.89" width="498.814" height="384.422" filterUnits="userSpaceOnUse" color-interpolation-filters="sRGB">
<feFlood flood-opacity="0" result="BackgroundImageFix"/>
<feBlend mode="normal" in="SourceGraphic" in2="BackgroundImageFix" result="shape"/>
<feGaussianBlur stdDeviation="67" result="effect1_foregroundBlur_0_10472"/>
</filter>
<filter id="filter2_d_0_10472" x="-7.7" y="-12.7" width="344.4" height="290.817" filterUnits="userSpaceOnUse" color-interpolation-filters="sRGB">
<feFlood flood-opacity="0" result="BackgroundImageFix"/>
<feColorMatrix in="SourceAlpha" type="matrix" values="0 0 0 0 0 0 0 0 0 0 0 0 0 0 0 0 0 0 127 0" result="hardAlpha"/>
<feOffset dy="15"/>
<feGaussianBlur stdDeviation="23.85"/>
<feComposite in2="hardAlpha" operator="out"/>
<feColorMatrix type="matrix" values="0 0 0 0 0 0 0 0 0 0 0 0 0 0 0 0 0 0 0.05 0"/>
<feBlend mode="normal" in2="BackgroundImageFix" result="effect1_dropShadow_0_10472"/>
<feBlend mode="normal" in="SourceGraphic" in2="effect1_dropShadow_0_10472" result="shape"/>
</filter>
<clipPath id="clip0_0_10472">
<rect width="329" height="236" rx="11" fill="white"/>
</clipPath>
</defs>
</svg>
