<svg width="330" height="236" viewBox="0 0 330 236" fill="none" xmlns="http://www.w3.org/2000/svg">
<g clip-path="url(#clip0_0_10511)">
<rect x="0.333374" width="329" height="236" rx="11" fill="white"/>
<g filter="url(#filter0_f_0_10511)">
<path d="M325.348 169.287C271.078 96.3959 46.5293 281.402 125.613 244.258C176.959 220.142 181.059 273.49 210.097 263.129C251.248 248.447 274.395 248.951 291.997 268.532C300.873 230.363 368.765 227.599 325.348 169.287Z" fill="#F7DEDB"/>
</g>
<g filter="url(#filter1_f_0_10511)">
<path d="M82.3483 -2.71288C28.0776 -75.6036 -196.471 109.403 -117.387 72.2588C-66.0412 48.1427 -61.9415 101.49 -32.9035 91.1299C8.24834 76.4478 31.3952 76.952 48.9971 96.5327C57.873 58.3631 125.765 55.5997 82.3483 -2.71288Z" fill="#F7DEDB"/>
</g>
<rect x="64.3334" y="20" width="200.945" height="196.77" rx="9.39485" fill="white"/>
<circle cx="77.9073" cy="202.867" r="2.51303" fill="#F8F8F8" stroke="black" stroke-width="0.2"/>
<path d="M83.6565 204.367V199.793H84.1466V204.367H83.6565ZM83.9114 202.322V201.845H86.2766V202.322H83.9114ZM83.9114 200.27V199.793H86.4726V200.27H83.9114ZM88.0946 204.445C87.8724 204.445 87.6721 204.402 87.4935 204.314C87.3192 204.227 87.182 204.108 87.0819 203.955C86.9817 203.803 86.9316 203.626 86.9316 203.426C86.9316 203.143 87.0318 202.914 87.2321 202.74C87.4369 202.561 87.7178 202.459 88.075 202.433L89.3295 202.341V202.799L88.1861 202.884C87.9334 202.901 87.7439 202.955 87.6176 203.047C87.4957 203.138 87.4347 203.265 87.4347 203.426C87.4347 203.583 87.4978 203.713 87.6242 203.818C87.7548 203.918 87.9225 203.968 88.1272 203.968C88.332 203.968 88.5171 203.922 88.6826 203.831C88.8525 203.735 88.9853 203.609 89.0812 203.452C89.1814 203.291 89.2314 203.112 89.2314 202.916V202.387C89.2314 202.126 89.1509 201.912 88.9897 201.747C88.8329 201.577 88.6195 201.492 88.3494 201.492C88.1447 201.492 87.9683 201.542 87.8202 201.642C87.6721 201.738 87.5675 201.88 87.5065 202.067H87.4347L87.0034 201.91C87.108 201.618 87.2779 201.396 87.5131 201.244C87.7483 201.091 88.0292 201.015 88.3559 201.015C88.7959 201.015 89.1334 201.148 89.3687 201.413C89.6039 201.675 89.7215 202.047 89.7215 202.531V204.367H89.2445V203.419L89.4144 203.543C89.3621 203.718 89.2706 203.874 89.14 204.014C89.0093 204.149 88.8547 204.256 88.6761 204.334C88.4975 204.408 88.3037 204.445 88.0946 204.445ZM92.0344 204.445C91.7164 204.445 91.4333 204.373 91.185 204.229C90.9411 204.086 90.7494 203.885 90.61 203.628C90.475 203.371 90.4075 203.073 90.4075 202.733C90.4075 202.394 90.475 202.095 90.61 201.838C90.7494 201.581 90.9411 201.381 91.185 201.237C91.4333 201.093 91.7164 201.021 92.0344 201.021C92.2783 201.021 92.4983 201.067 92.6943 201.159C92.8903 201.246 93.058 201.372 93.1974 201.538C93.3411 201.699 93.4478 201.893 93.5175 202.119L93.0798 202.243H93.0079C92.9295 202.012 92.8053 201.832 92.6355 201.701C92.4656 201.566 92.2652 201.498 92.0344 201.498C91.8035 201.498 91.6031 201.551 91.4333 201.655C91.2634 201.76 91.1305 201.906 91.0347 202.093C90.9432 202.276 90.8975 202.489 90.8975 202.733C90.8975 202.973 90.9432 203.186 91.0347 203.374C91.1305 203.561 91.2634 203.707 91.4333 203.811C91.6031 203.916 91.8035 203.968 92.0344 203.968C92.1955 203.968 92.3393 203.94 92.4656 203.883C92.5963 203.822 92.7095 203.737 92.8053 203.628C92.9012 203.515 92.9774 203.38 93.034 203.223H93.1059L93.5437 203.347C93.4652 203.578 93.352 203.776 93.2039 203.942C93.0602 204.108 92.8903 204.234 92.6943 204.321C92.4983 204.404 92.2783 204.445 92.0344 204.445ZM95.6193 204.445C95.3101 204.445 95.0357 204.373 94.7961 204.229C94.5565 204.086 94.3692 203.885 94.2342 203.628C94.0992 203.371 94.0316 203.073 94.0316 202.733C94.0316 202.394 94.097 202.095 94.2277 201.838C94.3627 201.581 94.5478 201.381 94.783 201.237C95.0226 201.093 95.297 201.021 95.6063 201.021C95.9112 201.021 96.1769 201.095 96.4034 201.244C96.6342 201.387 96.815 201.592 96.9457 201.858C97.0764 202.119 97.1417 202.424 97.1417 202.772V202.831L97.0437 202.923H94.3191V202.446H96.8542L96.6386 202.537C96.6212 202.319 96.5645 202.134 96.4687 201.982C96.3729 201.825 96.2509 201.705 96.1028 201.623C95.9547 201.54 95.7892 201.498 95.6063 201.498C95.4059 201.498 95.223 201.548 95.0574 201.649C94.8919 201.744 94.7612 201.882 94.6654 202.06C94.5696 202.239 94.5217 202.446 94.5217 202.681V202.766C94.5217 203.001 94.5674 203.21 94.6589 203.393C94.7547 203.572 94.8854 203.713 95.0509 203.818C95.2164 203.918 95.4059 203.968 95.6193 203.968C95.8328 203.968 96.0157 203.918 96.1682 203.818C96.3206 203.718 96.4404 203.58 96.5275 203.406H96.5994L97.011 203.589C96.8891 203.851 96.7061 204.06 96.4622 204.216C96.2226 204.369 95.9417 204.445 95.6193 204.445ZM99.5243 204.445C99.3022 204.445 99.0974 204.402 98.9101 204.314C98.7228 204.223 98.5617 204.097 98.4266 203.935C98.2916 203.774 98.1914 203.587 98.1261 203.374V202.093C98.1914 201.875 98.2916 201.688 98.4266 201.531C98.5617 201.37 98.7228 201.246 98.9101 201.159C99.0974 201.067 99.3022 201.021 99.5243 201.021C99.8161 201.021 100.077 201.095 100.308 201.244C100.539 201.392 100.722 201.594 100.857 201.851C100.997 202.108 101.066 202.402 101.066 202.733C101.066 203.064 100.997 203.358 100.857 203.615C100.722 203.872 100.539 204.075 100.308 204.223C100.077 204.371 99.8161 204.445 99.5243 204.445ZM97.8909 204.367V199.662L98.3613 199.604L98.3809 199.656V202.322L98.2894 202.733L98.3678 203.145V204.367H97.8909ZM99.5047 203.968C99.7138 203.968 99.8989 203.916 100.06 203.811C100.221 203.707 100.348 203.563 100.439 203.38C100.53 203.193 100.576 202.977 100.576 202.733C100.576 202.489 100.53 202.276 100.439 202.093C100.348 201.906 100.221 201.76 100.06 201.655C99.8989 201.551 99.7138 201.498 99.5047 201.498C99.2913 201.498 99.0996 201.551 98.9297 201.655C98.7599 201.76 98.6248 201.906 98.5246 202.093C98.4288 202.276 98.3809 202.489 98.3809 202.733C98.3809 202.977 98.4288 203.193 98.5246 203.38C98.6248 203.563 98.7599 203.707 98.9297 203.811C99.0996 203.916 99.2913 203.968 99.5047 203.968ZM103.194 204.445C102.88 204.445 102.601 204.373 102.357 204.229C102.118 204.086 101.928 203.885 101.789 203.628C101.654 203.371 101.586 203.073 101.586 202.733C101.586 202.394 101.654 202.095 101.789 201.838C101.928 201.581 102.118 201.381 102.357 201.237C102.601 201.093 102.88 201.021 103.194 201.021C103.512 201.021 103.79 201.093 104.03 201.237C104.269 201.381 104.457 201.581 104.592 201.838C104.731 202.095 104.801 202.394 104.801 202.733C104.801 203.073 104.731 203.371 104.592 203.628C104.457 203.885 104.269 204.086 104.03 204.229C103.79 204.373 103.512 204.445 103.194 204.445ZM103.194 203.968C103.411 203.968 103.603 203.918 103.769 203.818C103.938 203.713 104.071 203.57 104.167 203.387C104.263 203.199 104.311 202.982 104.311 202.733C104.311 202.481 104.263 202.263 104.167 202.08C104.071 201.897 103.938 201.755 103.769 201.655C103.603 201.551 103.411 201.498 103.194 201.498C102.976 201.498 102.782 201.551 102.612 201.655C102.447 201.755 102.316 201.897 102.22 202.08C102.124 202.263 102.076 202.481 102.076 202.733C102.076 202.982 102.124 203.199 102.22 203.387C102.316 203.57 102.447 203.713 102.612 203.818C102.782 203.918 102.976 203.968 103.194 203.968ZM106.933 204.445C106.619 204.445 106.34 204.373 106.096 204.229C105.857 204.086 105.667 203.885 105.528 203.628C105.393 203.371 105.325 203.073 105.325 202.733C105.325 202.394 105.393 202.095 105.528 201.838C105.667 201.581 105.857 201.381 106.096 201.237C106.34 201.093 106.619 201.021 106.933 201.021C107.251 201.021 107.529 201.093 107.769 201.237C108.008 201.381 108.196 201.581 108.331 201.838C108.47 202.095 108.54 202.394 108.54 202.733C108.54 203.073 108.47 203.371 108.331 203.628C108.196 203.885 108.008 204.086 107.769 204.229C107.529 204.373 107.251 204.445 106.933 204.445ZM106.933 203.968C107.15 203.968 107.342 203.918 107.508 203.818C107.677 203.713 107.81 203.57 107.906 203.387C108.002 203.199 108.05 202.982 108.05 202.733C108.05 202.481 108.002 202.263 107.906 202.08C107.81 201.897 107.677 201.755 107.508 201.655C107.342 201.551 107.15 201.498 106.933 201.498C106.715 201.498 106.521 201.551 106.351 201.655C106.186 201.755 106.055 201.897 105.959 202.08C105.863 202.263 105.815 202.481 105.815 202.733C105.815 202.982 105.863 203.199 105.959 203.387C106.055 203.57 106.186 203.713 106.351 203.818C106.521 203.918 106.715 203.968 106.933 203.968ZM109.489 203.694V203.047L111.501 201.1H112.083V201.152L109.489 203.694ZM109.293 204.367V199.662L109.763 199.604L109.783 199.656V204.367H109.293ZM111.541 204.367L110.332 202.661L110.652 202.335L112.083 204.314V204.367H111.541Z" fill="black"/>
<circle cx="129.666" cy="202.867" r="2.61303" fill="#FF6494"/>
<path d="M135.415 204.367V199.793H135.905V204.367H135.415ZM136.888 204.367V201.1H137.365V202.047L137.221 201.923C137.277 201.74 137.371 201.581 137.502 201.446C137.632 201.311 137.785 201.207 137.959 201.133C138.138 201.058 138.327 201.021 138.528 201.021C138.763 201.021 138.972 201.072 139.155 201.172C139.338 201.272 139.479 201.42 139.579 201.616C139.684 201.812 139.736 202.056 139.736 202.348V204.367H139.246V202.459C139.246 202.211 139.209 202.019 139.135 201.884C139.061 201.744 138.961 201.646 138.835 201.59C138.713 201.533 138.573 201.505 138.416 201.505C138.238 201.505 138.068 201.548 137.907 201.636C137.75 201.723 137.621 201.849 137.521 202.015C137.425 202.176 137.378 202.372 137.378 202.603V204.367H136.888ZM141.666 204.445C141.33 204.445 141.047 204.365 140.816 204.203C140.585 204.038 140.433 203.807 140.359 203.511L140.81 203.4L140.882 203.413C140.929 203.587 141.03 203.724 141.182 203.824C141.335 203.92 141.513 203.968 141.718 203.968C141.923 203.968 142.097 203.922 142.241 203.831C142.389 203.735 142.463 203.611 142.463 203.459C142.463 203.332 142.419 203.232 142.332 203.158C142.249 203.08 142.123 203.021 141.953 202.982L141.352 202.844C141.047 202.775 140.823 202.664 140.679 202.511C140.54 202.354 140.47 202.169 140.47 201.956C140.47 201.773 140.52 201.612 140.62 201.472C140.72 201.333 140.858 201.224 141.032 201.146C141.21 201.063 141.413 201.021 141.639 201.021C141.97 201.021 142.249 201.104 142.476 201.27C142.702 201.435 142.853 201.668 142.927 201.969L142.469 202.067L142.397 202.054C142.354 201.875 142.258 201.738 142.11 201.642C141.966 201.546 141.805 201.498 141.626 201.498C141.439 201.498 141.282 201.54 141.156 201.623C141.034 201.705 140.973 201.81 140.973 201.936C140.973 202.045 141.012 202.137 141.091 202.211C141.173 202.28 141.304 202.335 141.483 202.374L142.09 202.511C142.391 202.581 142.611 202.692 142.75 202.844C142.894 202.997 142.966 203.191 142.966 203.426C142.966 203.635 142.909 203.816 142.796 203.968C142.683 204.121 142.528 204.238 142.332 204.321C142.14 204.404 141.918 204.445 141.666 204.445ZM144.713 204.367C144.443 204.367 144.22 204.28 144.046 204.105C143.872 203.931 143.785 203.696 143.785 203.4V200.211H144.275V203.367C144.275 203.559 144.314 203.694 144.392 203.772C144.475 203.851 144.61 203.89 144.798 203.89H145.203L145.235 203.962V204.367H144.713ZM143.223 201.577V201.1H145.235V201.577H143.223ZM146.891 204.445C146.669 204.445 146.468 204.402 146.29 204.314C146.116 204.227 145.978 204.108 145.878 203.955C145.778 203.803 145.728 203.626 145.728 203.426C145.728 203.143 145.828 202.914 146.029 202.74C146.233 202.561 146.514 202.459 146.871 202.433L148.126 202.341V202.799L146.982 202.884C146.73 202.901 146.54 202.955 146.414 203.047C146.292 203.138 146.231 203.265 146.231 203.426C146.231 203.583 146.294 203.713 146.421 203.818C146.551 203.918 146.719 203.968 146.924 203.968C147.128 203.968 147.313 203.922 147.479 203.831C147.649 203.735 147.782 203.609 147.878 203.452C147.978 203.291 148.028 203.112 148.028 202.916V202.387C148.028 202.126 147.947 201.912 147.786 201.747C147.629 201.577 147.416 201.492 147.146 201.492C146.941 201.492 146.765 201.542 146.617 201.642C146.468 201.738 146.364 201.88 146.303 202.067H146.231L145.8 201.91C145.904 201.618 146.074 201.396 146.309 201.244C146.545 201.091 146.826 201.015 147.152 201.015C147.592 201.015 147.93 201.148 148.165 201.413C148.4 201.675 148.518 202.047 148.518 202.531V204.367H148.041V203.419L148.211 203.543C148.159 203.718 148.067 203.874 147.936 204.014C147.806 204.149 147.651 204.256 147.472 204.334C147.294 204.408 147.1 204.445 146.891 204.445ZM150.408 205.673C149.985 205.673 149.656 205.586 149.421 205.412C149.19 205.238 149.075 205.003 149.075 204.706C149.075 204.524 149.118 204.36 149.205 204.216C149.297 204.073 149.43 203.962 149.604 203.883L149.859 204.151C149.763 204.195 149.687 204.26 149.63 204.347C149.578 204.43 149.552 204.521 149.552 204.622C149.552 204.796 149.624 204.937 149.767 205.046C149.915 205.159 150.116 205.216 150.368 205.216H150.819C151.081 205.216 151.287 205.17 151.44 205.079C151.592 204.987 151.669 204.855 151.669 204.68C151.669 204.554 151.619 204.454 151.518 204.38C151.423 204.306 151.279 204.269 151.087 204.269H150.179C150.009 204.269 149.854 204.238 149.715 204.177C149.58 204.116 149.471 204.031 149.388 203.922C149.31 203.814 149.271 203.685 149.271 203.537C149.271 203.398 149.31 203.269 149.388 203.151C149.471 203.029 149.604 202.936 149.787 202.87L150.055 203.125C149.937 203.151 149.854 203.197 149.806 203.262C149.759 203.328 149.735 203.402 149.735 203.485C149.735 203.594 149.776 203.678 149.859 203.739C149.946 203.796 150.061 203.824 150.205 203.824H151.087C151.409 203.824 151.664 203.905 151.852 204.066C152.043 204.223 152.139 204.43 152.139 204.687C152.139 204.992 152.019 205.231 151.78 205.406C151.54 205.584 151.22 205.673 150.819 205.673H150.408ZM150.63 203.347C150.377 203.347 150.153 203.3 149.957 203.204C149.765 203.104 149.615 202.966 149.506 202.792C149.397 202.613 149.343 202.411 149.343 202.184C149.343 201.954 149.397 201.751 149.506 201.577C149.615 201.403 149.765 201.268 149.957 201.172C150.153 201.072 150.377 201.021 150.63 201.021C150.887 201.021 151.111 201.072 151.303 201.172C151.494 201.268 151.645 201.403 151.754 201.577C151.862 201.751 151.917 201.954 151.917 202.184C151.917 202.411 151.862 202.613 151.754 202.792C151.645 202.966 151.494 203.104 151.303 203.204C151.111 203.3 150.887 203.347 150.63 203.347ZM150.63 202.903C150.874 202.903 151.07 202.838 151.218 202.707C151.37 202.572 151.446 202.398 151.446 202.184C151.446 201.971 151.37 201.799 151.218 201.668C151.07 201.533 150.874 201.466 150.63 201.466C150.386 201.466 150.188 201.533 150.035 201.668C149.887 201.799 149.813 201.971 149.813 202.184C149.813 202.398 149.887 202.572 150.035 202.707C150.188 202.838 150.386 202.903 150.63 202.903ZM151.505 201.492L151.179 201.263C151.179 201.098 151.213 200.952 151.283 200.825C151.353 200.695 151.444 200.592 151.558 200.518C151.675 200.444 151.806 200.407 151.95 200.407C151.98 200.407 152.015 200.409 152.054 200.414C152.093 200.414 152.124 200.418 152.146 200.427V200.884L152.113 200.956C152.069 200.943 152.019 200.936 151.963 200.936C151.81 200.936 151.695 200.989 151.616 201.093C151.542 201.193 151.505 201.326 151.505 201.492ZM152.731 204.367V201.1H153.208V202.047L153.064 201.923C153.138 201.67 153.279 201.47 153.488 201.322C153.702 201.174 153.941 201.1 154.207 201.1H154.547V201.577H154.129C153.95 201.577 153.791 201.62 153.652 201.707C153.517 201.795 153.41 201.914 153.332 202.067C153.258 202.219 153.221 202.398 153.221 202.603V204.367H152.731ZM155.977 204.445C155.755 204.445 155.554 204.402 155.376 204.314C155.202 204.227 155.064 204.108 154.964 203.955C154.864 203.803 154.814 203.626 154.814 203.426C154.814 203.143 154.914 202.914 155.114 202.74C155.319 202.561 155.6 202.459 155.957 202.433L157.212 202.341V202.799L156.068 202.884C155.816 202.901 155.626 202.955 155.5 203.047C155.378 203.138 155.317 203.265 155.317 203.426C155.317 203.583 155.38 203.713 155.507 203.818C155.637 203.918 155.805 203.968 156.01 203.968C156.214 203.968 156.399 203.922 156.565 203.831C156.735 203.735 156.868 203.609 156.964 203.452C157.064 203.291 157.114 203.112 157.114 202.916V202.387C157.114 202.126 157.033 201.912 156.872 201.747C156.715 201.577 156.502 201.492 156.232 201.492C156.027 201.492 155.851 201.542 155.703 201.642C155.554 201.738 155.45 201.88 155.389 202.067H155.317L154.886 201.91C154.99 201.618 155.16 201.396 155.395 201.244C155.631 201.091 155.912 201.015 156.238 201.015C156.678 201.015 157.016 201.148 157.251 201.413C157.486 201.675 157.604 202.047 157.604 202.531V204.367H157.127V203.419L157.297 203.543C157.244 203.718 157.153 203.874 157.022 204.014C156.892 204.149 156.737 204.256 156.558 204.334C156.38 204.408 156.186 204.445 155.977 204.445ZM158.486 204.367V201.1H158.963V202.047L158.819 201.923C158.876 201.74 158.969 201.581 159.1 201.446C159.231 201.311 159.383 201.207 159.557 201.133C159.732 201.058 159.91 201.021 160.093 201.021C160.381 201.021 160.627 201.104 160.831 201.27C161.041 201.431 161.176 201.666 161.237 201.975H161.014C161.067 201.784 161.158 201.618 161.289 201.479C161.419 201.335 161.578 201.224 161.766 201.146C161.957 201.063 162.164 201.021 162.386 201.021C162.613 201.021 162.813 201.072 162.988 201.172C163.166 201.272 163.306 201.42 163.406 201.616C163.51 201.812 163.563 202.056 163.563 202.348V204.367H163.073V202.459C163.073 202.211 163.035 202.019 162.961 201.884C162.887 201.744 162.789 201.646 162.667 201.59C162.55 201.533 162.419 201.505 162.275 201.505C162.119 201.505 161.962 201.546 161.805 201.629C161.653 201.712 161.524 201.836 161.419 202.001C161.319 202.163 161.269 202.363 161.269 202.603V204.367H160.779V202.459C160.779 202.211 160.742 202.019 160.668 201.884C160.594 201.744 160.496 201.646 160.374 201.59C160.256 201.533 160.126 201.505 159.982 201.505C159.825 201.505 159.668 201.548 159.512 201.636C159.359 201.718 159.231 201.843 159.126 202.008C159.026 202.169 158.976 202.367 158.976 202.603V204.367H158.486Z" fill="black"/>
<circle cx="182.425" cy="202.867" r="2.61303" fill="#89016F"/>
<path d="M188.174 204.367V199.793H188.664V204.367H188.174ZM189.646 204.367V201.1H190.123V202.047L189.979 201.923C190.036 201.74 190.13 201.581 190.26 201.446C190.391 201.311 190.544 201.207 190.718 201.133C190.896 201.058 191.086 201.021 191.286 201.021C191.521 201.021 191.73 201.072 191.913 201.172C192.096 201.272 192.238 201.42 192.338 201.616C192.443 201.812 192.495 202.056 192.495 202.348V204.367H192.005V202.459C192.005 202.211 191.968 202.019 191.894 201.884C191.82 201.744 191.72 201.646 191.593 201.59C191.471 201.533 191.332 201.505 191.175 201.505C190.997 201.505 190.827 201.548 190.665 201.636C190.509 201.723 190.38 201.849 190.28 202.015C190.184 202.176 190.136 202.372 190.136 202.603V204.367H189.646ZM194.725 204.445C194.437 204.445 194.176 204.371 193.941 204.223C193.71 204.075 193.525 203.872 193.385 203.615C193.25 203.358 193.183 203.064 193.183 202.733C193.183 202.402 193.25 202.108 193.385 201.851C193.525 201.594 193.71 201.392 193.941 201.244C194.176 201.095 194.437 201.021 194.725 201.021C194.947 201.021 195.152 201.067 195.339 201.159C195.526 201.246 195.687 201.37 195.822 201.531C195.957 201.688 196.058 201.875 196.123 202.093V203.374C196.058 203.587 195.957 203.774 195.822 203.935C195.687 204.097 195.526 204.223 195.339 204.314C195.152 204.402 194.947 204.445 194.725 204.445ZM194.744 203.968C194.962 203.968 195.154 203.916 195.319 203.811C195.489 203.707 195.622 203.563 195.718 203.38C195.818 203.193 195.868 202.977 195.868 202.733C195.868 202.489 195.818 202.276 195.718 202.093C195.622 201.906 195.489 201.76 195.319 201.655C195.154 201.551 194.962 201.498 194.744 201.498C194.54 201.498 194.355 201.551 194.189 201.655C194.028 201.76 193.902 201.906 193.81 202.093C193.719 202.276 193.673 202.489 193.673 202.733C193.673 202.977 193.719 203.193 193.81 203.38C193.902 203.563 194.028 203.707 194.189 203.811C194.355 203.916 194.54 203.968 194.744 203.968ZM195.881 204.367V203.145L195.96 202.733L195.868 202.322V199.662L196.339 199.604L196.358 199.656V204.367H195.881ZM198.695 204.445C198.385 204.445 198.111 204.373 197.871 204.229C197.632 204.086 197.444 203.885 197.309 203.628C197.174 203.371 197.107 203.073 197.107 202.733C197.107 202.394 197.172 202.095 197.303 201.838C197.438 201.581 197.623 201.381 197.858 201.237C198.098 201.093 198.372 201.021 198.682 201.021C198.986 201.021 199.252 201.095 199.479 201.244C199.71 201.387 199.89 201.592 200.021 201.858C200.152 202.119 200.217 202.424 200.217 202.772V202.831L200.119 202.923H197.394V202.446H199.929L199.714 202.537C199.696 202.319 199.64 202.134 199.544 201.982C199.448 201.825 199.326 201.705 199.178 201.623C199.03 201.54 198.864 201.498 198.682 201.498C198.481 201.498 198.298 201.548 198.133 201.649C197.967 201.744 197.836 201.882 197.741 202.06C197.645 202.239 197.597 202.446 197.597 202.681V202.766C197.597 203.001 197.643 203.21 197.734 203.393C197.83 203.572 197.961 203.713 198.126 203.818C198.292 203.918 198.481 203.968 198.695 203.968C198.908 203.968 199.091 203.918 199.243 203.818C199.396 203.718 199.516 203.58 199.603 203.406H199.675L200.086 203.589C199.964 203.851 199.781 204.06 199.537 204.216C199.298 204.369 199.017 204.445 198.695 204.445ZM202.325 204.445C202.016 204.445 201.741 204.373 201.502 204.229C201.262 204.086 201.075 203.885 200.94 203.628C200.805 203.371 200.737 203.073 200.737 202.733C200.737 202.394 200.803 202.095 200.933 201.838C201.068 201.581 201.254 201.381 201.489 201.237C201.728 201.093 202.003 201.021 202.312 201.021C202.617 201.021 202.883 201.095 203.109 201.244C203.34 201.387 203.521 201.592 203.651 201.858C203.782 202.119 203.848 202.424 203.848 202.772V202.831L203.75 202.923H201.025V202.446H203.56L203.344 202.537C203.327 202.319 203.27 202.134 203.175 201.982C203.079 201.825 202.957 201.705 202.809 201.623C202.661 201.54 202.495 201.498 202.312 201.498C202.112 201.498 201.929 201.548 201.763 201.649C201.598 201.744 201.467 201.882 201.371 202.06C201.275 202.239 201.227 202.446 201.227 202.681V202.766C201.227 203.001 201.273 203.21 201.365 203.393C201.461 203.572 201.591 203.713 201.757 203.818C201.922 203.918 202.112 203.968 202.325 203.968C202.539 203.968 202.722 203.918 202.874 203.818C203.026 203.718 203.146 203.58 203.233 203.406H203.305L203.717 203.589C203.595 203.851 203.412 204.06 203.168 204.216C202.928 204.369 202.647 204.445 202.325 204.445ZM205.91 204.445C205.622 204.445 205.361 204.371 205.126 204.223C204.895 204.075 204.71 203.872 204.571 203.615C204.436 203.358 204.368 203.064 204.368 202.733C204.368 202.402 204.436 202.108 204.571 201.851C204.71 201.594 204.895 201.392 205.126 201.244C205.361 201.095 205.622 201.021 205.91 201.021C206.132 201.021 206.337 201.067 206.524 201.159C206.711 201.246 206.873 201.37 207.008 201.531C207.143 201.688 207.243 201.875 207.308 202.093V203.374C207.243 203.587 207.143 203.774 207.008 203.935C206.873 204.097 206.711 204.223 206.524 204.314C206.337 204.402 206.132 204.445 205.91 204.445ZM205.93 203.968C206.147 203.968 206.339 203.916 206.505 203.811C206.674 203.707 206.807 203.563 206.903 203.38C207.003 203.193 207.053 202.977 207.053 202.733C207.053 202.489 207.003 202.276 206.903 202.093C206.807 201.906 206.674 201.76 206.505 201.655C206.339 201.551 206.147 201.498 205.93 201.498C205.725 201.498 205.54 201.551 205.374 201.655C205.213 201.76 205.087 201.906 204.995 202.093C204.904 202.276 204.858 202.489 204.858 202.733C204.858 202.977 204.904 203.193 204.995 203.38C205.087 203.563 205.213 203.707 205.374 203.811C205.54 203.916 205.725 203.968 205.93 203.968ZM207.066 204.367V203.145L207.145 202.733L207.053 202.322V199.662L207.524 199.604L207.543 199.656V204.367H207.066Z" fill="black"/>
<circle cx="226.183" cy="202.867" r="2.61303" fill="#0C0B0B"/>
<path d="M233.037 204.445C232.775 204.445 232.547 204.393 232.351 204.288C232.159 204.179 232.009 204.031 231.9 203.844C231.791 203.652 231.736 203.432 231.736 203.184V202.87H232.155L232.226 202.903V203.184C232.226 203.424 232.3 203.615 232.449 203.759C232.597 203.898 232.793 203.968 233.037 203.968C233.281 203.968 233.477 203.894 233.625 203.746C233.773 203.598 233.847 203.393 233.847 203.132V199.793H234.337V203.119C234.337 203.384 234.282 203.617 234.173 203.818C234.069 204.014 233.919 204.169 233.723 204.282C233.527 204.391 233.298 204.445 233.037 204.445ZM236.66 204.445C236.346 204.445 236.068 204.373 235.824 204.229C235.584 204.086 235.395 203.885 235.255 203.628C235.12 203.371 235.053 203.073 235.053 202.733C235.053 202.394 235.12 202.095 235.255 201.838C235.395 201.581 235.584 201.381 235.824 201.237C236.068 201.093 236.346 201.021 236.66 201.021C236.978 201.021 237.257 201.093 237.496 201.237C237.736 201.381 237.923 201.581 238.058 201.838C238.198 202.095 238.267 202.394 238.267 202.733C238.267 203.073 238.198 203.371 238.058 203.628C237.923 203.885 237.736 204.086 237.496 204.229C237.257 204.373 236.978 204.445 236.66 204.445ZM236.66 203.968C236.878 203.968 237.07 203.918 237.235 203.818C237.405 203.713 237.538 203.57 237.634 203.387C237.729 203.199 237.777 202.982 237.777 202.733C237.777 202.481 237.729 202.263 237.634 202.08C237.538 201.897 237.405 201.755 237.235 201.655C237.07 201.551 236.878 201.498 236.66 201.498C236.442 201.498 236.248 201.551 236.079 201.655C235.913 201.755 235.782 201.897 235.687 202.08C235.591 202.263 235.543 202.481 235.543 202.733C235.543 202.982 235.591 203.199 235.687 203.387C235.782 203.57 235.913 203.713 236.079 203.818C236.248 203.918 236.442 203.968 236.66 203.968ZM240.654 204.445C240.432 204.445 240.227 204.402 240.04 204.314C239.852 204.223 239.691 204.097 239.556 203.935C239.421 203.774 239.321 203.587 239.256 203.374V202.093C239.321 201.875 239.421 201.688 239.556 201.531C239.691 201.37 239.852 201.246 240.04 201.159C240.227 201.067 240.432 201.021 240.654 201.021C240.946 201.021 241.207 201.095 241.438 201.244C241.669 201.392 241.852 201.594 241.987 201.851C242.126 202.108 242.196 202.402 242.196 202.733C242.196 203.064 242.126 203.358 241.987 203.615C241.852 203.872 241.669 204.075 241.438 204.223C241.207 204.371 240.946 204.445 240.654 204.445ZM239.02 204.367V199.662L239.491 199.604L239.511 199.656V202.322L239.419 202.733L239.497 203.145V204.367H239.02ZM240.634 203.968C240.843 203.968 241.029 203.916 241.19 203.811C241.351 203.707 241.477 203.563 241.569 203.38C241.66 203.193 241.706 202.977 241.706 202.733C241.706 202.489 241.66 202.276 241.569 202.093C241.477 201.906 241.351 201.76 241.19 201.655C241.029 201.551 240.843 201.498 240.634 201.498C240.421 201.498 240.229 201.551 240.059 201.655C239.889 201.76 239.754 201.906 239.654 202.093C239.558 202.276 239.511 202.489 239.511 202.733C239.511 202.977 239.558 203.193 239.654 203.38C239.754 203.563 239.889 203.707 240.059 203.811C240.229 203.916 240.421 203.968 240.634 203.968ZM243.944 204.445C243.722 204.445 243.522 204.402 243.343 204.314C243.169 204.227 243.032 204.108 242.931 203.955C242.831 203.803 242.781 203.626 242.781 203.426C242.781 203.143 242.881 202.914 243.082 202.74C243.286 202.561 243.567 202.459 243.925 202.433L245.179 202.341V202.799L244.036 202.884C243.783 202.901 243.594 202.955 243.467 203.047C243.345 203.138 243.284 203.265 243.284 203.426C243.284 203.583 243.347 203.713 243.474 203.818C243.604 203.918 243.772 203.968 243.977 203.968C244.182 203.968 244.367 203.922 244.532 203.831C244.702 203.735 244.835 203.609 244.931 203.452C245.031 203.291 245.081 203.112 245.081 202.916V202.387C245.081 202.126 245.001 201.912 244.839 201.747C244.683 201.577 244.469 201.492 244.199 201.492C243.994 201.492 243.818 201.542 243.67 201.642C243.522 201.738 243.417 201.88 243.356 202.067H243.284L242.853 201.91C242.958 201.618 243.128 201.396 243.363 201.244C243.598 201.091 243.879 201.015 244.206 201.015C244.646 201.015 244.983 201.148 245.218 201.413C245.454 201.675 245.571 202.047 245.571 202.531V204.367H245.094V203.419L245.264 203.543C245.212 203.718 245.12 203.874 244.99 204.014C244.859 204.149 244.704 204.256 244.526 204.334C244.347 204.408 244.153 204.445 243.944 204.445ZM247.799 204.445C247.512 204.445 247.25 204.371 247.015 204.223C246.784 204.075 246.599 203.872 246.46 203.615C246.325 203.358 246.257 203.064 246.257 202.733C246.257 202.402 246.325 202.108 246.46 201.851C246.599 201.594 246.784 201.392 247.015 201.244C247.25 201.095 247.512 201.021 247.799 201.021C248.021 201.021 248.226 201.067 248.413 201.159C248.601 201.246 248.762 201.37 248.897 201.531C249.032 201.688 249.132 201.875 249.197 202.093V203.374C249.132 203.587 249.032 203.774 248.897 203.935C248.762 204.097 248.601 204.223 248.413 204.314C248.226 204.402 248.021 204.445 247.799 204.445ZM247.819 203.968C248.036 203.968 248.228 203.916 248.394 203.811C248.564 203.707 248.696 203.563 248.792 203.38C248.892 203.193 248.942 202.977 248.942 202.733C248.942 202.489 248.892 202.276 248.792 202.093C248.696 201.906 248.564 201.76 248.394 201.655C248.228 201.551 248.036 201.498 247.819 201.498C247.614 201.498 247.429 201.551 247.263 201.655C247.102 201.76 246.976 201.906 246.884 202.093C246.793 202.276 246.747 202.489 246.747 202.733C246.747 202.977 246.793 203.193 246.884 203.38C246.976 203.563 247.102 203.707 247.263 203.811C247.429 203.916 247.614 203.968 247.819 203.968ZM248.956 204.367V203.145L249.034 202.733L248.942 202.322V199.662L249.413 199.604L249.432 199.656V204.367H248.956ZM251.788 204.445C251.475 204.445 251.196 204.373 250.952 204.229C250.713 204.086 250.523 203.885 250.384 203.628C250.249 203.371 250.181 203.073 250.181 202.733C250.181 202.394 250.249 202.095 250.384 201.838C250.523 201.581 250.713 201.381 250.952 201.237C251.196 201.093 251.475 201.021 251.788 201.021C252.106 201.021 252.385 201.093 252.625 201.237C252.864 201.381 253.052 201.581 253.187 201.838C253.326 202.095 253.396 202.394 253.396 202.733C253.396 203.073 253.326 203.371 253.187 203.628C253.052 203.885 252.864 204.086 252.625 204.229C252.385 204.373 252.106 204.445 251.788 204.445ZM251.788 203.968C252.006 203.968 252.198 203.918 252.363 203.818C252.533 203.713 252.666 203.57 252.762 203.387C252.858 203.199 252.906 202.982 252.906 202.733C252.906 202.481 252.858 202.263 252.762 202.08C252.666 201.897 252.533 201.755 252.363 201.655C252.198 201.551 252.006 201.498 251.788 201.498C251.571 201.498 251.377 201.551 251.207 201.655C251.041 201.755 250.911 201.897 250.815 202.08C250.719 202.263 250.671 202.481 250.671 202.733C250.671 202.982 250.719 203.199 250.815 203.387C250.911 203.57 251.041 203.713 251.207 203.818C251.377 203.918 251.571 203.968 251.788 203.968Z" fill="black"/>
<path d="M142.211 85.017C132.712 90.029 125.115 98.0144 120.583 107.752C116.051 117.49 114.833 128.444 117.116 138.939L141.664 133.601C140.548 128.469 141.144 123.113 143.36 118.352C145.575 113.591 149.29 109.687 153.934 107.236L142.211 85.017Z" fill="#F8F8F8"/>
<path d="M199.906 93.7345C192.311 86.1397 182.438 81.2414 171.796 79.7887C161.154 78.336 150.329 80.4089 140.977 85.6903L153.33 107.566C157.902 104.983 163.195 103.97 168.398 104.68C173.601 105.39 178.429 107.785 182.142 111.499L199.906 93.7345Z" fill="#0C0B0B"/>
<path d="M153.401 176.225C163.831 178.792 174.814 177.872 184.671 173.606C194.528 169.34 202.717 161.963 207.985 152.603L186.092 140.281C183.516 144.858 179.513 148.464 174.693 150.55C169.874 152.636 164.504 153.086 159.405 151.831L153.401 176.225Z" fill="#FF6495"/>
<path d="M117.098 138.869C119.366 149.368 125.009 158.835 133.166 165.823C141.323 172.811 151.543 176.935 162.266 177.564L163.738 152.485C158.496 152.177 153.498 150.161 149.51 146.744C145.522 143.328 142.763 138.699 141.654 133.566L117.098 138.869Z" fill="#FFDBE6"/>
<path d="M206.908 159.593C210.915 153.268 213.594 146.194 214.78 138.801C215.966 131.408 215.635 123.852 213.807 116.591C211.979 109.33 208.692 102.517 204.147 96.5673C199.602 90.6175 193.893 85.655 187.368 81.9822L173.536 106.554C176.726 108.35 179.518 110.776 181.74 113.685C183.962 116.594 185.569 119.925 186.463 123.475C187.357 127.025 187.519 130.72 186.939 134.334C186.359 137.949 185.049 141.408 183.09 144.5L206.908 159.593Z" fill="#89016F"/>
<path d="M156.265 128.819C155.758 128.819 155.321 128.686 154.956 128.42C154.597 128.148 154.322 127.767 154.13 127.278C153.938 126.783 153.842 126.204 153.842 125.542C153.842 124.849 153.944 124.242 154.148 123.722C154.359 123.196 154.653 122.788 155.03 122.497C155.408 122.206 155.854 122.06 156.367 122.06C156.739 122.06 157.073 122.141 157.37 122.302C157.673 122.457 157.924 122.673 158.122 122.952C158.326 123.23 158.459 123.555 158.521 123.927L157.695 124.103L157.593 124.084C157.512 123.75 157.364 123.478 157.147 123.267C156.937 123.057 156.671 122.952 156.349 122.952C156.039 122.952 155.764 123.054 155.522 123.258C155.287 123.462 155.102 123.763 154.965 124.159C154.829 124.555 154.758 125.041 154.752 125.616C154.752 125.66 154.752 125.706 154.752 125.756C154.758 125.799 154.761 125.845 154.761 125.895H154.52C154.606 125.598 154.746 125.347 154.938 125.143C155.129 124.939 155.352 124.784 155.606 124.679C155.866 124.567 156.132 124.512 156.405 124.512C156.819 124.512 157.184 124.604 157.5 124.79C157.816 124.976 158.063 125.229 158.243 125.551C158.428 125.867 158.521 126.232 158.521 126.647C158.521 127.068 158.422 127.442 158.224 127.77C158.032 128.098 157.766 128.355 157.426 128.541C157.092 128.727 156.705 128.819 156.265 128.819ZM156.284 127.928C156.538 127.928 156.76 127.876 156.952 127.77C157.15 127.659 157.302 127.507 157.407 127.315C157.519 127.123 157.574 126.907 157.574 126.665C157.574 126.412 157.519 126.192 157.407 126.006C157.302 125.821 157.15 125.675 156.952 125.57C156.76 125.459 156.538 125.403 156.284 125.403C156.03 125.403 155.804 125.459 155.606 125.57C155.414 125.675 155.263 125.821 155.151 126.006C155.046 126.192 154.993 126.412 154.993 126.665C154.993 126.907 155.046 127.123 155.151 127.315C155.263 127.507 155.414 127.659 155.606 127.77C155.804 127.876 156.03 127.928 156.284 127.928ZM161.593 122.06C162.101 122.06 162.534 122.197 162.893 122.469C163.258 122.735 163.537 123.113 163.729 123.602C163.92 124.091 164.016 124.669 164.016 125.338C164.016 126.031 163.911 126.638 163.701 127.158C163.496 127.677 163.202 128.086 162.819 128.383C162.441 128.674 161.999 128.819 161.491 128.819C161.12 128.819 160.782 128.742 160.479 128.587C160.176 128.426 159.925 128.207 159.727 127.928C159.535 127.643 159.405 127.318 159.337 126.953L160.154 126.777L160.256 126.795C160.337 127.123 160.485 127.396 160.702 127.612C160.919 127.823 161.188 127.928 161.51 127.928C161.819 127.928 162.091 127.826 162.327 127.622C162.562 127.418 162.748 127.117 162.884 126.721C163.026 126.325 163.097 125.839 163.097 125.264C163.097 125.214 163.097 125.168 163.097 125.124C163.097 125.075 163.097 125.028 163.097 124.985H163.339C163.252 125.282 163.113 125.533 162.921 125.737C162.729 125.941 162.503 126.099 162.243 126.211C161.989 126.316 161.723 126.368 161.445 126.368C161.036 126.368 160.671 126.276 160.349 126.09C160.033 125.904 159.783 125.65 159.597 125.329C159.418 125.007 159.328 124.641 159.328 124.233C159.328 123.812 159.424 123.438 159.616 123.11C159.814 122.782 160.083 122.525 160.423 122.339C160.764 122.153 161.154 122.06 161.593 122.06ZM161.565 122.952C161.312 122.952 161.086 123.007 160.888 123.119C160.696 123.224 160.544 123.373 160.433 123.565C160.327 123.75 160.275 123.967 160.275 124.214C160.275 124.462 160.331 124.682 160.442 124.874C160.553 125.059 160.705 125.208 160.897 125.319C161.095 125.424 161.321 125.477 161.575 125.477C161.828 125.477 162.051 125.424 162.243 125.319C162.441 125.208 162.593 125.059 162.698 124.874C162.809 124.682 162.865 124.462 162.865 124.214C162.865 123.967 162.809 123.75 162.698 123.565C162.593 123.373 162.441 123.224 162.243 123.119C162.051 123.007 161.825 122.952 161.565 122.952ZM166.109 125.644C165.694 125.644 165.366 125.483 165.125 125.161C164.884 124.84 164.763 124.406 164.763 123.862C164.763 123.317 164.884 122.884 165.125 122.562C165.366 122.24 165.694 122.079 166.109 122.079C166.524 122.079 166.852 122.24 167.093 122.562C167.341 122.884 167.465 123.317 167.465 123.862C167.465 124.406 167.341 124.84 167.093 125.161C166.852 125.483 166.524 125.644 166.109 125.644ZM166.109 124.874C166.276 124.874 166.406 124.784 166.499 124.604C166.598 124.419 166.648 124.171 166.648 123.862C166.648 123.546 166.598 123.298 166.499 123.119C166.406 122.939 166.276 122.85 166.109 122.85C165.942 122.85 165.809 122.939 165.71 123.119C165.617 123.298 165.571 123.546 165.571 123.862C165.571 124.171 165.617 124.419 165.71 124.604C165.809 124.784 165.942 124.874 166.109 124.874ZM165.803 128.689L169.841 122.19H170.714L166.675 128.689H165.803ZM170.408 128.801C169.993 128.801 169.665 128.64 169.424 128.318C169.182 127.996 169.061 127.563 169.061 127.018C169.061 126.474 169.182 126.04 169.424 125.718C169.665 125.397 169.993 125.236 170.408 125.236C170.822 125.236 171.15 125.397 171.392 125.718C171.639 126.04 171.763 126.474 171.763 127.018C171.763 127.563 171.639 127.996 171.392 128.318C171.15 128.64 170.822 128.801 170.408 128.801ZM170.408 128.03C170.575 128.03 170.705 127.941 170.798 127.761C170.897 127.575 170.946 127.328 170.946 127.018C170.946 126.703 170.897 126.455 170.798 126.276C170.705 126.096 170.575 126.006 170.408 126.006C170.241 126.006 170.108 126.096 170.008 126.276C169.916 126.455 169.869 126.703 169.869 127.018C169.869 127.328 169.916 127.575 170.008 127.761C170.108 127.941 170.241 128.03 170.408 128.03Z" fill="black"/>
<path d="M149.885 139.85V135.517H150.349V139.85H149.885ZM148.523 135.969V135.517H151.705V135.969H148.523ZM153.046 139.924C152.749 139.924 152.485 139.856 152.254 139.72C152.027 139.584 151.847 139.394 151.715 139.151C151.587 138.907 151.524 138.625 151.524 138.303C151.524 137.981 151.587 137.698 151.715 137.455C151.847 137.211 152.027 137.021 152.254 136.885C152.485 136.749 152.749 136.681 153.046 136.681C153.347 136.681 153.611 136.749 153.838 136.885C154.065 137.021 154.243 137.211 154.371 137.455C154.503 137.698 154.569 137.981 154.569 138.303C154.569 138.625 154.503 138.907 154.371 139.151C154.243 139.394 154.065 139.584 153.838 139.72C153.611 139.856 153.347 139.924 153.046 139.924ZM153.046 139.473C153.252 139.473 153.434 139.425 153.591 139.33C153.752 139.231 153.878 139.095 153.968 138.922C154.059 138.744 154.105 138.538 154.105 138.303C154.105 138.063 154.059 137.857 153.968 137.684C153.878 137.51 153.752 137.376 153.591 137.281C153.434 137.182 153.252 137.133 153.046 137.133C152.84 137.133 152.656 137.182 152.495 137.281C152.338 137.376 152.215 137.51 152.124 137.684C152.033 137.857 151.988 138.063 151.988 138.303C151.988 138.538 152.033 138.744 152.124 138.922C152.215 139.095 152.338 139.231 152.495 139.33C152.656 139.425 152.84 139.473 153.046 139.473ZM156.263 139.85C156.007 139.85 155.797 139.768 155.632 139.603C155.467 139.437 155.384 139.215 155.384 138.934V135.914H155.848V138.903C155.848 139.085 155.885 139.213 155.96 139.287C156.038 139.361 156.166 139.398 156.344 139.398H156.727L156.758 139.466V139.85H156.263ZM154.852 137.207V136.755H156.758V137.207H154.852ZM158.327 139.924C158.116 139.924 157.926 139.883 157.757 139.801C157.592 139.718 157.462 139.605 157.367 139.46C157.272 139.316 157.225 139.149 157.225 138.959C157.225 138.691 157.32 138.474 157.51 138.309C157.704 138.14 157.97 138.043 158.308 138.018L159.496 137.931V138.365L158.413 138.445C158.174 138.462 157.994 138.513 157.875 138.6C157.759 138.686 157.701 138.806 157.701 138.959C157.701 139.107 157.761 139.231 157.881 139.33C158.005 139.425 158.164 139.473 158.358 139.473C158.552 139.473 158.727 139.429 158.884 139.343C159.045 139.252 159.17 139.132 159.261 138.984C159.356 138.831 159.404 138.662 159.404 138.476V137.975C159.404 137.727 159.327 137.525 159.175 137.368C159.026 137.207 158.824 137.127 158.568 137.127C158.374 137.127 158.207 137.174 158.067 137.269C157.926 137.36 157.827 137.494 157.77 137.671H157.701L157.293 137.523C157.392 137.246 157.553 137.036 157.776 136.891C157.999 136.747 158.265 136.675 158.574 136.675C158.991 136.675 159.311 136.801 159.534 137.052C159.756 137.3 159.868 137.653 159.868 138.111V139.85H159.416V138.953L159.577 139.07C159.527 139.235 159.441 139.384 159.317 139.516C159.193 139.644 159.047 139.745 158.878 139.819C158.708 139.889 158.525 139.924 158.327 139.924ZM160.795 139.85V135.394L161.24 135.338L161.259 135.387V139.85H160.795ZM164.504 139.924C164.187 139.924 163.918 139.848 163.7 139.695C163.481 139.539 163.337 139.32 163.266 139.039L163.694 138.934L163.762 138.946C163.807 139.111 163.902 139.241 164.046 139.336C164.191 139.427 164.36 139.473 164.554 139.473C164.748 139.473 164.913 139.429 165.049 139.343C165.189 139.252 165.26 139.134 165.26 138.99C165.26 138.87 165.218 138.775 165.136 138.705C165.057 138.631 164.938 138.575 164.777 138.538L164.207 138.408C163.918 138.342 163.706 138.237 163.57 138.092C163.438 137.944 163.372 137.768 163.372 137.566C163.372 137.393 163.419 137.24 163.514 137.108C163.609 136.976 163.739 136.873 163.904 136.799C164.073 136.72 164.265 136.681 164.48 136.681C164.793 136.681 165.057 136.759 165.272 136.916C165.486 137.073 165.629 137.294 165.699 137.579L165.266 137.671L165.198 137.659C165.156 137.49 165.066 137.36 164.925 137.269C164.789 137.178 164.636 137.133 164.467 137.133C164.29 137.133 164.141 137.172 164.022 137.25C163.906 137.329 163.848 137.428 163.848 137.548C163.848 137.651 163.885 137.737 163.96 137.808C164.038 137.874 164.162 137.925 164.331 137.962L164.907 138.092C165.191 138.158 165.4 138.264 165.532 138.408C165.668 138.552 165.736 138.736 165.736 138.959C165.736 139.157 165.682 139.328 165.575 139.473C165.468 139.617 165.321 139.728 165.136 139.807C164.954 139.885 164.744 139.924 164.504 139.924ZM167.357 139.924C167.147 139.924 166.957 139.883 166.788 139.801C166.623 139.718 166.493 139.605 166.398 139.46C166.303 139.316 166.255 139.149 166.255 138.959C166.255 138.691 166.35 138.474 166.54 138.309C166.734 138.14 167 138.043 167.339 138.018L168.527 137.931V138.365L167.444 138.445C167.204 138.462 167.025 138.513 166.905 138.6C166.79 138.686 166.732 138.806 166.732 138.959C166.732 139.107 166.792 139.231 166.911 139.33C167.035 139.425 167.194 139.473 167.388 139.473C167.582 139.473 167.757 139.429 167.914 139.343C168.075 139.252 168.201 139.132 168.292 138.984C168.387 138.831 168.434 138.662 168.434 138.476V137.975C168.434 137.727 168.358 137.525 168.205 137.368C168.057 137.207 167.854 137.127 167.598 137.127C167.405 137.127 167.237 137.174 167.097 137.269C166.957 137.36 166.858 137.494 166.8 137.671H166.732L166.323 137.523C166.422 137.246 166.583 137.036 166.806 136.891C167.029 136.747 167.295 136.675 167.605 136.675C168.021 136.675 168.341 136.801 168.564 137.052C168.787 137.3 168.898 137.653 168.898 138.111V139.85H168.446V138.953L168.607 139.07C168.558 139.235 168.471 139.384 168.347 139.516C168.224 139.644 168.077 139.745 167.908 139.819C167.739 139.889 167.555 139.924 167.357 139.924ZM169.825 139.85V135.394L170.271 135.338L170.289 135.387V139.85H169.825ZM172.503 139.924C172.21 139.924 171.95 139.856 171.723 139.72C171.496 139.584 171.319 139.394 171.191 139.151C171.063 138.907 170.999 138.625 170.999 138.303C170.999 137.981 171.061 137.698 171.184 137.455C171.312 137.211 171.488 137.021 171.711 136.885C171.938 136.749 172.198 136.681 172.49 136.681C172.779 136.681 173.031 136.751 173.246 136.891C173.464 137.028 173.636 137.222 173.759 137.473C173.883 137.721 173.945 138.01 173.945 138.34V138.396L173.852 138.482H171.271V138.03H173.673L173.468 138.117C173.452 137.911 173.398 137.735 173.308 137.591C173.217 137.442 173.101 137.329 172.961 137.25C172.821 137.172 172.664 137.133 172.49 137.133C172.301 137.133 172.127 137.18 171.971 137.275C171.814 137.366 171.69 137.496 171.599 137.665C171.508 137.834 171.463 138.03 171.463 138.253V138.334C171.463 138.556 171.506 138.755 171.593 138.928C171.684 139.097 171.808 139.231 171.964 139.33C172.121 139.425 172.301 139.473 172.503 139.473C172.705 139.473 172.878 139.425 173.023 139.33C173.167 139.235 173.281 139.105 173.363 138.94H173.431L173.821 139.114C173.706 139.361 173.532 139.559 173.301 139.708C173.074 139.852 172.808 139.924 172.503 139.924ZM175.614 139.924C175.296 139.924 175.028 139.848 174.809 139.695C174.591 139.539 174.446 139.32 174.376 139.039L174.803 138.934L174.871 138.946C174.917 139.111 175.012 139.241 175.156 139.336C175.301 139.427 175.47 139.473 175.664 139.473C175.858 139.473 176.023 139.429 176.159 139.343C176.299 139.252 176.369 139.134 176.369 138.99C176.369 138.87 176.328 138.775 176.245 138.705C176.167 138.631 176.047 138.575 175.886 138.538L175.317 138.408C175.028 138.342 174.816 138.237 174.68 138.092C174.547 137.944 174.481 137.768 174.481 137.566C174.481 137.393 174.529 137.24 174.624 137.108C174.719 136.976 174.849 136.873 175.014 136.799C175.183 136.72 175.375 136.681 175.589 136.681C175.903 136.681 176.167 136.759 176.382 136.916C176.596 137.073 176.739 137.294 176.809 137.579L176.375 137.671L176.307 137.659C176.266 137.49 176.175 137.36 176.035 137.269C175.899 137.178 175.746 137.133 175.577 137.133C175.4 137.133 175.251 137.172 175.131 137.25C175.016 137.329 174.958 137.428 174.958 137.548C174.958 137.651 174.995 137.737 175.069 137.808C175.148 137.874 175.272 137.925 175.441 137.962L176.016 138.092C176.301 138.158 176.51 138.264 176.642 138.408C176.778 138.552 176.846 138.736 176.846 138.959C176.846 139.157 176.792 139.328 176.685 139.473C176.578 139.617 176.431 139.728 176.245 139.807C176.064 139.885 175.853 139.924 175.614 139.924Z" fill="black"/>
<path d="M76.5392 40.0565C76.1258 40.0565 75.7625 39.9732 75.4492 39.8065C75.1425 39.6398 74.9025 39.4098 74.7292 39.1165C74.5558 38.8165 74.4692 38.4698 74.4692 38.0765V37.6265H75.3592L75.4692 37.6765V38.0765C75.4692 38.3832 75.5692 38.6298 75.7692 38.8165C75.9692 39.0032 76.2258 39.0965 76.5392 39.0965C76.8592 39.0965 77.1158 38.9998 77.3092 38.8065C77.5092 38.6132 77.6092 38.3565 77.6092 38.0365V32.9165H78.6192V38.0165C78.6192 38.4232 78.5325 38.7798 78.3592 39.0865C78.1858 39.3932 77.9425 39.6332 77.6292 39.8065C77.3225 39.9732 76.9592 40.0565 76.5392 40.0565ZM82.1928 40.0565C81.6928 40.0565 81.2528 39.9432 80.8728 39.7165C80.4928 39.4898 80.1928 39.1798 79.9728 38.7865C79.7595 38.3865 79.6528 37.9232 79.6528 37.3965C79.6528 36.8765 79.7595 36.4165 79.9728 36.0165C80.1928 35.6165 80.4928 35.3065 80.8728 35.0865C81.2528 34.8598 81.6928 34.7465 82.1928 34.7465C82.6928 34.7465 83.1328 34.8598 83.5128 35.0865C83.8928 35.3065 84.1895 35.6165 84.4028 36.0165C84.6228 36.4165 84.7328 36.8765 84.7328 37.3965C84.7328 37.9232 84.6228 38.3865 84.4028 38.7865C84.1895 39.1865 83.8928 39.4998 83.5128 39.7265C83.1328 39.9465 82.6928 40.0565 82.1928 40.0565ZM82.1928 39.1265C82.4995 39.1265 82.7662 39.0565 82.9928 38.9165C83.2262 38.7765 83.4062 38.5765 83.5328 38.3165C83.6662 38.0565 83.7328 37.7532 83.7328 37.4065C83.7328 37.0465 83.6662 36.7398 83.5328 36.4865C83.4062 36.2265 83.2262 36.0265 82.9928 35.8865C82.7662 35.7398 82.4995 35.6665 82.1928 35.6665C81.8862 35.6665 81.6162 35.7398 81.3828 35.8865C81.1562 36.0265 80.9762 36.2265 80.8428 36.4865C80.7162 36.7398 80.6528 37.0432 80.6528 37.3965C80.6528 37.7498 80.7162 38.0565 80.8428 38.3165C80.9762 38.5765 81.1562 38.7765 81.3828 38.9165C81.6162 39.0565 81.8862 39.1265 82.1928 39.1265ZM88.4927 40.0565C88.1327 40.0565 87.806 39.9832 87.5127 39.8365C87.2193 39.6898 86.9727 39.4965 86.7727 39.2565C86.5727 39.0098 86.4293 38.7365 86.3427 38.4365V36.3765C86.4293 36.0698 86.5727 35.7965 86.7727 35.5565C86.9727 35.3098 87.2193 35.1132 87.5127 34.9665C87.806 34.8198 88.1327 34.7465 88.4927 34.7465C88.946 34.7465 89.3527 34.8598 89.7127 35.0865C90.0727 35.3132 90.3593 35.6265 90.5727 36.0265C90.786 36.4265 90.8927 36.8865 90.8927 37.4065C90.8927 37.9198 90.786 38.3765 90.5727 38.7765C90.3593 39.1698 90.0727 39.4832 89.7127 39.7165C89.3527 39.9432 88.946 40.0565 88.4927 40.0565ZM85.8227 39.9165V32.7165L86.7927 32.5965L86.8227 32.6765V36.5565L86.5727 37.3965L86.7727 38.2365V39.9165H85.8227ZM88.3727 39.1265C88.6727 39.1265 88.936 39.0532 89.1627 38.9065C89.3893 38.7598 89.566 38.5565 89.6927 38.2965C89.826 38.0365 89.8927 37.7365 89.8927 37.3965C89.8927 37.0565 89.826 36.7565 89.6927 36.4965C89.566 36.2365 89.3893 36.0365 89.1627 35.8965C88.936 35.7498 88.6727 35.6765 88.3727 35.6765C88.0727 35.6765 87.8027 35.7498 87.5627 35.8965C87.3293 36.0365 87.1427 36.2365 87.0027 36.4965C86.8693 36.7565 86.8027 37.0565 86.8027 37.3965C86.8027 37.7365 86.8693 38.0365 87.0027 38.2965C87.1427 38.5565 87.3293 38.7598 87.5627 38.9065C87.8027 39.0532 88.0727 39.1265 88.3727 39.1265ZM94.3688 39.9165V32.9165H95.3488V39.9165H94.3688ZM94.8888 37.1365V36.2065H97.0288C97.4221 36.2065 97.7254 36.1032 97.9388 35.8965C98.1588 35.6832 98.2688 35.3932 98.2688 35.0265H99.3088C99.3088 35.6665 99.1088 36.1798 98.7088 36.5665C98.3088 36.9465 97.7688 37.1365 97.0888 37.1365H94.8888ZM98.2688 35.0265C98.2688 34.6598 98.1588 34.3732 97.9388 34.1665C97.7254 33.9598 97.4221 33.8565 97.0288 33.8565H94.8888V32.9165H97.0888C97.7688 32.9165 98.3088 33.1098 98.7088 33.4965C99.1088 33.8765 99.3088 34.3865 99.3088 35.0265H98.2688ZM98.2488 39.9165L96.5988 36.8765L97.5388 36.5565L99.3388 39.8365V39.9165H98.2488ZM102.417 40.0565C101.917 40.0565 101.474 39.9465 101.087 39.7265C100.707 39.4998 100.411 39.1865 100.197 38.7865C99.9841 38.3865 99.8774 37.9232 99.8774 37.3965C99.8774 36.8698 99.9808 36.4098 100.187 36.0165C100.401 35.6165 100.694 35.3065 101.067 35.0865C101.447 34.8598 101.884 34.7465 102.377 34.7465C102.864 34.7465 103.287 34.8598 103.647 35.0865C104.014 35.3132 104.297 35.6332 104.497 36.0465C104.704 36.4532 104.807 36.9298 104.807 37.4765V37.6265L104.657 37.7765H100.387V36.8965H104.327L103.817 37.0965C103.804 36.7965 103.731 36.5398 103.597 36.3265C103.471 36.1132 103.301 35.9498 103.087 35.8365C102.881 35.7165 102.647 35.6565 102.387 35.6565C102.107 35.6565 101.851 35.7232 101.617 35.8565C101.384 35.9898 101.201 36.1765 101.067 36.4165C100.941 36.6498 100.877 36.9232 100.877 37.2365V37.5365C100.877 37.8432 100.944 38.1198 101.077 38.3665C101.211 38.6065 101.394 38.7965 101.627 38.9365C101.861 39.0765 102.124 39.1465 102.417 39.1465C102.697 39.1465 102.944 39.0765 103.157 38.9365C103.377 38.7898 103.551 38.5965 103.677 38.3565H103.797L104.607 38.7065C104.414 39.1265 104.127 39.4565 103.747 39.6965C103.367 39.9365 102.924 40.0565 102.417 40.0565ZM108.521 40.0565C108.161 40.0565 107.834 39.9832 107.541 39.8365C107.247 39.6898 107.001 39.4932 106.801 39.2465C106.601 38.9998 106.457 38.7265 106.371 38.4265V36.3665C106.457 36.0598 106.601 35.7865 106.801 35.5465C107.001 35.2998 107.247 35.1065 107.541 34.9665C107.834 34.8198 108.161 34.7465 108.521 34.7465C108.974 34.7465 109.381 34.8598 109.741 35.0865C110.101 35.3132 110.387 35.6265 110.601 36.0265C110.814 36.4265 110.921 36.8832 110.921 37.3965C110.921 37.9098 110.814 38.3665 110.601 38.7665C110.387 39.1665 110.101 39.4832 109.741 39.7165C109.381 39.9432 108.974 40.0565 108.521 40.0565ZM105.851 41.9165V34.8865H106.801V36.5565L106.601 37.3965L106.851 38.2365V41.9165H105.851ZM108.401 39.1265C108.701 39.1265 108.964 39.0532 109.191 38.9065C109.417 38.7598 109.594 38.5565 109.721 38.2965C109.854 38.0365 109.921 37.7365 109.921 37.3965C109.921 37.0565 109.854 36.7565 109.721 36.4965C109.594 36.2365 109.417 36.0365 109.191 35.8965C108.964 35.7498 108.701 35.6765 108.401 35.6765C108.101 35.6765 107.831 35.7498 107.591 35.8965C107.357 36.0365 107.171 36.2365 107.031 36.4965C106.897 36.7565 106.831 37.0565 106.831 37.3965C106.831 37.7365 106.897 38.0365 107.031 38.2965C107.171 38.5565 107.357 38.7598 107.591 38.9065C107.831 39.0532 108.101 39.1265 108.401 39.1265ZM114.224 40.0565C113.724 40.0565 113.284 39.9432 112.904 39.7165C112.524 39.4898 112.224 39.1798 112.004 38.7865C111.791 38.3865 111.684 37.9232 111.684 37.3965C111.684 36.8765 111.791 36.4165 112.004 36.0165C112.224 35.6165 112.524 35.3065 112.904 35.0865C113.284 34.8598 113.724 34.7465 114.224 34.7465C114.724 34.7465 115.164 34.8598 115.544 35.0865C115.924 35.3065 116.221 35.6165 116.434 36.0165C116.654 36.4165 116.764 36.8765 116.764 37.3965C116.764 37.9232 116.654 38.3865 116.434 38.7865C116.221 39.1865 115.924 39.4998 115.544 39.7265C115.164 39.9465 114.724 40.0565 114.224 40.0565ZM114.224 39.1265C114.531 39.1265 114.797 39.0565 115.024 38.9165C115.257 38.7765 115.437 38.5765 115.564 38.3165C115.697 38.0565 115.764 37.7532 115.764 37.4065C115.764 37.0465 115.697 36.7398 115.564 36.4865C115.437 36.2265 115.257 36.0265 115.024 35.8865C114.797 35.7398 114.531 35.6665 114.224 35.6665C113.917 35.6665 113.647 35.7398 113.414 35.8865C113.187 36.0265 113.007 36.2265 112.874 36.4865C112.747 36.7398 112.684 37.0432 112.684 37.3965C112.684 37.7498 112.747 38.0565 112.874 38.3165C113.007 38.5765 113.187 38.7765 113.414 38.9165C113.647 39.0565 113.917 39.1265 114.224 39.1265ZM117.804 39.9165V34.8865H118.754V36.2365L118.484 36.1465C118.617 35.7598 118.844 35.4532 119.164 35.2265C119.491 34.9998 119.864 34.8865 120.284 34.8865H120.774V35.8065H120.124C119.857 35.8065 119.624 35.8698 119.424 35.9965C119.231 36.1165 119.077 36.2865 118.964 36.5065C118.857 36.7265 118.804 36.9865 118.804 37.2865V39.9165H117.804ZM123.485 39.9165C123.025 39.9165 122.652 39.7698 122.365 39.4765C122.085 39.1832 121.945 38.7865 121.945 38.2865V33.5565H122.945V38.1965C122.945 38.4698 123.008 38.6732 123.135 38.8065C123.268 38.9332 123.472 38.9965 123.745 38.9965H124.305L124.355 39.1065V39.9165H123.485ZM121.085 35.8065V34.8865H124.355V35.8065H121.085Z" fill="#0C0B0B"/>
<path d="M74.6492 55.7556V50.1556H75.2492V55.7556H74.6492ZM76.452 55.7556V51.7556H77.036V52.9156L76.86 52.7636C76.9293 52.5396 77.044 52.3449 77.204 52.1796C77.364 52.0143 77.5506 51.8863 77.764 51.7956C77.9826 51.7049 78.2146 51.6596 78.46 51.6596C78.748 51.6596 79.004 51.7209 79.228 51.8436C79.452 51.9663 79.6253 52.1476 79.748 52.3876C79.876 52.6276 79.94 52.9263 79.94 53.2836V55.7556H79.34V53.4196C79.34 53.1156 79.2946 52.8809 79.204 52.7156C79.1133 52.5449 78.9906 52.4249 78.836 52.3556C78.6866 52.2863 78.516 52.2516 78.324 52.2516C78.1053 52.2516 77.8973 52.3049 77.7 52.4116C77.508 52.5183 77.3506 52.6729 77.228 52.8756C77.1106 53.0729 77.052 53.3129 77.052 53.5956V55.7556H76.452ZM82.7743 55.8516C82.3849 55.8516 82.0383 55.7636 81.7343 55.5876C81.4356 55.4116 81.2009 55.1663 81.0303 54.8516C80.8649 54.5369 80.7823 54.1716 80.7823 53.7556C80.7823 53.3396 80.8649 52.9743 81.0303 52.6596C81.2009 52.3449 81.4356 52.0996 81.7343 51.9236C82.0383 51.7476 82.3849 51.6596 82.7743 51.6596C83.0729 51.6596 83.3423 51.7156 83.5823 51.8276C83.8223 51.9343 84.0276 52.0889 84.1983 52.2916C84.3743 52.4889 84.5049 52.7263 84.5903 53.0036L84.0543 53.1556H83.9663C83.8703 52.8729 83.7183 52.6516 83.5103 52.4916C83.3023 52.3263 83.0569 52.2436 82.7743 52.2436C82.4916 52.2436 82.2463 52.3076 82.0383 52.4356C81.8303 52.5636 81.6676 52.7423 81.5503 52.9716C81.4383 53.1956 81.3823 53.4569 81.3823 53.7556C81.3823 54.0489 81.4383 54.3103 81.5503 54.5396C81.6676 54.7689 81.8303 54.9476 82.0383 55.0756C82.2463 55.2036 82.4916 55.2676 82.7743 55.2676C82.9716 55.2676 83.1476 55.2329 83.3023 55.1636C83.4623 55.0889 83.6009 54.9849 83.7183 54.8516C83.8356 54.7129 83.9289 54.5476 83.9983 54.3556H84.0863L84.6223 54.5076C84.5263 54.7903 84.3876 55.0329 84.2063 55.2356C84.0303 55.4383 83.8223 55.5929 83.5823 55.6996C83.3423 55.8009 83.0729 55.8516 82.7743 55.8516ZM87.1878 55.8516C86.8038 55.8516 86.4624 55.7636 86.1638 55.5876C85.8704 55.4116 85.6384 55.1663 85.4678 54.8516C85.3024 54.5369 85.2198 54.1716 85.2198 53.7556C85.2198 53.3396 85.3024 52.9743 85.4678 52.6596C85.6384 52.3449 85.8704 52.0996 86.1638 51.9236C86.4624 51.7476 86.8038 51.6596 87.1878 51.6596C87.5771 51.6596 87.9184 51.7476 88.2118 51.9236C88.5051 52.0996 88.7344 52.3449 88.8998 52.6596C89.0704 52.9743 89.1558 53.3396 89.1558 53.7556C89.1558 54.1716 89.0704 54.5369 88.8998 54.8516C88.7344 55.1663 88.5051 55.4116 88.2118 55.5876C87.9184 55.7636 87.5771 55.8516 87.1878 55.8516ZM87.1878 55.2676C87.4544 55.2676 87.6891 55.2063 87.8918 55.0836C88.0998 54.9556 88.2624 54.7796 88.3798 54.5556C88.4971 54.3263 88.5558 54.0596 88.5558 53.7556C88.5558 53.4463 88.4971 53.1796 88.3798 52.9556C88.2624 52.7316 88.0998 52.5583 87.8918 52.4356C87.6891 52.3076 87.4544 52.2436 87.1878 52.2436C86.9211 52.2436 86.6838 52.3076 86.4758 52.4356C86.2731 52.5583 86.1131 52.7316 85.9958 52.9556C85.8784 53.1796 85.8198 53.4463 85.8198 53.7556C85.8198 54.0596 85.8784 54.3263 85.9958 54.5556C86.1131 54.7796 86.2731 54.9556 86.4758 55.0836C86.6838 55.2063 86.9211 55.2676 87.1878 55.2676ZM90.0379 55.7556V51.7556H90.6219V52.9156L90.4459 52.7636C90.5152 52.5396 90.6299 52.3449 90.7899 52.1796C90.9499 52.0143 91.1366 51.8863 91.3499 51.7956C91.5632 51.7049 91.7819 51.6596 92.0059 51.6596C92.3579 51.6596 92.6592 51.7609 92.9099 51.9636C93.1659 52.1609 93.3312 52.4489 93.4059 52.8276H93.1339C93.1979 52.5929 93.3099 52.3903 93.4699 52.2196C93.6299 52.0436 93.8246 51.9076 94.0539 51.8116C94.2886 51.7103 94.5419 51.6596 94.8139 51.6596C95.0912 51.6596 95.3366 51.7209 95.5499 51.8436C95.7686 51.9663 95.9392 52.1476 96.0619 52.3876C96.1899 52.6276 96.2539 52.9263 96.2539 53.2836V55.7556H95.6539V53.4196C95.6539 53.1156 95.6086 52.8809 95.5179 52.7156C95.4272 52.5449 95.3072 52.4249 95.1579 52.3556C95.0139 52.2863 94.8539 52.2516 94.6779 52.2516C94.4859 52.2516 94.2939 52.3023 94.1019 52.4036C93.9152 52.5049 93.7579 52.6569 93.6299 52.8596C93.5072 53.0569 93.4459 53.3023 93.4459 53.5956V55.7556H92.8459V53.4196C92.8459 53.1156 92.8006 52.8809 92.7099 52.7156C92.6192 52.5449 92.4992 52.4249 92.3499 52.3556C92.2059 52.2863 92.0459 52.2516 91.8699 52.2516C91.6779 52.2516 91.4859 52.3049 91.2939 52.4116C91.1072 52.5129 90.9499 52.6649 90.8219 52.8676C90.6992 53.0649 90.6379 53.3076 90.6379 53.5956V55.7556H90.0379ZM99.0388 55.8516C98.6601 55.8516 98.3241 55.7636 98.0308 55.5876C97.7374 55.4116 97.5081 55.1663 97.3428 54.8516C97.1774 54.5369 97.0948 54.1716 97.0948 53.7556C97.0948 53.3396 97.1748 52.9743 97.3348 52.6596C97.5001 52.3449 97.7268 52.0996 98.0148 51.9236C98.3081 51.7476 98.6441 51.6596 99.0228 51.6596C99.3961 51.6596 99.7214 51.7503 99.9988 51.9316C100.281 52.1076 100.503 52.3583 100.663 52.6836C100.823 53.0036 100.903 53.3769 100.903 53.8036V53.8756L100.783 53.9876H97.4468V53.4036H100.551L100.287 53.5156C100.265 53.2489 100.196 53.0223 100.079 52.8356C99.9614 52.6436 99.8121 52.4969 99.6308 52.3956C99.4494 52.2943 99.2468 52.2436 99.0228 52.2436C98.7774 52.2436 98.5534 52.3049 98.3508 52.4276C98.1481 52.5449 97.9881 52.7129 97.8708 52.9316C97.7534 53.1503 97.6948 53.4036 97.6948 53.6916V53.7956C97.6948 54.0836 97.7508 54.3396 97.8628 54.5636C97.9801 54.7823 98.1401 54.9556 98.3428 55.0836C98.5454 55.2063 98.7774 55.2676 99.0388 55.2676C99.3001 55.2676 99.5241 55.2063 99.7108 55.0836C99.8974 54.9609 100.044 54.7929 100.151 54.5796H100.239L100.743 54.8036C100.593 55.1236 100.369 55.3796 100.071 55.5716C99.7774 55.7583 99.4334 55.8516 99.0388 55.8516ZM103.538 55.7556V51.7556H104.122V52.9156L103.946 52.7636C104.037 52.4543 104.21 52.2089 104.466 52.0276C104.727 51.8463 105.021 51.7556 105.346 51.7556H105.762V52.3396H105.25C105.031 52.3396 104.837 52.3929 104.666 52.4996C104.501 52.6063 104.37 52.7529 104.274 52.9396C104.183 53.1263 104.138 53.3449 104.138 53.5956V55.7556H103.538ZM107.953 55.8516C107.574 55.8516 107.238 55.7636 106.945 55.5876C106.652 55.4116 106.422 55.1663 106.257 54.8516C106.092 54.5369 106.009 54.1716 106.009 53.7556C106.009 53.3396 106.089 52.9743 106.249 52.6596C106.414 52.3449 106.641 52.0996 106.929 51.9236C107.222 51.7476 107.558 51.6596 107.937 51.6596C108.31 51.6596 108.636 51.7503 108.913 51.9316C109.196 52.1076 109.417 52.3583 109.577 52.6836C109.737 53.0036 109.817 53.3769 109.817 53.8036V53.8756L109.697 53.9876H106.361V53.4036H109.465L109.201 53.5156C109.18 53.2489 109.11 53.0223 108.993 52.8356C108.876 52.6436 108.726 52.4969 108.545 52.3956C108.364 52.2943 108.161 52.2436 107.937 52.2436C107.692 52.2436 107.468 52.3049 107.265 52.4276C107.062 52.5449 106.902 52.7129 106.785 52.9316C106.668 53.1503 106.609 53.4036 106.609 53.6916V53.7956C106.609 54.0836 106.665 54.3396 106.777 54.5636C106.894 54.7823 107.054 54.9556 107.257 55.0836C107.46 55.2063 107.692 55.2676 107.953 55.2676C108.214 55.2676 108.438 55.2063 108.625 55.0836C108.812 54.9609 108.958 54.7929 109.065 54.5796H109.153L109.657 54.8036C109.508 55.1236 109.284 55.3796 108.985 55.5716C108.692 55.7583 108.348 55.8516 107.953 55.8516ZM112.694 55.8516C112.422 55.8516 112.171 55.7983 111.942 55.6916C111.713 55.5796 111.515 55.4249 111.35 55.2276C111.185 55.0303 111.062 54.8009 110.982 54.5396V52.9716C111.062 52.7049 111.185 52.4756 111.35 52.2836C111.515 52.0863 111.713 51.9343 111.942 51.8276C112.171 51.7156 112.422 51.6596 112.694 51.6596C113.051 51.6596 113.371 51.7503 113.654 51.9316C113.937 52.1129 114.161 52.3609 114.326 52.6756C114.497 52.9903 114.582 53.3503 114.582 53.7556C114.582 54.1609 114.497 54.5209 114.326 54.8356C114.161 55.1503 113.937 55.3983 113.654 55.5796C113.371 55.7609 113.051 55.8516 112.694 55.8516ZM110.694 57.3556V51.7556H111.278V53.2516L111.182 53.7556L111.294 54.2596V57.3556H110.694ZM112.67 55.2676C112.926 55.2676 113.153 55.2036 113.35 55.0756C113.547 54.9476 113.702 54.7716 113.814 54.5476C113.926 54.3183 113.982 54.0543 113.982 53.7556C113.982 53.4569 113.926 53.1956 113.814 52.9716C113.702 52.7423 113.547 52.5636 113.35 52.4356C113.153 52.3076 112.926 52.2436 112.67 52.2436C112.409 52.2436 112.174 52.3076 111.966 52.4356C111.758 52.5636 111.593 52.7423 111.47 52.9716C111.353 53.1956 111.294 53.4569 111.294 53.7556C111.294 54.0543 111.353 54.3183 111.47 54.5476C111.593 54.7716 111.758 54.9476 111.966 55.0756C112.174 55.2036 112.409 55.2676 112.67 55.2676ZM117.188 55.8516C116.804 55.8516 116.462 55.7636 116.164 55.5876C115.87 55.4116 115.638 55.1663 115.468 54.8516C115.302 54.5369 115.22 54.1716 115.22 53.7556C115.22 53.3396 115.302 52.9743 115.468 52.6596C115.638 52.3449 115.87 52.0996 116.164 51.9236C116.462 51.7476 116.804 51.6596 117.188 51.6596C117.577 51.6596 117.918 51.7476 118.212 51.9236C118.505 52.0996 118.734 52.3449 118.9 52.6596C119.07 52.9743 119.156 53.3396 119.156 53.7556C119.156 54.1716 119.07 54.5369 118.9 54.8516C118.734 55.1663 118.505 55.4116 118.212 55.5876C117.918 55.7636 117.577 55.8516 117.188 55.8516ZM117.188 55.2676C117.454 55.2676 117.689 55.2063 117.892 55.0836C118.1 54.9556 118.262 54.7796 118.38 54.5556C118.497 54.3263 118.556 54.0596 118.556 53.7556C118.556 53.4463 118.497 53.1796 118.38 52.9556C118.262 52.7316 118.1 52.5583 117.892 52.4356C117.689 52.3076 117.454 52.2436 117.188 52.2436C116.921 52.2436 116.684 52.3076 116.476 52.4356C116.273 52.5583 116.113 52.7316 115.996 52.9556C115.878 53.1796 115.82 53.4463 115.82 53.7556C115.82 54.0596 115.878 54.3263 115.996 54.5556C116.113 54.7796 116.273 54.9556 116.476 55.0836C116.684 55.2063 116.921 55.2676 117.188 55.2676ZM120.038 55.7556V51.7556H120.622V52.9156L120.446 52.7636C120.537 52.4543 120.71 52.2089 120.966 52.0276C121.227 51.8463 121.521 51.7556 121.846 51.7556H122.262V52.3396H121.75C121.531 52.3396 121.337 52.3929 121.166 52.4996C121.001 52.6063 120.87 52.7529 120.774 52.9396C120.683 53.1263 120.638 53.3449 120.638 53.5956V55.7556H120.038ZM124.369 55.7556C124.038 55.7556 123.766 55.6489 123.553 55.4356C123.34 55.2223 123.233 54.9343 123.233 54.5716V50.6676H123.833V54.5316C123.833 54.7663 123.881 54.9316 123.977 55.0276C124.078 55.1236 124.244 55.1716 124.473 55.1716H124.969L125.009 55.2596V55.7556H124.369ZM122.545 52.3396V51.7556H125.009V52.3396H122.545ZM128.966 55.8516C128.556 55.8516 128.209 55.7529 127.926 55.5556C127.644 55.3529 127.457 55.0703 127.366 54.7076L127.918 54.5716L128.006 54.5876C128.065 54.8009 128.188 54.9689 128.374 55.0916C128.561 55.2089 128.78 55.2676 129.03 55.2676C129.281 55.2676 129.494 55.2116 129.67 55.0996C129.852 54.9823 129.942 54.8303 129.942 54.6436C129.942 54.4889 129.889 54.3663 129.782 54.2756C129.681 54.1796 129.526 54.1076 129.318 54.0596L128.582 53.8916C128.209 53.8063 127.934 53.6703 127.758 53.4836C127.588 53.2916 127.502 53.0649 127.502 52.8036C127.502 52.5796 127.564 52.3823 127.686 52.2116C127.809 52.0409 127.977 51.9076 128.19 51.8116C128.409 51.7103 128.657 51.6596 128.934 51.6596C129.34 51.6596 129.681 51.7609 129.958 51.9636C130.236 52.1663 130.42 52.4516 130.51 52.8196L129.95 52.9396L129.862 52.9236C129.809 52.7049 129.692 52.5369 129.51 52.4196C129.334 52.3023 129.137 52.2436 128.918 52.2436C128.689 52.2436 128.497 52.2943 128.342 52.3956C128.193 52.4969 128.118 52.6249 128.118 52.7796C128.118 52.9129 128.166 53.0249 128.262 53.1156C128.364 53.2009 128.524 53.2676 128.742 53.3156L129.486 53.4836C129.854 53.5689 130.124 53.7049 130.294 53.8916C130.47 54.0783 130.558 54.3156 130.558 54.6036C130.558 54.8596 130.489 55.0809 130.35 55.2676C130.212 55.4543 130.022 55.5983 129.782 55.6996C129.548 55.8009 129.276 55.8516 128.966 55.8516ZM133.093 55.8516C132.715 55.8516 132.379 55.7636 132.085 55.5876C131.792 55.4116 131.563 55.1663 131.397 54.8516C131.232 54.5369 131.149 54.1716 131.149 53.7556C131.149 53.3396 131.229 52.9743 131.389 52.6596C131.555 52.3449 131.781 52.0996 132.069 51.9236C132.363 51.7476 132.699 51.6596 133.077 51.6596C133.451 51.6596 133.776 51.7503 134.053 51.9316C134.336 52.1076 134.557 52.3583 134.717 52.6836C134.877 53.0036 134.957 53.3769 134.957 53.8036V53.8756L134.837 53.9876H131.501V53.4036H134.605L134.341 53.5156C134.32 53.2489 134.251 53.0223 134.133 52.8356C134.016 52.6436 133.867 52.4969 133.685 52.3956C133.504 52.2943 133.301 52.2436 133.077 52.2436C132.832 52.2436 132.608 52.3049 132.405 52.4276C132.203 52.5449 132.043 52.7129 131.925 52.9316C131.808 53.1503 131.749 53.4036 131.749 53.6916V53.7956C131.749 54.0836 131.805 54.3396 131.917 54.5636C132.035 54.7823 132.195 54.9556 132.397 55.0836C132.6 55.2063 132.832 55.2676 133.093 55.2676C133.355 55.2676 133.579 55.2063 133.765 55.0836C133.952 54.9609 134.099 54.7929 134.205 54.5796H134.293L134.797 54.8036C134.648 55.1236 134.424 55.3796 134.125 55.5716C133.832 55.7583 133.488 55.8516 133.093 55.8516ZM137.539 55.8516C137.16 55.8516 136.824 55.7636 136.531 55.5876C136.237 55.4116 136.008 55.1663 135.843 54.8516C135.677 54.5369 135.595 54.1716 135.595 53.7556C135.595 53.3396 135.675 52.9743 135.835 52.6596C136 52.3449 136.227 52.0996 136.515 51.9236C136.808 51.7476 137.144 51.6596 137.523 51.6596C137.896 51.6596 138.221 51.7503 138.499 51.9316C138.781 52.1076 139.003 52.3583 139.163 52.6836C139.323 53.0036 139.403 53.3769 139.403 53.8036V53.8756L139.283 53.9876H135.947V53.4036H139.051L138.787 53.5156C138.765 53.2489 138.696 53.0223 138.579 52.8356C138.461 52.6436 138.312 52.4969 138.131 52.3956C137.949 52.2943 137.747 52.2436 137.523 52.2436C137.277 52.2436 137.053 52.3049 136.851 52.4276C136.648 52.5449 136.488 52.7129 136.371 52.9316C136.253 53.1503 136.195 53.4036 136.195 53.6916V53.7956C136.195 54.0836 136.251 54.3396 136.363 54.5636C136.48 54.7823 136.64 54.9556 136.843 55.0836C137.045 55.2063 137.277 55.2676 137.539 55.2676C137.8 55.2676 138.024 55.2063 138.211 55.0836C138.397 54.9609 138.544 54.7929 138.651 54.5796H138.739L139.243 54.8036C139.093 55.1236 138.869 55.3796 138.571 55.5716C138.277 55.7583 137.933 55.8516 137.539 55.8516ZM140.28 55.7556V51.7556H140.864V52.9156L140.688 52.7636C140.757 52.5396 140.872 52.3449 141.032 52.1796C141.192 52.0143 141.379 51.8863 141.592 51.7956C141.811 51.7049 142.043 51.6596 142.288 51.6596C142.576 51.6596 142.832 51.7209 143.056 51.8436C143.28 51.9663 143.453 52.1476 143.576 52.3876C143.704 52.6276 143.768 52.9263 143.768 53.2836V55.7556H143.168V53.4196C143.168 53.1156 143.123 52.8809 143.032 52.7156C142.941 52.5449 142.819 52.4249 142.664 52.3556C142.515 52.2863 142.344 52.2516 142.152 52.2516C141.933 52.2516 141.725 52.3049 141.528 52.4116C141.336 52.5183 141.179 52.6729 141.056 52.8756C140.939 53.0729 140.88 53.3129 140.88 53.5956V55.7556H140.28ZM146.608 55.7556V51.7556H147.208V55.7556H146.608ZM146.912 50.9716C146.79 50.9716 146.686 50.9289 146.6 50.8436C146.515 50.7583 146.472 50.6543 146.472 50.5316C146.472 50.4089 146.515 50.3049 146.6 50.2196C146.686 50.1343 146.79 50.0916 146.912 50.0916C147.035 50.0916 147.139 50.1343 147.224 50.2196C147.31 50.3049 147.352 50.4089 147.352 50.5316C147.352 50.6543 147.31 50.7583 147.224 50.8436C147.139 50.9289 147.035 50.9716 146.912 50.9716ZM148.327 55.7556V51.7556H148.911V52.9156L148.735 52.7636C148.804 52.5396 148.919 52.3449 149.079 52.1796C149.239 52.0143 149.426 51.8863 149.639 51.7956C149.858 51.7049 150.09 51.6596 150.335 51.6596C150.623 51.6596 150.879 51.7209 151.103 51.8436C151.327 51.9663 151.5 52.1476 151.623 52.3876C151.751 52.6276 151.815 52.9263 151.815 53.2836V55.7556H151.215V53.4196C151.215 53.1156 151.17 52.8809 151.079 52.7156C150.988 52.5449 150.866 52.4249 150.711 52.3556C150.562 52.2863 150.391 52.2516 150.199 52.2516C149.98 52.2516 149.772 52.3049 149.575 52.4116C149.383 52.5183 149.226 52.6729 149.103 52.8756C148.986 53.0729 148.927 53.3129 148.927 53.5956V55.7556H148.327ZM155.967 57.3556C155.45 57.3556 155.047 57.2489 154.759 57.0356C154.476 56.8223 154.335 56.5343 154.335 56.1716C154.335 55.9476 154.388 55.7476 154.495 55.5716C154.607 55.3956 154.77 55.2596 154.983 55.1636L155.295 55.4916C155.178 55.5449 155.084 55.6249 155.015 55.7316C154.951 55.8329 154.919 55.9449 154.919 56.0676C154.919 56.2809 155.007 56.4543 155.183 56.5876C155.364 56.7263 155.61 56.7956 155.919 56.7956H156.471C156.791 56.7956 157.044 56.7396 157.231 56.6276C157.418 56.5156 157.511 56.3529 157.511 56.1396C157.511 55.9849 157.45 55.8623 157.327 55.7716C157.21 55.6809 157.034 55.6356 156.799 55.6356H155.687C155.479 55.6356 155.29 55.5983 155.119 55.5236C154.954 55.4489 154.82 55.3449 154.719 55.2116C154.623 55.0783 154.575 54.9209 154.575 54.7396C154.575 54.5689 154.623 54.4116 154.719 54.2676C154.82 54.1183 154.983 54.0036 155.207 53.9236L155.535 54.2356C155.391 54.2676 155.29 54.3236 155.231 54.4036C155.172 54.4836 155.143 54.5743 155.143 54.6756C155.143 54.8089 155.194 54.9129 155.295 54.9876C155.402 55.0569 155.543 55.0916 155.719 55.0916H156.799C157.194 55.0916 157.506 55.1903 157.735 55.3876C157.97 55.5796 158.087 55.8329 158.087 56.1476C158.087 56.5209 157.94 56.8143 157.647 57.0276C157.354 57.2463 156.962 57.3556 156.471 57.3556H155.967ZM156.239 54.5076C155.93 54.5076 155.655 54.4489 155.415 54.3316C155.18 54.2089 154.996 54.0409 154.863 53.8276C154.73 53.6089 154.663 53.3609 154.663 53.0836C154.663 52.8009 154.73 52.5529 154.863 52.3396C154.996 52.1263 155.18 51.9609 155.415 51.8436C155.655 51.7209 155.93 51.6596 156.239 51.6596C156.554 51.6596 156.828 51.7209 157.063 51.8436C157.298 51.9609 157.482 52.1263 157.615 52.3396C157.748 52.5529 157.815 52.8009 157.815 53.0836C157.815 53.3609 157.748 53.6089 157.615 53.8276C157.482 54.0409 157.298 54.2089 157.063 54.3316C156.828 54.4489 156.554 54.5076 156.239 54.5076ZM156.239 53.9636C156.538 53.9636 156.778 53.8836 156.959 53.7236C157.146 53.5583 157.239 53.3449 157.239 53.0836C157.239 52.8223 157.146 52.6116 156.959 52.4516C156.778 52.2863 156.538 52.2036 156.239 52.2036C155.94 52.2036 155.698 52.2863 155.511 52.4516C155.33 52.6116 155.239 52.8223 155.239 53.0836C155.239 53.3449 155.33 53.5583 155.511 53.7236C155.698 53.8836 155.94 53.9636 156.239 53.9636ZM157.311 52.2356L156.911 51.9556C156.911 51.7529 156.954 51.5743 157.039 51.4196C157.124 51.2596 157.236 51.1343 157.375 51.0436C157.519 50.9529 157.679 50.9076 157.855 50.9076C157.892 50.9076 157.935 50.9103 157.983 50.9156C158.031 50.9156 158.068 50.9209 158.095 50.9316V51.4916L158.055 51.5796C158.002 51.5636 157.94 51.5556 157.871 51.5556C157.684 51.5556 157.543 51.6196 157.447 51.7476C157.356 51.8703 157.311 52.0329 157.311 52.2356ZM158.811 55.7556V51.7556H159.395V52.9156L159.219 52.7636C159.31 52.4543 159.483 52.2089 159.739 52.0276C160.001 51.8463 160.294 51.7556 160.619 51.7556H161.035V52.3396H160.523C160.305 52.3396 160.11 52.3929 159.939 52.4996C159.774 52.6063 159.643 52.7529 159.547 52.9396C159.457 53.1263 159.411 53.3449 159.411 53.5956V55.7556H158.811ZM162.786 55.8516C162.514 55.8516 162.269 55.7983 162.05 55.6916C161.837 55.5849 161.669 55.4383 161.546 55.2516C161.424 55.0649 161.362 54.8489 161.362 54.6036C161.362 54.2569 161.485 53.9769 161.73 53.7636C161.981 53.5449 162.325 53.4196 162.762 53.3876L164.298 53.2756V53.8356L162.898 53.9396C162.589 53.9609 162.357 54.0276 162.202 54.1396C162.053 54.2516 161.978 54.4063 161.978 54.6036C161.978 54.7956 162.056 54.9556 162.21 55.0836C162.37 55.2063 162.576 55.2676 162.826 55.2676C163.077 55.2676 163.304 55.2116 163.506 55.0996C163.714 54.9823 163.877 54.8276 163.994 54.6356C164.117 54.4383 164.178 54.2196 164.178 53.9796V53.3316C164.178 53.0116 164.08 52.7503 163.882 52.5476C163.69 52.3396 163.429 52.2356 163.098 52.2356C162.848 52.2356 162.632 52.2969 162.45 52.4196C162.269 52.5369 162.141 52.7103 162.066 52.9396H161.978L161.45 52.7476C161.578 52.3903 161.786 52.1183 162.074 51.9316C162.362 51.7449 162.706 51.6516 163.106 51.6516C163.645 51.6516 164.058 51.8143 164.346 52.1396C164.634 52.4596 164.778 52.9156 164.778 53.5076V55.7556H164.194V54.5956L164.402 54.7476C164.338 54.9609 164.226 55.1529 164.066 55.3236C163.906 55.4889 163.717 55.6196 163.498 55.7156C163.28 55.8063 163.042 55.8516 162.786 55.8516ZM167.858 55.8516C167.586 55.8516 167.336 55.7983 167.106 55.6916C166.877 55.5796 166.68 55.4249 166.514 55.2276C166.349 55.0303 166.226 54.8009 166.146 54.5396V52.9716C166.226 52.7049 166.349 52.4756 166.514 52.2836C166.68 52.0863 166.877 51.9343 167.106 51.8276C167.336 51.7156 167.586 51.6596 167.858 51.6596C168.216 51.6596 168.536 51.7503 168.818 51.9316C169.101 52.1129 169.325 52.3609 169.49 52.6756C169.661 52.9903 169.746 53.3503 169.746 53.7556C169.746 54.1609 169.661 54.5209 169.49 54.8356C169.325 55.1503 169.101 55.3983 168.818 55.5796C168.536 55.7609 168.216 55.8516 167.858 55.8516ZM165.858 57.3556V51.7556H166.442V53.2516L166.346 53.7556L166.458 54.2596V57.3556H165.858ZM167.834 55.2676C168.09 55.2676 168.317 55.2036 168.514 55.0756C168.712 54.9476 168.866 54.7716 168.978 54.5476C169.09 54.3183 169.146 54.0543 169.146 53.7556C169.146 53.4569 169.09 53.1956 168.978 52.9716C168.866 52.7423 168.712 52.5636 168.514 52.4356C168.317 52.3076 168.09 52.2436 167.834 52.2436C167.573 52.2436 167.338 52.3076 167.13 52.4356C166.922 52.5636 166.757 52.7423 166.634 52.9716C166.517 53.1956 166.458 53.4569 166.458 53.7556C166.458 54.0543 166.517 54.3183 166.634 54.5476C166.757 54.7716 166.922 54.9476 167.13 55.0756C167.338 55.2036 167.573 55.2676 167.834 55.2676ZM170.664 55.7556V49.9956L171.24 49.9236L171.264 49.9876V52.9156L171.072 52.7636C171.141 52.5396 171.256 52.3449 171.416 52.1796C171.576 52.0143 171.763 51.8863 171.976 51.7956C172.195 51.7049 172.427 51.6596 172.672 51.6596C172.96 51.6596 173.216 51.7209 173.44 51.8436C173.664 51.9663 173.837 52.1476 173.96 52.3876C174.088 52.6276 174.152 52.9263 174.152 53.2836V55.7556H173.552V53.4196C173.552 53.1156 173.507 52.8809 173.416 52.7156C173.325 52.5449 173.203 52.4249 173.048 52.3556C172.899 52.2863 172.728 52.2516 172.536 52.2516C172.317 52.2516 172.109 52.3049 171.912 52.4116C171.72 52.5183 171.563 52.6729 171.44 52.8756C171.323 53.0729 171.264 53.3129 171.264 53.5956V55.7556H170.664ZM176.513 55.8516C176.103 55.8516 175.756 55.7529 175.473 55.5556C175.191 55.3529 175.004 55.0703 174.913 54.7076L175.465 54.5716L175.553 54.5876C175.612 54.8009 175.735 54.9689 175.921 55.0916C176.108 55.2089 176.327 55.2676 176.577 55.2676C176.828 55.2676 177.041 55.2116 177.217 55.0996C177.399 54.9823 177.489 54.8303 177.489 54.6436C177.489 54.4889 177.436 54.3663 177.329 54.2756C177.228 54.1796 177.073 54.1076 176.865 54.0596L176.129 53.8916C175.756 53.8063 175.481 53.6703 175.305 53.4836C175.135 53.2916 175.049 53.0649 175.049 52.8036C175.049 52.5796 175.111 52.3823 175.233 52.2116C175.356 52.0409 175.524 51.9076 175.737 51.8116C175.956 51.7103 176.204 51.6596 176.481 51.6596C176.887 51.6596 177.228 51.7609 177.505 51.9636C177.783 52.1663 177.967 52.4516 178.057 52.8196L177.497 52.9396L177.409 52.9236C177.356 52.7049 177.239 52.5369 177.057 52.4196C176.881 52.3023 176.684 52.2436 176.465 52.2436C176.236 52.2436 176.044 52.2943 175.889 52.3956C175.74 52.4969 175.665 52.6249 175.665 52.7796C175.665 52.9129 175.713 53.0249 175.809 53.1156C175.911 53.2009 176.071 53.2676 176.289 53.3156L177.033 53.4836C177.401 53.5689 177.671 53.7049 177.841 53.8916C178.017 54.0783 178.105 54.3156 178.105 54.6036C178.105 54.8596 178.036 55.0809 177.897 55.2676C177.759 55.4543 177.569 55.5983 177.329 55.6996C177.095 55.8009 176.823 55.8516 176.513 55.8516Z" fill="#B3B3B3"/>
<rect x="214.376" y="30.1775" width="41.006" height="14.7413" rx="2.87065" stroke="#BDBDBD" stroke-width="0.521936"/>
<path d="M224.593 39.0481L223.19 34.6638H223.673L224.982 38.9166L225.038 39.0481H224.593ZM224.593 39.0481L224.618 38.9166L225.802 34.6638H226.297V34.7139L225.038 39.0481H224.593ZM221.825 39.0481L220.566 34.7139V34.6638H221.061L222.245 38.9166L222.27 39.0481H221.825ZM221.825 39.0481L221.881 38.9166L223.19 34.6638H223.673L222.27 39.0481H221.825ZM228.133 39.1233C227.836 39.1233 227.573 39.0544 227.343 38.9166C227.114 38.7788 226.934 38.5867 226.805 38.3404C226.675 38.094 226.611 37.808 226.611 37.4823C226.611 37.1566 226.673 36.8706 226.798 36.6242C226.928 36.3779 227.105 36.1858 227.331 36.048C227.561 35.9102 227.824 35.8413 228.12 35.8413C228.412 35.8413 228.667 35.9123 228.884 36.0543C229.105 36.1921 229.279 36.3883 229.404 36.643C229.529 36.8935 229.592 37.1858 229.592 37.5199V37.5762L229.498 37.6639H226.886V37.2067H229.316L229.11 37.2944C229.093 37.0856 229.039 36.9082 228.947 36.762C228.855 36.6117 228.738 36.4969 228.596 36.4175C228.454 36.3382 228.295 36.2985 228.12 36.2985C227.928 36.2985 227.753 36.3466 227.594 36.4426C227.435 36.5345 227.31 36.666 227.218 36.8372C227.126 37.0084 227.08 37.2067 227.08 37.4322V37.5136C227.08 37.7391 227.124 37.9395 227.212 38.1149C227.304 38.2861 227.429 38.4218 227.588 38.522C227.746 38.618 227.928 38.666 228.133 38.666C228.337 38.666 228.513 38.618 228.659 38.522C228.805 38.4259 228.92 38.2944 229.003 38.1274H229.072L229.467 38.3028C229.35 38.5533 229.174 38.7537 228.941 38.904C228.711 39.0502 228.442 39.1233 228.133 39.1233ZM231.613 39.1233C231.316 39.1233 231.053 39.0544 230.824 38.9166C230.594 38.7788 230.414 38.5867 230.285 38.3404C230.156 38.094 230.091 37.808 230.091 37.4823C230.091 37.1566 230.153 36.8706 230.279 36.6242C230.408 36.3779 230.586 36.1858 230.811 36.048C231.041 35.9102 231.304 35.8413 231.6 35.8413C231.893 35.8413 232.147 35.9123 232.364 36.0543C232.586 36.1921 232.759 36.3883 232.884 36.643C233.009 36.8935 233.072 37.1858 233.072 37.5199V37.5762L232.978 37.6639H230.366V37.2067H232.797L232.59 37.2944C232.573 37.0856 232.519 36.9082 232.427 36.762C232.335 36.6117 232.218 36.4969 232.076 36.4175C231.934 36.3382 231.776 36.2985 231.6 36.2985C231.408 36.2985 231.233 36.3466 231.074 36.4426C230.915 36.5345 230.79 36.666 230.698 36.8372C230.607 37.0084 230.561 37.2067 230.561 37.4322V37.5136C230.561 37.7391 230.604 37.9395 230.692 38.1149C230.784 38.2861 230.909 38.4218 231.068 38.522C231.227 38.618 231.408 38.666 231.613 38.666C231.817 38.666 231.993 38.618 232.139 38.522C232.285 38.4259 232.4 38.2944 232.483 38.1274H232.552L232.947 38.3028C232.83 38.5533 232.655 38.7537 232.421 38.904C232.191 39.0502 231.922 39.1233 231.613 39.1233ZM233.978 38.403V37.7829L235.907 35.9165H236.465V35.9666L233.978 38.403ZM233.79 39.0481V34.5386L234.241 34.4822L234.26 34.5323V39.0481H233.79ZM235.945 39.0481L234.786 37.4134L235.093 37.1002L236.465 38.998V39.0481H235.945Z" fill="#B3B3B3"/>
<path d="M247.96 36.1611L245.693 38.429C245.425 38.6968 244.987 38.6968 244.719 38.429L242.451 36.1611" stroke="#B3B3B3" stroke-width="0.782615" stroke-miterlimit="10" stroke-linecap="round" stroke-linejoin="round"/>
</g>
<defs>
<filter id="filter0_f_0_10511" x="-25.0847" y="18.1099" width="498.814" height="384.422" filterUnits="userSpaceOnUse" color-interpolation-filters="sRGB">
<feFlood flood-opacity="0" result="BackgroundImageFix"/>
<feBlend mode="normal" in="SourceGraphic" in2="BackgroundImageFix" result="shape"/>
<feGaussianBlur stdDeviation="67" result="effect1_foregroundBlur_0_10511"/>
</filter>
<filter id="filter1_f_0_10511" x="-268.085" y="-153.89" width="498.814" height="384.422" filterUnits="userSpaceOnUse" color-interpolation-filters="sRGB">
<feFlood flood-opacity="0" result="BackgroundImageFix"/>
<feBlend mode="normal" in="SourceGraphic" in2="BackgroundImageFix" result="shape"/>
<feGaussianBlur stdDeviation="67" result="effect1_foregroundBlur_0_10511"/>
</filter>
<clipPath id="clip0_0_10511">
<rect x="0.333374" width="329" height="236" rx="11" fill="white"/>
</clipPath>
</defs>
</svg>
