<svg width="330" height="236" viewBox="0 0 330 236" fill="none" xmlns="http://www.w3.org/2000/svg">
<g clip-path="url(#clip0_0_10559)">
<rect x="0.666626" width="329" height="236" rx="11" fill="white"/>
<g filter="url(#filter0_f_0_10559)">
<path d="M325.682 169.287C271.411 96.3959 46.8626 281.402 125.946 244.258C177.292 220.142 181.392 273.49 210.43 263.129C251.582 248.447 274.728 248.951 292.33 268.532C301.206 230.363 369.098 227.599 325.682 169.287Z" fill="#F7DEDB"/>
</g>
<g filter="url(#filter1_f_0_10559)">
<path d="M82.6816 -2.71288C28.4109 -75.6036 -196.137 109.403 -117.054 72.2588C-65.708 48.1427 -61.6082 101.49 -32.5702 91.1299C8.58159 76.4478 31.7285 76.952 49.3303 96.5327C58.2063 58.3631 126.098 55.5997 82.6816 -2.71288Z" fill="#F7DEDB"/>
</g>
<rect x="50.6666" y="20" width="228" height="196.709" rx="10.6597" fill="white"/>
<path d="M66.7565 46.5576V39.5576H67.7565V46.5576H66.7565ZM62.2665 46.5576V39.5576H63.2665V46.5576H62.2665ZM62.7765 43.4376V42.4776H67.3265V43.4376H62.7765ZM71.4382 46.6976C70.9382 46.6976 70.4949 46.5876 70.1082 46.3676C69.7282 46.141 69.4315 45.8276 69.2182 45.4276C69.0049 45.0276 68.8982 44.5643 68.8982 44.0376C68.8982 43.511 69.0015 43.051 69.2082 42.6576C69.4215 42.2576 69.7149 41.9476 70.0882 41.7276C70.4682 41.501 70.9049 41.3876 71.3982 41.3876C71.8849 41.3876 72.3082 41.501 72.6682 41.7276C73.0349 41.9543 73.3182 42.2743 73.5182 42.6876C73.7249 43.0943 73.8282 43.571 73.8282 44.1176V44.2676L73.6782 44.4176H69.4082V43.5376H73.3482L72.8382 43.7376C72.8249 43.4376 72.7515 43.181 72.6182 42.9676C72.4915 42.7543 72.3215 42.591 72.1082 42.4776C71.9015 42.3576 71.6682 42.2976 71.4082 42.2976C71.1282 42.2976 70.8715 42.3643 70.6382 42.4976C70.4049 42.631 70.2215 42.8176 70.0882 43.0576C69.9615 43.291 69.8982 43.5643 69.8982 43.8776V44.1776C69.8982 44.4843 69.9649 44.761 70.0982 45.0076C70.2315 45.2476 70.4149 45.4376 70.6482 45.5776C70.8815 45.7176 71.1449 45.7876 71.4382 45.7876C71.7182 45.7876 71.9649 45.7176 72.1782 45.5776C72.3982 45.431 72.5715 45.2376 72.6982 44.9976H72.8182L73.6282 45.3476C73.4349 45.7676 73.1482 46.0976 72.7682 46.3376C72.3882 46.5776 71.9449 46.6976 71.4382 46.6976ZM76.4315 46.6976C76.0915 46.6976 75.7849 46.631 75.5115 46.4976C75.2449 46.3643 75.0349 46.181 74.8815 45.9476C74.7282 45.7076 74.6515 45.4343 74.6515 45.1276C74.6515 44.6676 74.8115 44.301 75.1315 44.0276C75.4515 43.7476 75.9049 43.5843 76.4915 43.5376L78.4315 43.3776V44.2376L76.6615 44.3776C76.3215 44.4043 76.0715 44.4776 75.9115 44.5976C75.7515 44.7176 75.6715 44.881 75.6715 45.0876C75.6715 45.2876 75.7582 45.4543 75.9315 45.5876C76.1049 45.7143 76.3249 45.7776 76.5915 45.7776C76.8715 45.7776 77.1249 45.711 77.3515 45.5776C77.5849 45.4443 77.7682 45.2676 77.9015 45.0476C78.0349 44.821 78.1015 44.5776 78.1015 44.3176V43.4976C78.1015 43.1443 77.9882 42.8543 77.7615 42.6276C77.5415 42.401 77.2482 42.2876 76.8815 42.2876C76.5749 42.2876 76.3182 42.361 76.1115 42.5076C75.9115 42.6543 75.7782 42.8476 75.7115 43.0876H75.6015L74.7415 42.8476C74.8749 42.401 75.1282 42.0443 75.5015 41.7776C75.8749 41.511 76.3349 41.3776 76.8815 41.3776C77.5815 41.3776 78.1249 41.5843 78.5115 41.9976C78.8982 42.4043 79.0915 42.9776 79.0915 43.7176V46.5576H78.1715V45.0976L78.5315 45.2076C78.4515 45.481 78.3082 45.731 78.1015 45.9576C77.9015 46.1843 77.6582 46.3643 77.3715 46.4976C77.0849 46.631 76.7715 46.6976 76.4315 46.6976ZM82.4798 46.6976C82.0332 46.6976 81.6265 46.5843 81.2598 46.3576C80.8998 46.1243 80.6132 45.811 80.3998 45.4176C80.1865 45.0176 80.0798 44.561 80.0798 44.0476C80.0798 43.5276 80.1865 43.0676 80.3998 42.6676C80.6132 42.2676 80.8998 41.9543 81.2598 41.7276C81.6265 41.501 82.0332 41.3876 82.4798 41.3876C82.8398 41.3876 83.1665 41.461 83.4598 41.6076C83.7532 41.7543 83.9998 41.951 84.1998 42.1976C84.3998 42.4376 84.5432 42.711 84.6298 43.0176V45.0776C84.5432 45.3776 84.3998 45.651 84.1998 45.8976C83.9998 46.1376 83.7532 46.331 83.4598 46.4776C83.1665 46.6243 82.8398 46.6976 82.4798 46.6976ZM82.5998 45.7676C82.9065 45.7676 83.1765 45.6943 83.4098 45.5476C83.6432 45.401 83.8265 45.1976 83.9598 44.9376C84.0932 44.6776 84.1598 44.3776 84.1598 44.0376C84.1598 43.6976 84.0932 43.3976 83.9598 43.1376C83.8265 42.8776 83.6432 42.6776 83.4098 42.5376C83.1765 42.391 82.9065 42.3176 82.5998 42.3176C82.3065 42.3176 82.0432 42.391 81.8098 42.5376C81.5832 42.6776 81.4032 42.8776 81.2698 43.1376C81.1432 43.3976 81.0798 43.6976 81.0798 44.0376C81.0798 44.3776 81.1432 44.6776 81.2698 44.9376C81.4032 45.1976 81.5832 45.401 81.8098 45.5476C82.0432 45.6943 82.3065 45.7676 82.5998 45.7676ZM84.1998 46.5576V44.8776L84.3998 44.0376L84.1498 43.1976V39.3576L85.1198 39.2376L85.1498 39.3176V46.5576H84.1998ZM86.5219 46.5576V41.5276H87.4719V42.8376L87.2719 42.6476C87.3719 42.3876 87.5153 42.1643 87.7019 41.9776C87.8886 41.791 88.1053 41.6476 88.3519 41.5476C88.6053 41.441 88.8786 41.3876 89.1719 41.3876C89.5986 41.3876 89.9719 41.5076 90.2919 41.7476C90.6186 41.9876 90.8353 42.3376 90.9419 42.7976L90.5819 42.7876C90.6819 42.501 90.8319 42.2543 91.0319 42.0476C91.2386 41.8343 91.4819 41.671 91.7619 41.5576C92.0486 41.4443 92.3519 41.3876 92.6719 41.3876C93.0119 41.3876 93.3219 41.4643 93.6019 41.6176C93.8819 41.771 94.1019 42.001 94.2619 42.3076C94.4286 42.6076 94.5119 42.9843 94.5119 43.4376V46.5576H93.5119V43.6776C93.5119 43.3443 93.4619 43.081 93.3619 42.8876C93.2686 42.6876 93.1386 42.5443 92.9719 42.4576C92.8119 42.3643 92.6253 42.3176 92.4119 42.3176C92.2119 42.3176 92.0019 42.3743 91.7819 42.4876C91.5686 42.5943 91.3886 42.7676 91.2419 43.0076C91.0953 43.2476 91.0219 43.5643 91.0219 43.9576V46.5576H90.0219V43.6776C90.0219 43.3443 89.9719 43.081 89.8719 42.8876C89.7719 42.6876 89.6386 42.5443 89.4719 42.4576C89.3119 42.3643 89.1286 42.3176 88.9219 42.3176C88.7153 42.3176 88.5019 42.3743 88.2819 42.4876C88.0686 42.601 87.8886 42.7776 87.7419 43.0176C87.5953 43.251 87.5219 43.5643 87.5219 43.9576V46.5576H86.5219ZM97.3398 46.6976C96.9998 46.6976 96.6931 46.631 96.4198 46.4976C96.1531 46.3643 95.9431 46.181 95.7898 45.9476C95.6364 45.7076 95.5598 45.4343 95.5598 45.1276C95.5598 44.6676 95.7198 44.301 96.0398 44.0276C96.3598 43.7476 96.8131 43.5843 97.3998 43.5376L99.3398 43.3776V44.2376L97.5698 44.3776C97.2298 44.4043 96.9798 44.4776 96.8198 44.5976C96.6598 44.7176 96.5798 44.881 96.5798 45.0876C96.5798 45.2876 96.6664 45.4543 96.8398 45.5876C97.0131 45.7143 97.2331 45.7776 97.4998 45.7776C97.7798 45.7776 98.0331 45.711 98.2598 45.5776C98.4931 45.4443 98.6764 45.2676 98.8098 45.0476C98.9431 44.821 99.0098 44.5776 99.0098 44.3176V43.4976C99.0098 43.1443 98.8964 42.8543 98.6698 42.6276C98.4498 42.401 98.1564 42.2876 97.7898 42.2876C97.4831 42.2876 97.2264 42.361 97.0198 42.5076C96.8198 42.6543 96.6864 42.8476 96.6198 43.0876H96.5098L95.6498 42.8476C95.7831 42.401 96.0364 42.0443 96.4098 41.7776C96.7831 41.511 97.2431 41.3776 97.7898 41.3776C98.4898 41.3776 99.0331 41.5843 99.4198 41.9976C99.8064 42.4043 99.9998 42.9776 99.9998 43.7176V46.5576H99.0798V45.0976L99.4398 45.2076C99.3598 45.481 99.2164 45.731 99.0098 45.9576C98.8098 46.1843 98.5664 46.3643 98.2798 46.4976C97.9931 46.631 97.6798 46.6976 97.3398 46.6976ZM103.938 46.6976C103.578 46.6976 103.251 46.6243 102.958 46.4776C102.665 46.331 102.418 46.1343 102.218 45.8876C102.018 45.641 101.875 45.3676 101.788 45.0676V43.0076C101.875 42.701 102.018 42.4276 102.218 42.1876C102.418 41.941 102.665 41.7476 102.958 41.6076C103.251 41.461 103.578 41.3876 103.938 41.3876C104.391 41.3876 104.798 41.501 105.158 41.7276C105.518 41.9543 105.805 42.2676 106.018 42.6676C106.231 43.0676 106.338 43.5243 106.338 44.0376C106.338 44.551 106.231 45.0076 106.018 45.4076C105.805 45.8076 105.518 46.1243 105.158 46.3576C104.798 46.5843 104.391 46.6976 103.938 46.6976ZM101.268 48.5576V41.5276H102.218V43.1976L102.018 44.0376L102.268 44.8776V48.5576H101.268ZM103.818 45.7676C104.118 45.7676 104.381 45.6943 104.608 45.5476C104.835 45.401 105.011 45.1976 105.138 44.9376C105.271 44.6776 105.338 44.3776 105.338 44.0376C105.338 43.6976 105.271 43.3976 105.138 43.1376C105.011 42.8776 104.835 42.6776 104.608 42.5376C104.381 42.391 104.118 42.3176 103.818 42.3176C103.518 42.3176 103.248 42.391 103.008 42.5376C102.775 42.6776 102.588 42.8776 102.448 43.1376C102.315 43.3976 102.248 43.6976 102.248 44.0376C102.248 44.3776 102.315 44.6776 102.448 44.9376C102.588 45.1976 102.775 45.401 103.008 45.5476C103.248 45.6943 103.518 45.7676 103.818 45.7676ZM109.111 46.6976C108.571 46.6976 108.115 46.571 107.741 46.3176C107.368 46.0576 107.121 45.701 107.001 45.2476L107.911 45.0176L108.031 45.0476C108.098 45.281 108.235 45.4643 108.441 45.5976C108.655 45.7243 108.901 45.7876 109.181 45.7876C109.455 45.7876 109.688 45.7276 109.881 45.6076C110.075 45.4876 110.171 45.3276 110.171 45.1276C110.171 44.961 110.115 44.831 110.001 44.7376C109.888 44.6376 109.718 44.561 109.491 44.5076L108.551 44.2976C108.078 44.191 107.725 44.0176 107.491 43.7776C107.258 43.531 107.141 43.2343 107.141 42.8876C107.141 42.5876 107.225 42.3276 107.391 42.1076C107.558 41.881 107.785 41.7043 108.071 41.5776C108.365 41.451 108.695 41.3876 109.061 41.3876C109.581 41.3876 110.021 41.5176 110.381 41.7776C110.741 42.031 110.978 42.391 111.091 42.8576L110.211 43.0476L110.101 43.0276C110.041 42.801 109.908 42.6243 109.701 42.4976C109.501 42.3643 109.275 42.2976 109.021 42.2976C108.775 42.2976 108.565 42.351 108.391 42.4576C108.225 42.5576 108.141 42.691 108.141 42.8576C108.141 42.991 108.195 43.1076 108.301 43.2076C108.408 43.301 108.571 43.371 108.791 43.4176L109.741 43.6376C110.221 43.7443 110.578 43.9143 110.811 44.1476C111.051 44.381 111.171 44.6876 111.171 45.0676C111.171 45.401 111.081 45.691 110.901 45.9376C110.728 46.1776 110.485 46.3643 110.171 46.4976C109.865 46.631 109.511 46.6976 109.111 46.6976Z" fill="#0C0B0B"/>
<path d="M64.0425 63.0096C63.6745 63.0096 63.3385 62.9402 63.0345 62.8016C62.7305 62.6629 62.4771 62.4709 62.2745 62.2256C62.0718 61.9749 61.9358 61.6842 61.8665 61.3536L62.4185 61.2176L62.5065 61.2336C62.5651 61.4576 62.6691 61.6602 62.8185 61.8416C62.9678 62.0176 63.1465 62.1589 63.3545 62.2656C63.5678 62.3722 63.7945 62.4256 64.0345 62.4256C64.2958 62.4256 64.5251 62.3829 64.7225 62.2976C64.9251 62.2122 65.0825 62.0949 65.1945 61.9456C65.3118 61.7909 65.3705 61.6149 65.3705 61.4176C65.3705 61.1509 65.2958 60.9482 65.1465 60.8096C64.9971 60.6656 64.7945 60.5589 64.5385 60.4896L63.4425 60.1856C63.0105 60.0629 62.6825 59.8709 62.4585 59.6096C62.2345 59.3482 62.1225 59.0469 62.1225 58.7056C62.1225 58.4122 62.1971 58.1562 62.3465 57.9376C62.5011 57.7136 62.7145 57.5376 62.9865 57.4096C63.2585 57.2816 63.5705 57.2176 63.9225 57.2176C64.2691 57.2176 64.5811 57.2842 64.8585 57.4176C65.1411 57.5456 65.3731 57.7269 65.5545 57.9616C65.7411 58.1962 65.8638 58.4709 65.9225 58.7856L65.3625 58.9056L65.2745 58.8896C65.2051 58.5589 65.0478 58.2949 64.8025 58.0976C64.5571 57.9002 64.2638 57.8016 63.9225 57.8016C63.5705 57.8016 63.2878 57.8842 63.0745 58.0496C62.8665 58.2149 62.7625 58.4362 62.7625 58.7136C62.7625 58.9322 62.8371 59.1136 62.9865 59.2576C63.1358 59.4016 63.3518 59.5136 63.6345 59.5936L64.7305 59.8976C65.1358 60.0096 65.4505 60.1936 65.6745 60.4496C65.8985 60.7002 66.0105 61.0122 66.0105 61.3856C66.0105 61.7109 65.9278 61.9962 65.7625 62.2416C65.6025 62.4816 65.3731 62.6709 65.0745 62.8096C64.7811 62.9429 64.4371 63.0096 64.0425 63.0096ZM68.2367 63.0096C67.9647 63.0096 67.7194 62.9562 67.5007 62.8496C67.2874 62.7429 67.1194 62.5962 66.9967 62.4096C66.8741 62.2229 66.8127 62.0069 66.8127 61.7616C66.8127 61.4149 66.9354 61.1349 67.1807 60.9216C67.4314 60.7029 67.7754 60.5776 68.2127 60.5456L69.7487 60.4336V60.9936L68.3487 61.0976C68.0394 61.1189 67.8074 61.1856 67.6527 61.2976C67.5034 61.4096 67.4287 61.5642 67.4287 61.7616C67.4287 61.9536 67.5061 62.1136 67.6607 62.2416C67.8207 62.3642 68.0261 62.4256 68.2767 62.4256C68.5274 62.4256 68.7541 62.3696 68.9567 62.2576C69.1647 62.1402 69.3274 61.9856 69.4447 61.7936C69.5674 61.5962 69.6287 61.3776 69.6287 61.1376V60.4896C69.6287 60.1696 69.5301 59.9082 69.3327 59.7056C69.1407 59.4976 68.8794 59.3936 68.5487 59.3936C68.2981 59.3936 68.0821 59.4549 67.9007 59.5776C67.7194 59.6949 67.5914 59.8682 67.5167 60.0976H67.4287L66.9007 59.9056C67.0287 59.5482 67.2367 59.2762 67.5247 59.0896C67.8127 58.9029 68.1567 58.8096 68.5567 58.8096C69.0954 58.8096 69.5087 58.9722 69.7967 59.2976C70.0847 59.6176 70.2287 60.0736 70.2287 60.6656V62.9136H69.6447V61.7536L69.8527 61.9056C69.7887 62.1189 69.6767 62.3109 69.5167 62.4816C69.3567 62.6469 69.1674 62.7776 68.9487 62.8736C68.7301 62.9642 68.4927 63.0096 68.2367 63.0096ZM71.4268 62.9136V57.1536L72.0028 57.0816L72.0268 57.1456V62.9136H71.4268ZM74.8877 63.0096C74.509 63.0096 74.173 62.9216 73.8797 62.7456C73.5863 62.5696 73.357 62.3242 73.1917 62.0096C73.0263 61.6949 72.9437 61.3296 72.9437 60.9136C72.9437 60.4976 73.0237 60.1322 73.1837 59.8176C73.349 59.5029 73.5757 59.2576 73.8637 59.0816C74.157 58.9056 74.493 58.8176 74.8717 58.8176C75.245 58.8176 75.5703 58.9082 75.8477 59.0896C76.1303 59.2656 76.3517 59.5162 76.5117 59.8416C76.6717 60.1616 76.7517 60.5349 76.7517 60.9616V61.0336L76.6317 61.1456H73.2957V60.5616H76.3997L76.1357 60.6736C76.1143 60.4069 76.045 60.1802 75.9277 59.9936C75.8103 59.8016 75.661 59.6549 75.4797 59.5536C75.2983 59.4522 75.0957 59.4016 74.8717 59.4016C74.6263 59.4016 74.4023 59.4629 74.1997 59.5856C73.997 59.7029 73.837 59.8709 73.7197 60.0896C73.6023 60.3082 73.5437 60.5616 73.5437 60.8496V60.9536C73.5437 61.2416 73.5997 61.4976 73.7117 61.7216C73.829 61.9402 73.989 62.1136 74.1917 62.2416C74.3943 62.3642 74.6263 62.4256 74.8877 62.4256C75.149 62.4256 75.373 62.3642 75.5597 62.2416C75.7463 62.1189 75.893 61.9509 75.9997 61.7376H76.0877L76.5917 61.9616C76.4423 62.2816 76.2183 62.5376 75.9197 62.7296C75.6263 62.9162 75.2823 63.0096 74.8877 63.0096ZM78.909 63.0096C78.4983 63.0096 78.1516 62.9109 77.869 62.7136C77.5863 62.5109 77.3996 62.2282 77.309 61.8656L77.861 61.7296L77.949 61.7456C78.0076 61.9589 78.1303 62.1269 78.317 62.2496C78.5036 62.3669 78.7223 62.4256 78.973 62.4256C79.2236 62.4256 79.437 62.3696 79.613 62.2576C79.7943 62.1402 79.885 61.9882 79.885 61.8016C79.885 61.6469 79.8316 61.5242 79.725 61.4336C79.6236 61.3376 79.469 61.2656 79.261 61.2176L78.525 61.0496C78.1516 60.9642 77.877 60.8282 77.701 60.6416C77.5303 60.4496 77.445 60.2229 77.445 59.9616C77.445 59.7376 77.5063 59.5402 77.629 59.3696C77.7516 59.1989 77.9196 59.0656 78.133 58.9696C78.3516 58.8682 78.5996 58.8176 78.877 58.8176C79.2823 58.8176 79.6236 58.9189 79.901 59.1216C80.1783 59.3242 80.3623 59.6096 80.453 59.9776L79.893 60.0976L79.805 60.0816C79.7516 59.8629 79.6343 59.6949 79.453 59.5776C79.277 59.4602 79.0796 59.4016 78.861 59.4016C78.6316 59.4016 78.4396 59.4522 78.285 59.5536C78.1356 59.6549 78.061 59.7829 78.061 59.9376C78.061 60.0709 78.109 60.1829 78.205 60.2736C78.3063 60.3589 78.4663 60.4256 78.685 60.4736L79.429 60.6416C79.797 60.7269 80.0663 60.8629 80.237 61.0496C80.413 61.2362 80.501 61.4736 80.501 61.7616C80.501 62.0176 80.4316 62.2389 80.293 62.4256C80.1543 62.6122 79.965 62.7562 79.725 62.8576C79.4903 62.9589 79.2183 63.0096 78.909 63.0096ZM83.1299 62.9136V57.1536L83.7059 57.0816L83.7299 57.1456V60.0736L83.5379 59.9216C83.6072 59.6976 83.7219 59.5029 83.8819 59.3376C84.0419 59.1722 84.2286 59.0442 84.4419 58.9536C84.6606 58.8629 84.8926 58.8176 85.1379 58.8176C85.4259 58.8176 85.6819 58.8789 85.9059 59.0016C86.1299 59.1242 86.3032 59.3056 86.4259 59.5456C86.5539 59.7856 86.6179 60.0842 86.6179 60.4416V62.9136H86.0179V60.5776C86.0179 60.2736 85.9726 60.0389 85.8819 59.8736C85.7912 59.7029 85.6686 59.5829 85.5139 59.5136C85.3646 59.4442 85.1939 59.4096 85.0019 59.4096C84.7832 59.4096 84.5752 59.4629 84.3779 59.5696C84.1859 59.6762 84.0286 59.8309 83.9059 60.0336C83.7886 60.2309 83.7299 60.4709 83.7299 60.7536V62.9136H83.1299ZM89.4033 63.0096C89.0246 63.0096 88.6886 62.9216 88.3953 62.7456C88.1019 62.5696 87.8726 62.3242 87.7073 62.0096C87.5419 61.6949 87.4593 61.3296 87.4593 60.9136C87.4593 60.4976 87.5393 60.1322 87.6993 59.8176C87.8646 59.5029 88.0913 59.2576 88.3793 59.0816C88.6726 58.9056 89.0086 58.8176 89.3873 58.8176C89.7606 58.8176 90.0859 58.9082 90.3633 59.0896C90.6459 59.2656 90.8673 59.5162 91.0273 59.8416C91.1873 60.1616 91.2673 60.5349 91.2673 60.9616V61.0336L91.1473 61.1456H87.8113V60.5616H90.9153L90.6513 60.6736C90.6299 60.4069 90.5606 60.1802 90.4433 59.9936C90.3259 59.8016 90.1766 59.6549 89.9953 59.5536C89.8139 59.4522 89.6113 59.4016 89.3873 59.4016C89.1419 59.4016 88.9179 59.4629 88.7153 59.5856C88.5126 59.7029 88.3526 59.8709 88.2353 60.0896C88.1179 60.3082 88.0593 60.5616 88.0593 60.8496V60.9536C88.0593 61.2416 88.1153 61.4976 88.2273 61.7216C88.3446 61.9402 88.5046 62.1136 88.7073 62.2416C88.9099 62.3642 89.1419 62.4256 89.4033 62.4256C89.6646 62.4256 89.8886 62.3642 90.0753 62.2416C90.2619 62.1189 90.4086 61.9509 90.5153 61.7376H90.6033L91.1073 61.9616C90.9579 62.2816 90.7339 62.5376 90.4353 62.7296C90.1419 62.9162 89.7979 63.0096 89.4033 63.0096ZM93.4086 63.0096C93.1366 63.0096 92.8913 62.9562 92.6726 62.8496C92.4593 62.7429 92.2913 62.5962 92.1686 62.4096C92.0459 62.2229 91.9846 62.0069 91.9846 61.7616C91.9846 61.4149 92.1073 61.1349 92.3526 60.9216C92.6033 60.7029 92.9473 60.5776 93.3846 60.5456L94.9206 60.4336V60.9936L93.5206 61.0976C93.2113 61.1189 92.9793 61.1856 92.8246 61.2976C92.6753 61.4096 92.6006 61.5642 92.6006 61.7616C92.6006 61.9536 92.6779 62.1136 92.8326 62.2416C92.9926 62.3642 93.1979 62.4256 93.4486 62.4256C93.6993 62.4256 93.9259 62.3696 94.1286 62.2576C94.3366 62.1402 94.4993 61.9856 94.6166 61.7936C94.7393 61.5962 94.8006 61.3776 94.8006 61.1376V60.4896C94.8006 60.1696 94.7019 59.9082 94.5046 59.7056C94.3126 59.4976 94.0513 59.3936 93.7206 59.3936C93.4699 59.3936 93.2539 59.4549 93.0726 59.5776C92.8913 59.6949 92.7633 59.8682 92.6886 60.0976H92.6006L92.0726 59.9056C92.2006 59.5482 92.4086 59.2762 92.6966 59.0896C92.9846 58.9029 93.3286 58.8096 93.7286 58.8096C94.2673 58.8096 94.6806 58.9722 94.9686 59.2976C95.2566 59.6176 95.4006 60.0736 95.4006 60.6656V62.9136H94.8166V61.7536L95.0246 61.9056C94.9606 62.1189 94.8486 62.3109 94.6886 62.4816C94.5286 62.6469 94.3393 62.7776 94.1206 62.8736C93.9019 62.9642 93.6646 63.0096 93.4086 63.0096ZM98.1285 63.0096C97.7765 63.0096 97.4565 62.9189 97.1685 62.7376C96.8859 62.5562 96.6592 62.3082 96.4885 61.9936C96.3232 61.6789 96.2405 61.3189 96.2405 60.9136C96.2405 60.5082 96.3232 60.1482 96.4885 59.8336C96.6592 59.5189 96.8859 59.2709 97.1685 59.0896C97.4565 58.9082 97.7765 58.8176 98.1285 58.8176C98.4005 58.8176 98.6512 58.8736 98.8805 58.9856C99.1099 59.0922 99.3072 59.2442 99.4725 59.4416C99.6379 59.6336 99.7605 59.8629 99.8405 60.1296V61.6976C99.7605 61.9589 99.6379 62.1882 99.4725 62.3856C99.3072 62.5829 99.1099 62.7376 98.8805 62.8496C98.6512 62.9562 98.4005 63.0096 98.1285 63.0096ZM98.1525 62.4256C98.4192 62.4256 98.6539 62.3616 98.8565 62.2336C99.0645 62.1056 99.2272 61.9296 99.3445 61.7056C99.4672 61.4762 99.5285 61.2122 99.5285 60.9136C99.5285 60.6149 99.4672 60.3536 99.3445 60.1296C99.2272 59.9002 99.0645 59.7216 98.8565 59.5936C98.6539 59.4656 98.4192 59.4016 98.1525 59.4016C97.9019 59.4016 97.6752 59.4656 97.4725 59.5936C97.2752 59.7216 97.1205 59.9002 97.0085 60.1296C96.8965 60.3536 96.8405 60.6149 96.8405 60.9136C96.8405 61.2122 96.8965 61.4762 97.0085 61.7056C97.1205 61.9296 97.2752 62.1056 97.4725 62.2336C97.6752 62.3616 97.9019 62.4256 98.1525 62.4256ZM99.5445 62.9136V61.4176L99.6405 60.9136L99.5285 60.4096V57.1536L100.105 57.0816L100.129 57.1456V62.9136H99.5445ZM101.285 62.9136V58.9136H101.869V60.0736L101.693 59.9216C101.763 59.6976 101.877 59.5029 102.037 59.3376C102.197 59.1722 102.384 59.0442 102.597 58.9536C102.811 58.8629 103.029 58.8176 103.253 58.8176C103.605 58.8176 103.907 58.9189 104.157 59.1216C104.413 59.3189 104.579 59.6069 104.653 59.9856H104.381C104.445 59.7509 104.557 59.5482 104.717 59.3776C104.877 59.2016 105.072 59.0656 105.301 58.9696C105.536 58.8682 105.789 58.8176 106.061 58.8176C106.339 58.8176 106.584 58.8789 106.797 59.0016C107.016 59.1242 107.187 59.3056 107.309 59.5456C107.437 59.7856 107.501 60.0842 107.501 60.4416V62.9136H106.901V60.5776C106.901 60.2736 106.856 60.0389 106.765 59.8736C106.675 59.7029 106.555 59.5829 106.405 59.5136C106.261 59.4442 106.101 59.4096 105.925 59.4096C105.733 59.4096 105.541 59.4602 105.349 59.5616C105.163 59.6629 105.005 59.8149 104.877 60.0176C104.755 60.2149 104.693 60.4602 104.693 60.7536V62.9136H104.093V60.5776C104.093 60.2736 104.048 60.0389 103.957 59.8736C103.867 59.7029 103.747 59.5829 103.597 59.5136C103.453 59.4442 103.293 59.4096 103.117 59.4096C102.925 59.4096 102.733 59.4629 102.541 59.5696C102.355 59.6709 102.197 59.8229 102.069 60.0256C101.947 60.2229 101.885 60.4656 101.885 60.7536V62.9136H101.285ZM109.846 63.0096C109.574 63.0096 109.329 62.9562 109.11 62.8496C108.897 62.7429 108.729 62.5962 108.606 62.4096C108.483 62.2229 108.422 62.0069 108.422 61.7616C108.422 61.4149 108.545 61.1349 108.79 60.9216C109.041 60.7029 109.385 60.5776 109.822 60.5456L111.358 60.4336V60.9936L109.958 61.0976C109.649 61.1189 109.417 61.1856 109.262 61.2976C109.113 61.4096 109.038 61.5642 109.038 61.7616C109.038 61.9536 109.115 62.1136 109.27 62.2416C109.43 62.3642 109.635 62.4256 109.886 62.4256C110.137 62.4256 110.363 62.3696 110.566 62.2576C110.774 62.1402 110.937 61.9856 111.054 61.7936C111.177 61.5962 111.238 61.3776 111.238 61.1376V60.4896C111.238 60.1696 111.139 59.9082 110.942 59.7056C110.75 59.4976 110.489 59.3936 110.158 59.3936C109.907 59.3936 109.691 59.4549 109.51 59.5776C109.329 59.6949 109.201 59.8682 109.126 60.0976H109.038L108.51 59.9056C108.638 59.5482 108.846 59.2762 109.134 59.0896C109.422 58.9029 109.766 58.8096 110.166 58.8096C110.705 58.8096 111.118 58.9722 111.406 59.2976C111.694 59.6176 111.838 60.0736 111.838 60.6656V62.9136H111.254V61.7536L111.462 61.9056C111.398 62.1189 111.286 62.3109 111.126 62.4816C110.966 62.6469 110.777 62.7776 110.558 62.8736C110.339 62.9642 110.102 63.0096 109.846 63.0096ZM114.918 63.0096C114.646 63.0096 114.395 62.9562 114.166 62.8496C113.937 62.7376 113.739 62.5829 113.574 62.3856C113.409 62.1882 113.286 61.9589 113.206 61.6976V60.1296C113.286 59.8629 113.409 59.6336 113.574 59.4416C113.739 59.2442 113.937 59.0922 114.166 58.9856C114.395 58.8736 114.646 58.8176 114.918 58.8176C115.275 58.8176 115.595 58.9082 115.878 59.0896C116.161 59.2709 116.385 59.5189 116.55 59.8336C116.721 60.1482 116.806 60.5082 116.806 60.9136C116.806 61.3189 116.721 61.6789 116.55 61.9936C116.385 62.3082 116.161 62.5562 115.878 62.7376C115.595 62.9189 115.275 63.0096 114.918 63.0096ZM112.918 64.5136V58.9136H113.502V60.4096L113.406 60.9136L113.518 61.4176V64.5136H112.918ZM114.894 62.4256C115.15 62.4256 115.377 62.3616 115.574 62.2336C115.771 62.1056 115.926 61.9296 116.038 61.7056C116.15 61.4762 116.206 61.2122 116.206 60.9136C116.206 60.6149 116.15 60.3536 116.038 60.1296C115.926 59.9002 115.771 59.7216 115.574 59.5936C115.377 59.4656 115.15 59.4016 114.894 59.4016C114.633 59.4016 114.398 59.4656 114.19 59.5936C113.982 59.7216 113.817 59.9002 113.694 60.1296C113.577 60.3536 113.518 60.6149 113.518 60.9136C113.518 61.2122 113.577 61.4762 113.694 61.7056C113.817 61.9296 113.982 62.1056 114.19 62.2336C114.398 62.3616 114.633 62.4256 114.894 62.4256ZM118.964 63.0096C118.553 63.0096 118.206 62.9109 117.924 62.7136C117.641 62.5109 117.454 62.2282 117.364 61.8656L117.916 61.7296L118.004 61.7456C118.062 61.9589 118.185 62.1269 118.372 62.2496C118.558 62.3669 118.777 62.4256 119.028 62.4256C119.278 62.4256 119.492 62.3696 119.668 62.2576C119.849 62.1402 119.94 61.9882 119.94 61.8016C119.94 61.6469 119.886 61.5242 119.78 61.4336C119.678 61.3376 119.524 61.2656 119.316 61.2176L118.58 61.0496C118.206 60.9642 117.932 60.8282 117.756 60.6416C117.585 60.4496 117.5 60.2229 117.5 59.9616C117.5 59.7376 117.561 59.5402 117.684 59.3696C117.806 59.1989 117.974 59.0656 118.188 58.9696C118.406 58.8682 118.654 58.8176 118.932 58.8176C119.337 58.8176 119.678 58.9189 119.956 59.1216C120.233 59.3242 120.417 59.6096 120.508 59.9776L119.948 60.0976L119.86 60.0816C119.806 59.8629 119.689 59.6949 119.508 59.5776C119.332 59.4602 119.134 59.4016 118.916 59.4016C118.686 59.4016 118.494 59.4522 118.34 59.5536C118.19 59.6549 118.116 59.7829 118.116 59.9376C118.116 60.0709 118.164 60.1829 118.26 60.2736C118.361 60.3589 118.521 60.4256 118.74 60.4736L119.484 60.6416C119.852 60.7269 120.121 60.8629 120.292 61.0496C120.468 61.2362 120.556 61.4736 120.556 61.7616C120.556 62.0176 120.486 62.2389 120.348 62.4256C120.209 62.6122 120.02 62.7562 119.78 62.8576C119.545 62.9589 119.273 63.0096 118.964 63.0096ZM123.145 62.9136V58.9136H123.729V60.0736L123.553 59.9216C123.643 59.6122 123.817 59.3669 124.073 59.1856C124.334 59.0042 124.627 58.9136 124.953 58.9136H125.369V59.4976H124.857C124.638 59.4976 124.443 59.5509 124.273 59.6576C124.107 59.7642 123.977 59.9109 123.881 60.0976C123.79 60.2842 123.745 60.5029 123.745 60.7536V62.9136H123.145ZM127.56 63.0096C127.181 63.0096 126.845 62.9216 126.552 62.7456C126.258 62.5696 126.029 62.3242 125.864 62.0096C125.698 61.6949 125.616 61.3296 125.616 60.9136C125.616 60.4976 125.696 60.1322 125.856 59.8176C126.021 59.5029 126.248 59.2576 126.536 59.0816C126.829 58.9056 127.165 58.8176 127.544 58.8176C127.917 58.8176 128.242 58.9082 128.52 59.0896C128.802 59.2656 129.024 59.5162 129.184 59.8416C129.344 60.1616 129.424 60.5349 129.424 60.9616V61.0336L129.304 61.1456H125.968V60.5616H129.072L128.808 60.6736C128.786 60.4069 128.717 60.1802 128.6 59.9936C128.482 59.8016 128.333 59.6549 128.152 59.5536C127.97 59.4522 127.768 59.4016 127.544 59.4016C127.298 59.4016 127.074 59.4629 126.872 59.5856C126.669 59.7029 126.509 59.8709 126.392 60.0896C126.274 60.3082 126.216 60.5616 126.216 60.8496V60.9536C126.216 61.2416 126.272 61.4976 126.384 61.7216C126.501 61.9402 126.661 62.1136 126.864 62.2416C127.066 62.3642 127.298 62.4256 127.56 62.4256C127.821 62.4256 128.045 62.3642 128.232 62.2416C128.418 62.1189 128.565 61.9509 128.672 61.7376H128.76L129.264 61.9616C129.114 62.2816 128.89 62.5376 128.592 62.7296C128.298 62.9162 127.954 63.0096 127.56 63.0096ZM132.301 63.0096C132.029 63.0096 131.778 62.9562 131.549 62.8496C131.32 62.7376 131.122 62.5829 130.957 62.3856C130.792 62.1882 130.669 61.9589 130.589 61.6976V60.1296C130.669 59.8629 130.792 59.6336 130.957 59.4416C131.122 59.2442 131.32 59.0922 131.549 58.9856C131.778 58.8736 132.029 58.8176 132.301 58.8176C132.658 58.8176 132.978 58.9082 133.261 59.0896C133.544 59.2709 133.768 59.5189 133.933 59.8336C134.104 60.1482 134.189 60.5082 134.189 60.9136C134.189 61.3189 134.104 61.6789 133.933 61.9936C133.768 62.3082 133.544 62.5562 133.261 62.7376C132.978 62.9189 132.658 63.0096 132.301 63.0096ZM130.301 64.5136V58.9136H130.885V60.4096L130.789 60.9136L130.901 61.4176V64.5136H130.301ZM132.277 62.4256C132.533 62.4256 132.76 62.3616 132.957 62.2336C133.154 62.1056 133.309 61.9296 133.421 61.7056C133.533 61.4762 133.589 61.2122 133.589 60.9136C133.589 60.6149 133.533 60.3536 133.421 60.1296C133.309 59.9002 133.154 59.7216 132.957 59.5936C132.76 59.4656 132.533 59.4016 132.277 59.4016C132.016 59.4016 131.781 59.4656 131.573 59.5936C131.365 59.7216 131.2 59.9002 131.077 60.1296C130.96 60.3536 130.901 60.6149 130.901 60.9136C130.901 61.2122 130.96 61.4762 131.077 61.7056C131.2 61.9296 131.365 62.1056 131.573 62.2336C131.781 62.3616 132.016 62.4256 132.277 62.4256ZM136.794 63.0096C136.41 63.0096 136.069 62.9216 135.77 62.7456C135.477 62.5696 135.245 62.3242 135.074 62.0096C134.909 61.6949 134.826 61.3296 134.826 60.9136C134.826 60.4976 134.909 60.1322 135.074 59.8176C135.245 59.5029 135.477 59.2576 135.77 59.0816C136.069 58.9056 136.41 58.8176 136.794 58.8176C137.184 58.8176 137.525 58.9056 137.818 59.0816C138.112 59.2576 138.341 59.5029 138.506 59.8176C138.677 60.1322 138.762 60.4976 138.762 60.9136C138.762 61.3296 138.677 61.6949 138.506 62.0096C138.341 62.3242 138.112 62.5696 137.818 62.7456C137.525 62.9216 137.184 63.0096 136.794 63.0096ZM136.794 62.4256C137.061 62.4256 137.296 62.3642 137.498 62.2416C137.706 62.1136 137.869 61.9376 137.986 61.7136C138.104 61.4842 138.162 61.2176 138.162 60.9136C138.162 60.6042 138.104 60.3376 137.986 60.1136C137.869 59.8896 137.706 59.7162 137.498 59.5936C137.296 59.4656 137.061 59.4016 136.794 59.4016C136.528 59.4016 136.29 59.4656 136.082 59.5936C135.88 59.7162 135.72 59.8896 135.602 60.1136C135.485 60.3376 135.426 60.6042 135.426 60.9136C135.426 61.2176 135.485 61.4842 135.602 61.7136C135.72 61.9376 135.88 62.1136 136.082 62.2416C136.29 62.3642 136.528 62.4256 136.794 62.4256ZM139.645 62.9136V58.9136H140.229V60.0736L140.053 59.9216C140.143 59.6122 140.317 59.3669 140.573 59.1856C140.834 59.0042 141.127 58.9136 141.453 58.9136H141.869V59.4976H141.357C141.138 59.4976 140.943 59.5509 140.773 59.6576C140.607 59.7642 140.477 59.9109 140.381 60.0976C140.29 60.2842 140.245 60.5029 140.245 60.7536V62.9136H139.645ZM143.976 62.9136C143.645 62.9136 143.373 62.8069 143.16 62.5936C142.946 62.3802 142.84 62.0922 142.84 61.7296V57.8256H143.44V61.6896C143.44 61.9242 143.488 62.0896 143.584 62.1856C143.685 62.2816 143.85 62.3296 144.08 62.3296H144.576L144.616 62.4176V62.9136H143.976ZM142.152 59.4976V58.9136H144.616V59.4976H142.152Z" fill="#B3B3B3"/>
<rect x="61.5065" y="79.334" width="32.0917" height="32.0917" fill="#F8F8F8"/>
<rect x="96.2727" y="79.334" width="32.0917" height="32.0917" fill="#FFDBE6"/>
<rect x="131.039" y="79.334" width="32.0917" height="32.0917" fill="#F8B2C7"/>
<rect x="165.805" y="79.334" width="32.0917" height="32.0917" fill="#F8B2C7"/>
<rect x="200.571" y="79.334" width="32.0917" height="32.0917" fill="#FFEAF0"/>
<rect x="235.335" y="79.334" width="32.0917" height="32.0917" fill="#F8F8F8"/>
<rect x="61.5065" y="118.47" width="32.0917" height="32.0917" fill="#F8F8F8"/>
<rect x="96.2727" y="118.47" width="32.0917" height="32.0917" fill="#FFEAF0"/>
<rect x="131.039" y="118.47" width="32.0917" height="32.0917" fill="#89016F"/>
<rect x="165.805" y="118.47" width="32.0917" height="32.0917" fill="#89016F"/>
<rect x="200.571" y="118.47" width="32.0917" height="32.0917" fill="#89016F"/>
<rect x="235.335" y="118.47" width="32.0917" height="32.0917" fill="#FFEAF0"/>
<rect x="61.5065" y="157.607" width="32.0917" height="32.0917" fill="#F8F8F8"/>
<rect x="96.2727" y="157.607" width="32.0917" height="32.0917" fill="#F8F8F8"/>
<rect x="131.039" y="157.607" width="32.0917" height="32.0917" fill="#FFEAF0"/>
<rect x="165.805" y="157.607" width="32.0917" height="32.0917" fill="#89016F"/>
<rect x="200.571" y="157.607" width="32.0917" height="32.0917" fill="#FFEAF0"/>
<rect x="235.335" y="157.607" width="32.0917" height="32.0917" fill="#F8F8F8"/>
</g>
<defs>
<filter id="filter0_f_0_10559" x="-24.7515" y="18.1099" width="498.814" height="384.422" filterUnits="userSpaceOnUse" color-interpolation-filters="sRGB">
<feFlood flood-opacity="0" result="BackgroundImageFix"/>
<feBlend mode="normal" in="SourceGraphic" in2="BackgroundImageFix" result="shape"/>
<feGaussianBlur stdDeviation="67" result="effect1_foregroundBlur_0_10559"/>
</filter>
<filter id="filter1_f_0_10559" x="-267.751" y="-153.89" width="498.814" height="384.422" filterUnits="userSpaceOnUse" color-interpolation-filters="sRGB">
<feFlood flood-opacity="0" result="BackgroundImageFix"/>
<feBlend mode="normal" in="SourceGraphic" in2="BackgroundImageFix" result="shape"/>
<feGaussianBlur stdDeviation="67" result="effect1_foregroundBlur_0_10559"/>
</filter>
<clipPath id="clip0_0_10559">
<rect x="0.666626" width="329" height="236" rx="11" fill="white"/>
</clipPath>
</defs>
</svg>
