<svg width="20" height="20" viewBox="0 0 20 20" fill="none" xmlns="http://www.w3.org/2000/svg">
<g id="checkmark-badge-01">
<path id="Vector" d="M15.8267 15.8332H15.8346M15.8267 15.8332C15.3078 16.3478 14.3674 16.2196 13.7079 16.2196C12.8984 16.2196 12.5086 16.3779 11.9308 16.9557C11.4389 17.4477 10.7794 18.3332 10.0013 18.3332C9.22322 18.3332 8.56372 17.4477 8.07178 16.9557C7.49404 16.3779 7.10421 16.2196 6.29469 16.2196C5.6352 16.2196 4.69479 16.3478 4.17588 15.8332C3.65281 15.3145 3.78154 14.3702 3.78154 13.7064C3.78154 12.8677 3.5981 12.482 3.00079 11.8847C2.11225 10.9962 1.66799 10.5518 1.66797 9.99984C1.66798 9.44775 2.11224 9.0035 3.00076 8.11498C3.53397 7.58177 3.78154 7.0534 3.78154 6.29322C3.78154 5.63371 3.65338 4.69329 4.16797 4.17437C4.68666 3.65132 5.63097 3.78005 6.2947 3.78005C7.05486 3.78005 7.58323 3.5325 8.11643 2.99931C9.00497 2.11077 9.44922 1.6665 10.0013 1.6665C10.5534 1.6665 10.9976 2.11077 11.8861 2.99931C12.4192 3.5324 12.9476 3.78005 13.7079 3.78005C14.3674 3.78005 15.3079 3.6519 15.8268 4.1665C16.3498 4.6852 16.2211 5.6295 16.2211 6.29322C16.2211 7.13199 16.4046 7.51765 17.0018 8.11498C17.8904 9.0035 18.3346 9.44775 18.3346 9.99984C18.3346 10.5518 17.8904 10.9962 17.0018 11.8847C16.4045 12.482 16.2211 12.8677 16.2211 13.7064C16.2211 14.3702 16.3498 15.3145 15.8267 15.8332Z" stroke="#FF2C20" stroke-width="1.5"/>
<path id="Vector_2" d="M7.5 10.7442C7.5 10.7442 8.5 11.2873 9 12.0834C9 12.0834 10.5 8.95841 12.5 7.91675" stroke="#FF2C20" stroke-width="1.5" stroke-linecap="round" stroke-linejoin="round"/>
</g>
</svg>
