<svg width="21" height="21" viewBox="0 0 21 21" fill="none" xmlns="http://www.w3.org/2000/svg">
<path d="M6.98291 12.1083H13.6496M6.98291 7.94165H10.3162" stroke="white" stroke-width="1.5" stroke-linecap="round" stroke-linejoin="round"/>
<path d="M5.39859 16.6917C4.31516 16.5851 3.50354 16.2596 2.95922 15.7153C1.98291 14.7391 1.98291 13.1677 1.98291 10.025V9.60832C1.98291 6.46562 1.98291 4.89428 2.95922 3.91796C3.93554 2.94165 5.50688 2.94165 8.64958 2.94165H11.9829C15.1256 2.94165 16.697 2.94165 17.6732 3.91796C18.6496 4.89428 18.6496 6.46562 18.6496 9.60832V10.025C18.6496 13.1677 18.6496 14.7391 17.6732 15.7153C16.697 16.6916 15.1256 16.6917 11.9829 16.6917C11.5158 16.7021 11.1438 16.7376 10.7784 16.8208C9.77974 17.0507 8.85499 17.5617 7.94113 18.0074C6.63898 18.6423 5.98791 18.9598 5.57932 18.6626C4.79765 18.0804 5.56169 16.2766 5.73291 15.4417" stroke="white" stroke-width="1.5" stroke-linecap="round"/>
</svg>
