<svg width="21" height="20" viewBox="0 0 21 20" fill="none" xmlns="http://www.w3.org/2000/svg">
<path d="M7.72255 7.07231C6.87292 6.56296 6.30469 5.63616 6.30469 4.57732C6.30469 2.96972 7.61454 1.6665 9.23034 1.6665C10.8461 1.6665 12.156 2.96972 12.156 4.57732C12.156 5.63616 11.5878 6.56296 10.7381 7.07231" stroke="white" stroke-width="1.5"/>
<path d="M15.5098 2.49188L16.9656 3.69248C17.1786 3.91912 17.2142 4.09002 17.1092 4.34114C17.0711 4.4321 17.0065 4.50892 16.9326 4.57428L15.5098 5.8326M12.5117 4.14598H16.1918" stroke="white" stroke-width="1.5" stroke-linecap="round" stroke-linejoin="round"/>
<path d="M7.63268 18.2769L7.65391 17.7522C7.67468 17.2393 7.53944 16.729 7.25307 16.3001C6.12638 14.6127 5.26539 13.6517 4.0854 12.0059C3.99194 11.8755 3.90453 11.7375 3.8677 11.5817C3.58315 10.379 5.05342 8.81364 6.41527 10.6165L7.74473 11.9753V5.28189C7.92102 3.91036 10.0872 3.6383 10.4524 5.28187V8.39689C11.8036 8.27431 17.2648 9.21106 16.2341 12.9461C16.1858 13.1211 16.1396 13.2998 16.0919 13.4751C15.9183 14.1132 15.4938 15.045 15.0849 15.8392C14.6303 16.7223 14.7499 17.9699 14.6729 18.3321" stroke="white" stroke-width="1.5" stroke-linecap="round" stroke-linejoin="round"/>
</svg>
