<svg width="24" height="24" viewBox="0 0 24 24" fill="none" xmlns="http://www.w3.org/2000/svg">
<path d="M12 2C6.48667 2 2 6.48667 2 12C2 17.5133 6.48667 22 12 22C17.5133 22 22 17.5133 22 12C22 6.48667 17.5133 2 12 2ZM12 3.66667C16.6125 3.66667 20.3333 7.3875 20.3333 12C20.3348 13.9948 19.6193 15.9237 18.3172 17.435C17.0151 18.9462 15.2131 19.9391 13.24 20.2325V14.43H15.6133L15.9858 12.0192H13.24V10.7025C13.24 9.7025 13.5692 8.81333 14.505 8.81333H16.0092V6.71C15.745 6.67417 15.1858 6.59667 14.1292 6.59667C11.9225 6.59667 10.6292 7.76167 10.6292 10.4167V12.0192H8.36083V14.43H10.6292V20.2117C8.68313 19.8914 6.91436 18.8896 5.63891 17.3853C4.36346 15.881 3.66441 13.9722 3.66667 12C3.66667 7.3875 7.3875 3.66667 12 3.66667Z" fill="#0C0B0B"/>
</svg>
