<svg width="696" height="529" viewBox="0 0 696 529" fill="none" xmlns="http://www.w3.org/2000/svg">
<g clip-path="url(#clip0_0_10377)">
<rect width="4.44658" height="1075.52" transform="matrix(2.22233e-08 1 1 -8.59768e-08 -16 205.167)" fill="black" fill-opacity="0.01"/>
<rect width="2.22333" height="1075.52" transform="matrix(2.22233e-08 1 1 -8.59768e-08 -16 440.829)" fill="black" fill-opacity="0.01"/>
<rect width="4.44658" height="1075.52" transform="matrix(2.22233e-08 1 1 -8.59768e-08 -16 125.127)" fill="black" fill-opacity="0.01"/>
<rect width="4.44658" height="1075.52" transform="matrix(2.22233e-08 1 1 -8.59768e-08 -16 360.792)" fill="black" fill-opacity="0.01"/>
<rect width="1.34274" height="727" transform="matrix(1 -2.6223e-07 -3.42504e-08 -1 13.543 572)" fill="black" fill-opacity="0.03"/>
<rect width="1.34274" height="727" transform="matrix(1 -2.6223e-07 -3.42504e-08 -1 633.879 572)" fill="black" fill-opacity="0.03"/>
<rect width="1.34274" height="727" transform="matrix(1 -2.6223e-07 -3.42504e-08 -1 323.707 572)" fill="black" fill-opacity="0.03"/>
<rect width="1.34274" height="727" transform="matrix(1 -2.6223e-07 -3.42504e-08 -1 169.297 572)" fill="black" fill-opacity="0.03"/>
<rect width="1.34274" height="727" transform="matrix(1 -2.6223e-07 -3.42504e-08 -1 479.465 572)" fill="black" fill-opacity="0.03"/>
<rect width="1.34274" height="727" transform="matrix(1 -2.6223e-07 -3.42504e-08 -1 52.4805 572)" fill="black" fill-opacity="0.03"/>
<rect width="1.34274" height="727" transform="matrix(1 -2.6223e-07 -3.42504e-08 -1 672.816 572)" fill="black" fill-opacity="0.03"/>
<rect width="1.34274" height="727" transform="matrix(1 -2.6223e-07 -3.42504e-08 -1 362.648 572)" fill="black" fill-opacity="0.03"/>
<rect width="2.68546" height="727" transform="matrix(1 -2.6223e-07 -3.42504e-08 -1 206.891 572)" fill="black" fill-opacity="0.03"/>
<rect width="2.68546" height="727" transform="matrix(1 -2.6223e-07 -3.42504e-08 -1 532.832 572)" fill="black" fill-opacity="0.03"/>
<rect width="1.34274" height="727" transform="matrix(1 -2.6223e-07 -3.42504e-08 -1 91.418 572)" fill="black" fill-opacity="0.03"/>
<rect width="1.34274" height="727" transform="matrix(1 -2.6223e-07 -3.42504e-08 -1 401.586 572)" fill="black" fill-opacity="0.03"/>
<rect width="2.68546" height="727" transform="matrix(1 -2.6223e-07 -3.42504e-08 -1 245.832 572)" fill="black" fill-opacity="0.03"/>
<rect width="1.34274" height="727" transform="matrix(1 -2.6223e-07 -3.42504e-08 -1 130.359 572)" fill="black" fill-opacity="0.03"/>
<rect width="1.34274" height="727" transform="matrix(1 -2.6223e-07 -3.42504e-08 -1 440.527 572)" fill="black" fill-opacity="0.03"/>
<rect width="2.68546" height="727" transform="matrix(1 -2.6223e-07 -3.42504e-08 -1 284.77 572)" fill="black" fill-opacity="0.03"/>
<rect width="2.68546" height="727" transform="matrix(1 -2.6223e-07 -3.42504e-08 -1 594.938 572)" fill="black" fill-opacity="0.03"/>
<rect width="4.44658" height="1075.52" transform="matrix(2.22233e-08 1 1 -8.59768e-08 -16 49.5349)" fill="black" fill-opacity="0.01"/>
<rect width="4.44658" height="1075.52" transform="matrix(2.22233e-08 1 1 -8.59768e-08 -16 280.754)" fill="black" fill-opacity="0.01"/>
<rect width="4.44658" height="1075.52" transform="matrix(2.22233e-08 1 1 -8.59768e-08 -16 516.421)" fill="black" fill-opacity="0.01"/>
</g>
<defs>
<clipPath id="clip0_0_10377">
<rect width="979" height="529" fill="white"/>
</clipPath>
</defs>
</svg>
