<svg width="21" height="21" viewBox="0 0 21 21" fill="none" xmlns="http://www.w3.org/2000/svg">
<path d="M9.48833 18.3583H8.32079C5.33309 18.3583 3.83924 18.3583 2.91107 17.4126C1.98291 16.4667 1.98291 14.9445 1.98291 11.9C1.98291 8.8555 1.98291 7.33325 2.91107 6.38745C3.83924 5.44165 5.33309 5.44165 8.32079 5.44165H11.4897C14.4774 5.44165 15.9713 5.44165 16.8995 6.38745C17.6136 7.11514 17.7782 8.18407 17.8162 10.025" stroke="white" stroke-width="2" stroke-linecap="round"/>
<path d="M16.997 17.5441L18.6496 19.1913M17.8604 15.4634C17.8604 13.8404 16.5447 12.5247 14.9217 12.5247C13.2986 12.5247 11.9829 13.8404 11.9829 15.4634C11.9829 17.0865 13.2986 18.4022 14.9217 18.4022C16.5447 18.4022 17.8604 17.0865 17.8604 15.4634Z" stroke="white" stroke-width="2" stroke-linecap="round" stroke-linejoin="round"/>
<path d="M13.647 5.44133L13.5642 5.18377C13.1517 3.9004 12.9454 3.25872 12.4543 2.89168C11.9633 2.52466 11.3111 2.52466 10.0066 2.52466H9.78734C8.48284 2.52466 7.8306 2.52466 7.33956 2.89168C6.84852 3.25872 6.64226 3.9004 6.22976 5.18377L6.14697 5.44133" stroke="white" stroke-width="2"/>
</svg>
