<svg width="21" height="21" viewBox="0 0 21 21" fill="none" xmlns="http://www.w3.org/2000/svg">
<path d="M7.93573 9.76731L8.10817 9.59489C9.75708 7.94591 12.4306 7.94591 14.0795 9.59489C15.7285 11.2438 15.7285 13.9173 14.0795 15.5662L11.691 17.9547C10.0421 19.6037 7.36857 19.6037 5.71962 17.9547C4.07067 16.3058 4.07067 13.6323 5.71962 11.9834L6.10657 11.5965" stroke="white" stroke-width="1.5" stroke-linecap="round"/>
<path d="M14.5246 10.1198L14.9115 9.73286C16.5605 8.0839 16.5605 5.41044 14.9115 3.76149C13.2626 2.11254 10.5891 2.11254 8.94019 3.76149L6.55165 6.15004C4.90271 7.79898 4.90271 10.4724 6.55165 12.1214C8.2006 13.7704 10.8741 13.7704 12.523 12.1214L12.6954 11.9489" stroke="white" stroke-width="1.5" stroke-linecap="round"/>
</svg>
