<svg width="137" height="35" viewBox="0 0 137 35" fill="none" xmlns="http://www.w3.org/2000/svg">
<path d="M0.785156 25.2347L0.785159 8.41162L9.1967 13.0847V20.6084L15.926 24.3936L22.6552 20.6084V13.0847L31.0668 8.41162V25.2347L15.926 33.6463L0.785156 25.2347Z" fill="#192657"/>
<path fill-rule="evenodd" clip-rule="evenodd" d="M4.99094 10.7481L0.785156 8.41157L15.926 0L31.0668 8.41157L26.861 10.7481V23.1318L15.926 29.4405L4.99094 23.1318L4.99094 10.7481ZM26.4054 11.0013L22.6552 13.0847V13.0379L15.926 9.25269L9.1967 13.0379V13.0847L5.44656 11.0013V22.873L15.926 28.9188L26.4054 22.873V11.0013Z" fill="url(#paint0_linear_0_8988)"/>
<path d="M39.1289 23.9053V9.77393H41.7937V21.4828H48.2538V23.9053H39.1289Z" fill="#192657"/>
<path d="M54.0066 24.1877C53.0107 24.1877 52.1157 23.9859 51.3217 23.5821C50.5276 23.1783 49.9018 22.5929 49.4442 21.8258C48.9866 21.0587 48.7578 20.1368 48.7578 19.0601V18.737C48.7578 17.6604 48.9866 16.7384 49.4442 15.9713C49.9018 15.2042 50.5276 14.6188 51.3217 14.215C52.1157 13.8112 53.0107 13.6094 54.0066 13.6094C55.0026 13.6094 55.8976 13.8112 56.6916 14.215C57.4857 14.6188 58.1115 15.2042 58.5691 15.9713C59.0266 16.7384 59.2555 17.6604 59.2555 18.737V19.0601C59.2555 20.1368 59.0266 21.0587 58.5691 21.8258C58.1115 22.5929 57.4857 23.1783 56.6916 23.5821C55.8976 23.9859 55.0026 24.1877 54.0066 24.1877ZM54.0066 21.9267C54.7872 21.9267 55.4333 21.6778 55.9447 21.1797C56.4561 20.6684 56.7118 19.9415 56.7118 18.9995V18.7976C56.7118 17.8556 56.4561 17.1355 55.9447 16.6375C55.4467 16.1261 54.8007 15.8704 54.0066 15.8704C53.2261 15.8704 52.58 16.1261 52.0686 16.6375C51.5572 17.1355 51.3015 17.8556 51.3015 18.7976V18.9995C51.3015 19.9415 51.5572 20.6684 52.0686 21.1797C52.58 21.6778 53.2261 21.9267 54.0066 21.9267Z" fill="#192657"/>
<path d="M60.2109 18.9389V18.616C60.2109 17.5662 60.4195 16.6712 60.8367 15.9309C61.2539 15.1773 61.8058 14.6053 62.4921 14.215C63.192 13.8112 63.9524 13.6094 64.7733 13.6094C65.6885 13.6094 66.3817 13.7709 66.8527 14.0939C67.3237 14.4169 67.667 14.7534 67.8822 15.1033H68.2457V13.892H70.7489V25.6817C70.7489 26.368 70.547 26.9131 70.1433 27.3169C69.7395 27.7341 69.2012 27.9427 68.5283 27.9427H61.8259V25.7221H67.64C68.0168 25.7221 68.2053 25.5201 68.2053 25.1164V22.5121H67.8418C67.7073 22.7275 67.5189 22.9496 67.2766 23.1783C67.0343 23.3937 66.7114 23.5754 66.3076 23.7235C65.9039 23.8715 65.3924 23.9455 64.7733 23.9455C63.9524 23.9455 63.192 23.7503 62.4921 23.36C61.8058 22.9563 61.2539 22.3843 60.8367 21.6441C60.4195 20.8904 60.2109 19.9887 60.2109 18.9389ZM65.5001 21.7249C66.2807 21.7249 66.9334 21.4759 67.4583 20.9779C67.9832 20.48 68.2457 19.7801 68.2457 18.8784V18.6765C68.2457 17.7613 67.9832 17.0615 67.4583 16.577C66.9469 16.079 66.2942 15.83 65.5001 15.83C64.7195 15.83 64.0667 16.079 63.5419 16.577C63.017 17.0615 62.7546 17.7613 62.7546 18.6765V18.8784C62.7546 19.7801 63.017 20.48 63.5419 20.9779C64.0667 21.4759 64.7195 21.7249 65.5001 21.7249Z" fill="#192657"/>
<path d="M77.4246 24.1877C76.4286 24.1877 75.5336 23.9859 74.7396 23.5821C73.9455 23.1783 73.3197 22.5929 72.8621 21.8258C72.4046 21.0587 72.1758 20.1368 72.1758 19.0601V18.737C72.1758 17.6604 72.4046 16.7384 72.8621 15.9713C73.3197 15.2042 73.9455 14.6188 74.7396 14.215C75.5336 13.8112 76.4286 13.6094 77.4246 13.6094C78.4205 13.6094 79.3154 13.8112 80.1095 14.215C80.9036 14.6188 81.5294 15.2042 81.987 15.9713C82.4446 16.7384 82.6734 17.6604 82.6734 18.737V19.0601C82.6734 20.1368 82.4446 21.0587 81.987 21.8258C81.5294 22.5929 80.9036 23.1783 80.1095 23.5821C79.3154 23.9859 78.4205 24.1877 77.4246 24.1877ZM77.4246 21.9267C78.2051 21.9267 78.8512 21.6778 79.3626 21.1797C79.874 20.6684 80.1297 19.9415 80.1297 18.9995V18.7976C80.1297 17.8556 79.874 17.1355 79.3626 16.6375C78.8646 16.1261 78.2186 15.8704 77.4246 15.8704C76.6439 15.8704 75.998 16.1261 75.4865 16.6375C74.9751 17.1355 74.7194 17.8556 74.7194 18.7976V18.9995C74.7194 19.9415 74.9751 20.6684 75.4865 21.1797C75.998 21.6778 76.6439 21.9267 77.4246 21.9267Z" fill="#192657"/>
<path d="M84.1134 23.9053V13.8921H86.657V23.9053H84.1134ZM85.3851 12.7213C84.9276 12.7213 84.5373 12.5733 84.2143 12.2771C83.9047 11.981 83.75 11.5907 83.75 11.1063C83.75 10.6218 83.9047 10.2315 84.2143 9.93534C84.5373 9.63931 84.9276 9.49121 85.3851 9.49121C85.8562 9.49121 86.2465 9.63931 86.5561 9.93534C86.8656 10.2315 87.0204 10.6218 87.0204 11.1063C87.0204 11.5907 86.8656 11.981 86.5561 12.2771C86.2465 12.5733 85.8562 12.7213 85.3851 12.7213Z" fill="#192657"/>
<path d="M88.5703 27.9427V13.892H91.0737V15.1033H91.4373C91.6656 14.713 92.022 14.3698 92.5073 14.0737C92.9917 13.7641 93.6848 13.6094 94.5865 13.6094C95.3942 13.6094 96.141 13.8112 96.8268 14.215C97.5136 14.6053 98.0652 15.184 98.4825 15.9512C98.8998 16.7183 99.1084 17.6469 99.1084 18.737V19.0601C99.1084 20.1502 98.8998 21.0788 98.4825 21.8459C98.0652 22.6131 97.5136 23.1986 96.8268 23.6023C96.141 23.9926 95.3942 24.1877 94.5865 24.1877C93.9803 24.1877 93.469 24.1137 93.0517 23.9657C92.6479 23.8311 92.3184 23.6561 92.0632 23.4408C91.8205 23.212 91.6253 22.9832 91.4776 22.7544H91.114V27.9427H88.5703ZM93.8191 21.9671C94.6134 21.9671 95.2661 21.7181 95.7774 21.2201C96.3021 20.7088 96.5645 19.9685 96.5645 18.9995V18.7976C96.5645 17.8286 96.3021 17.0951 95.7774 16.5971C95.2527 16.0858 94.5999 15.83 93.8191 15.83C93.0383 15.83 92.3855 16.0858 91.8608 16.5971C91.3361 17.0951 91.0737 17.8286 91.0737 18.7976V18.9995C91.0737 19.9685 91.3361 20.7088 91.8608 21.2201C92.3855 21.7181 93.0383 21.9671 93.8191 21.9671Z" fill="#192657"/>
<path d="M104.693 24.1877C103.387 24.1877 102.317 23.9051 101.483 23.3399C100.649 22.7746 100.144 21.9671 99.9688 20.9173L102.311 20.3117C102.405 20.7827 102.56 21.1529 102.775 21.422C103.004 21.6912 103.28 21.8863 103.603 22.0075C103.939 22.1151 104.303 22.169 104.693 22.169C105.285 22.169 105.723 22.068 106.006 21.8662C106.288 21.6508 106.429 21.3884 106.429 21.0788C106.429 20.7693 106.295 20.5338 106.025 20.3722C105.757 20.1973 105.326 20.056 104.733 19.9484L104.168 19.8474C103.468 19.7128 102.829 19.5311 102.25 19.3023C101.672 19.0601 101.207 18.7303 100.857 18.3131C100.508 17.8959 100.332 17.3575 100.332 16.6981C100.332 15.7022 100.696 14.9418 101.423 14.4169C102.149 13.8785 103.105 13.6094 104.289 13.6094C105.407 13.6094 106.335 13.8584 107.075 14.3563C107.815 14.8543 108.3 15.507 108.529 16.3145L106.167 17.0413C106.059 16.5299 105.837 16.1664 105.501 15.9512C105.177 15.7358 104.774 15.6281 104.289 15.6281C103.805 15.6281 103.435 15.7156 103.179 15.8906C102.924 16.0521 102.796 16.2809 102.796 16.577C102.796 16.9 102.93 17.1422 103.199 17.3037C103.468 17.4517 103.832 17.5662 104.289 17.6469L104.854 17.7478C105.608 17.8824 106.288 18.0641 106.894 18.2929C107.513 18.5082 107.997 18.8245 108.347 19.2418C108.711 19.6455 108.893 20.1973 108.893 20.8971C108.893 21.9469 108.508 22.7612 107.741 23.3399C106.988 23.9051 105.972 24.1877 104.693 24.1877Z" fill="#192657"/>
<path d="M114.029 24.0667C113.249 24.0667 112.562 23.8917 111.97 23.5419C111.392 23.1785 110.94 22.6805 110.617 22.048C110.295 21.4155 110.133 20.6886 110.133 19.8677V13.8921H112.677V19.6658C112.677 20.4195 112.858 20.9848 113.222 21.3615C113.598 21.7384 114.13 21.9268 114.817 21.9268C115.597 21.9268 116.203 21.6711 116.634 21.1597C117.064 20.6348 117.279 19.9081 117.279 18.9794V13.8921H119.823V23.9053H117.319V22.593H116.957C116.795 22.9295 116.492 23.2592 116.048 23.5822C115.604 23.9053 114.931 24.0667 114.029 24.0667Z" fill="#192657"/>
<path d="M121.742 23.9051V13.8919H124.245V14.9821H124.608C124.783 14.6456 125.073 14.3563 125.476 14.114C125.88 13.8583 126.412 13.7305 127.072 13.7305C127.785 13.7305 128.357 13.8718 128.787 14.1544C129.218 14.4235 129.548 14.7802 129.777 15.2243H130.139C130.369 14.7937 130.692 14.437 131.109 14.1544C131.526 13.8718 132.118 13.7305 132.886 13.7305C133.504 13.7305 134.063 13.8651 134.561 14.1342C135.072 14.3899 135.476 14.7869 135.773 15.3253C136.082 15.8501 136.236 16.5163 136.236 17.3239V23.9051H133.693V17.5056C133.693 16.9537 133.552 16.5433 133.269 16.2741C132.986 15.9915 132.589 15.8501 132.078 15.8501C131.5 15.8501 131.048 16.0386 130.725 16.4154C130.416 16.7788 130.261 17.3037 130.261 17.9901V23.9051H127.717V17.5056C127.717 16.9537 127.576 16.5433 127.294 16.2741C127.011 15.9915 126.614 15.8501 126.102 15.8501C125.524 15.8501 125.073 16.0386 124.75 16.4154C124.44 16.7788 124.285 17.3037 124.285 17.9901V23.9051H121.742Z" fill="#192657"/>
<defs>
<linearGradient id="paint0_linear_0_8988" x1="4.99094" y1="6.54231" x2="27.7022" y2="6.54232" gradientUnits="userSpaceOnUse">
<stop stop-color="#64C2DB"/>
<stop offset="0.307292" stop-color="#7476ED"/>
<stop offset="0.604167" stop-color="#C994DF"/>
<stop offset="1" stop-color="#E56F8C"/>
</linearGradient>
</defs>
</svg>
