<svg width="22" height="23" viewBox="0 0 22 23" fill="none" xmlns="http://www.w3.org/2000/svg">
<path d="M12.5823 3.65684L14.1955 6.90981C14.4155 7.36264 15.0021 7.79698 15.4971 7.88015L18.4209 8.36994C20.2907 8.68416 20.7307 10.0519 19.3833 11.4011L17.1102 13.693C16.7252 14.0811 16.5145 14.8296 16.6335 15.3657L17.2844 18.2028C17.7976 20.4484 16.6152 21.3172 14.6446 20.1435L11.9041 18.5078C11.4092 18.2121 10.5934 18.2121 10.0893 18.5078L7.34878 20.1435C5.38732 21.3172 4.19579 20.4392 4.70907 18.2028L5.35983 15.3657C5.47898 14.8296 5.26817 14.0811 4.88321 13.693L2.61013 11.4011C1.27195 10.0519 1.70274 8.68416 3.57252 8.36994L6.49637 7.88015C6.98215 7.79698 7.56875 7.36264 7.78872 6.90981L9.40186 3.65684C10.2818 1.89173 11.7116 1.89173 12.5823 3.65684Z" fill="#FF9500"/>
</svg>
