<svg width="24" height="24" viewBox="0 0 24 24" fill="none" xmlns="http://www.w3.org/2000/svg">
<path d="M22.54 6.42C22.4151 5.95228 22.1698 5.52547 21.8285 5.1821C21.4872 4.83873 21.0619 4.59079 20.595 4.463C18.88 4 12 4 12 4C12 4 5.12 4 3.405 4.463C2.93806 4.59079 2.51276 4.83873 2.1715 5.1821C1.83023 5.52547 1.58492 5.95228 1.46 6.42C1 8.148 1 11.75 1 11.75C1 11.75 1 15.352 1.46 17.08C1.58476 17.5479 1.83001 17.9749 2.17129 18.3185C2.51256 18.662 2.93794 18.9101 3.405 19.038C5.121 19.5 12 19.5 12 19.5C12 19.5 18.88 19.5 20.595 19.038C21.0621 18.9101 21.4874 18.662 21.8287 18.3185C22.17 17.9749 22.4152 17.5479 22.54 17.08C23 15.354 23 11.75 23 11.75C23 11.75 23 8.148 22.54 6.42ZM9.75 15.021V8.48L15.5 11.751L9.75 15.021Z" stroke="black" stroke-width="1.5" stroke-miterlimit="10" stroke-linejoin="round"/>
</svg>
